<ttFont>
<head>
    <!-- Most of this table will be recalculated by the compiler -->
    <tableVersion value="1.0"/>
    <fontRevision value="1.0"/>
    <checkSumAdjustment value="0x7c0eb8e1"/>
    <magicNumber value="0x5f0f3cf5"/>
    <flags value="00000000 00001011"/>
    <unitsPerEm value="1000"/>
    <created value="Tue Jan  1 00:00:00 1980"/>
    <modified value="Tue Jan  1 00:00:00 1980"/>
    <xMin value="-78"/>
    <yMin value="-242"/>
    <xMax value="1253"/>
    <yMax value="1059"/>
    <macStyle value="00000000 00000000"/>
    <lowestRecPPEM value="8"/>
    <fontDirectionHint value="2"/>
    <indexToLocFormat value="0"/>
    <glyphDataFormat value="0"/>
  </head>
    <TTGlyph name=".notdef" xMin="33" yMin="0" xMax="298" yMax="666">
      <contour>
        <pt x="33" y="0" on="1"/>
        <pt x="33" y="666" on="1"/>
        <pt x="298" y="666" on="1"/>
        <pt x="298" y="0" on="1"/>
      </contour>
      <contour>
        <pt x="66" y="33" on="1"/>
        <pt x="265" y="33" on="1"/>
        <pt x="265" y="633" on="1"/>
        <pt x="66" y="633" on="1"/>
      </contour>
    </TTGlyph>
    <TTGlyph name="A" xMin="0" yMin="0" xMax="638" yMax="717">
      <contour>
        <pt x="545" y="0" on="1"/>
        <pt x="459" y="221" on="1"/>
        <pt x="176" y="221" on="1"/>
        <pt x="91" y="0" on="1"/>
        <pt x="0" y="0" on="1"/>
        <pt x="279" y="717" on="1"/>
        <pt x="360" y="717" on="1"/>
        <pt x="638" y="0" on="1"/>
      </contour>
      <contour>
        <pt x="352" y="517" on="1"/>
        <pt x="349" y="525" on="0"/>
        <pt x="335" y="567" on="0"/>
        <pt x="322" y="612" on="0"/>
        <pt x="318" y="624" on="1"/>
        <pt x="313" y="604" on="0"/>
        <pt x="302" y="563" on="0"/>
        <pt x="291" y="529" on="0"/>
        <pt x="287" y="517" on="1"/>
        <pt x="206" y="301" on="1"/>
        <pt x="432" y="301" on="1"/>
      </contour>
    </TTGlyph>
    <TTGlyph name="AE" xMin="-1" yMin="0" xMax="821" yMax="714">
      <contour>
        <pt x="821" y="0" on="1"/>
        <pt x="449" y="0" on="1"/>
        <pt x="449" y="221" on="1"/>
        <pt x="199" y="221" on="1"/>
        <pt x="92" y="0" on="1"/>
        <pt x="-1" y="0" on="1"/>
        <pt x="338" y="714" on="1"/>
        <pt x="821" y="714" on="1"/>
        <pt x="821" y="635" on="1"/>
        <pt x="539" y="635" on="1"/>
        <pt x="539" y="412" on="1"/>
        <pt x="802" y="412" on="1"/>
        <pt x="802" y="334" on="1"/>
        <pt x="539" y="334" on="1"/>
        <pt x="539" y="79" on="1"/>
        <pt x="821" y="79" on="1"/>
      </contour>
      <contour>
        <pt x="234" y="301" on="1"/>
        <pt x="449" y="301" on="1"/>
        <pt x="449" y="634" on="1"/>
        <pt x="391" y="634" on="1"/>
      </contour>
    </TTGlyph>
    <TTGlyph name="AEacute" xMin="-1" yMin="0" xMax="821" yMax="944">
      <component glyphName="AE" x="0" y="0" flags="0x1204"/>
      <component glyphName="acute" x="400" y="178" flags="0x1004"/>
    </TTGlyph>
    <TTGlyph name="Aacute" xMin="0" yMin="0" xMax="638" yMax="944">
      <component glyphName="A" x="0" y="0" flags="0x1204"/>
      <component glyphName="acute" x="225" y="178" flags="0x1004"/>
    </TTGlyph>
    <TTGlyph name="Abreve" xMin="0" yMin="0" xMax="638" yMax="918">
      <contour>
        <pt x="473" y="918" on="1"/>
        <pt x="470" y="878" on="0"/>
        <pt x="431" y="818" on="0"/>
        <pt x="363" y="784" on="0"/>
        <pt x="315" y="784" on="1"/>
        <pt x="241" y="784" on="0"/>
        <pt x="166" y="857" on="0"/>
        <pt x="162" y="918" on="1"/>
        <pt x="216" y="918" on="1"/>
        <pt x="219" y="891" on="0"/>
        <pt x="244" y="864" on="0"/>
        <pt x="287" y="855" on="0"/>
        <pt x="317" y="855" on="1"/>
        <pt x="343" y="855" on="0"/>
        <pt x="386" y="865" on="0"/>
        <pt x="415" y="892" on="0"/>
        <pt x="418" y="918" on="1"/>
      </contour>
      <contour>
        <pt x="545" y="0" on="1"/>
        <pt x="459" y="221" on="1"/>
        <pt x="176" y="221" on="1"/>
        <pt x="91" y="0" on="1"/>
        <pt x="0" y="0" on="1"/>
        <pt x="279" y="717" on="1"/>
        <pt x="360" y="717" on="1"/>
        <pt x="638" y="0" on="1"/>
      </contour>
      <contour>
        <pt x="352" y="517" on="1"/>
        <pt x="349" y="525" on="0"/>
        <pt x="335" y="567" on="0"/>
        <pt x="322" y="612" on="0"/>
        <pt x="318" y="624" on="1"/>
        <pt x="313" y="604" on="0"/>
        <pt x="302" y="563" on="0"/>
        <pt x="291" y="529" on="0"/>
        <pt x="287" y="517" on="1"/>
        <pt x="206" y="301" on="1"/>
        <pt x="432" y="301" on="1"/>
      </contour>
    </TTGlyph>
    <TTGlyph name="Acircumflex" xMin="0" yMin="0" xMax="638" yMax="944">
      <contour>
        <pt x="362" y="944" on="1"/>
        <pt x="374" y="922" on="0"/>
        <pt x="419" y="867" on="0"/>
        <pt x="468" y="814" on="0"/>
        <pt x="487" y="795" on="1"/>
        <pt x="487" y="784" on="1"/>
        <pt x="425" y="784" on="1"/>
        <pt x="399" y="800" on="0"/>
        <pt x="343" y="847" on="0"/>
        <pt x="316" y="874" on="1"/>
        <pt x="289" y="847" on="0"/>
        <pt x="235" y="801" on="0"/>
        <pt x="209" y="784" on="1"/>
        <pt x="149" y="784" on="1"/>
        <pt x="149" y="795" on="1"/>
        <pt x="168" y="815" on="0"/>
        <pt x="215" y="867" on="0"/>
        <pt x="259" y="922" on="0"/>
        <pt x="272" y="944" on="1"/>
      </contour>
      <contour>
        <pt x="545" y="0" on="1"/>
        <pt x="459" y="221" on="1"/>
        <pt x="176" y="221" on="1"/>
        <pt x="91" y="0" on="1"/>
        <pt x="0" y="0" on="1"/>
        <pt x="279" y="717" on="1"/>
        <pt x="360" y="717" on="1"/>
        <pt x="638" y="0" on="1"/>
      </contour>
      <contour>
        <pt x="352" y="517" on="1"/>
        <pt x="349" y="525" on="0"/>
        <pt x="335" y="567" on="0"/>
        <pt x="322" y="612" on="0"/>
        <pt x="318" y="624" on="1"/>
        <pt x="313" y="604" on="0"/>
        <pt x="302" y="563" on="0"/>
        <pt x="291" y="529" on="0"/>
        <pt x="287" y="517" on="1"/>
        <pt x="206" y="301" on="1"/>
        <pt x="432" y="301" on="1"/>
      </contour>
    </TTGlyph>
    <TTGlyph name="Adieresis" xMin="0" yMin="0" xMax="638" yMax="908">
      <component glyphName="A" x="0" y="0" flags="0x1204"/>
      <component glyphName="dieresis" x="29" y="178" flags="0x1004"/>
    </TTGlyph>
    <TTGlyph name="Agrave" xMin="0" yMin="0" xMax="638" yMax="944">
      <component glyphName="A" x="0" y="0" flags="0x1204"/>
      <component glyphName="grave" x="148" y="178" flags="0x1004"/>
    </TTGlyph>
    <TTGlyph name="Amacron" xMin="0" yMin="0" xMax="638" yMax="855">
      <contour>
        <pt x="466" y="855" on="1"/>
        <pt x="466" y="784" on="1"/>
        <pt x="169" y="784" on="1"/>
        <pt x="169" y="855" on="1"/>
      </contour>
      <contour>
        <pt x="545" y="0" on="1"/>
        <pt x="459" y="221" on="1"/>
        <pt x="176" y="221" on="1"/>
        <pt x="91" y="0" on="1"/>
        <pt x="0" y="0" on="1"/>
        <pt x="279" y="717" on="1"/>
        <pt x="360" y="717" on="1"/>
        <pt x="638" y="0" on="1"/>
      </contour>
      <contour>
        <pt x="352" y="517" on="1"/>
        <pt x="349" y="525" on="0"/>
        <pt x="335" y="567" on="0"/>
        <pt x="322" y="612" on="0"/>
        <pt x="318" y="624" on="1"/>
        <pt x="313" y="604" on="0"/>
        <pt x="302" y="563" on="0"/>
        <pt x="291" y="529" on="0"/>
        <pt x="287" y="517" on="1"/>
        <pt x="206" y="301" on="1"/>
        <pt x="432" y="301" on="1"/>
      </contour>
    </TTGlyph>
    <TTGlyph name="Aogonek" xMin="0" yMin="-220" xMax="638" yMax="717">
      <contour>
        <pt x="545" y="-116" on="1"/>
        <pt x="545" y="-138" on="0"/>
        <pt x="569" y="-161" on="0"/>
        <pt x="590" y="-161" on="1"/>
        <pt x="607" y="-161" on="0"/>
        <pt x="630" y="-156" on="0"/>
        <pt x="638" y="-155" on="1"/>
        <pt x="638" y="-211" on="1"/>
        <pt x="624" y="-215" on="0"/>
        <pt x="596" y="-220" on="0"/>
        <pt x="576" y="-220" on="1"/>
        <pt x="523" y="-220" on="0"/>
        <pt x="473" y="-170" on="0"/>
        <pt x="473" y="-126" on="1"/>
        <pt x="473" y="-97" on="0"/>
        <pt x="502" y="-43" on="0"/>
        <pt x="545" y="1" on="0"/>
        <pt x="565" y="15" on="1"/>
        <pt x="613" y="0" on="1"/>
        <pt x="579" y="-32" on="0"/>
        <pt x="545" y="-85" on="0"/>
      </contour>
      <contour>
        <pt x="545" y="0" on="1"/>
        <pt x="459" y="221" on="1"/>
        <pt x="176" y="221" on="1"/>
        <pt x="91" y="0" on="1"/>
        <pt x="0" y="0" on="1"/>
        <pt x="279" y="717" on="1"/>
        <pt x="360" y="717" on="1"/>
        <pt x="638" y="0" on="1"/>
      </contour>
      <contour>
        <pt x="352" y="517" on="1"/>
        <pt x="349" y="525" on="0"/>
        <pt x="335" y="567" on="0"/>
        <pt x="322" y="612" on="0"/>
        <pt x="318" y="624" on="1"/>
        <pt x="313" y="604" on="0"/>
        <pt x="302" y="563" on="0"/>
        <pt x="291" y="529" on="0"/>
        <pt x="287" y="517" on="1"/>
        <pt x="206" y="301" on="1"/>
        <pt x="432" y="301" on="1"/>
      </contour>
    </TTGlyph>
    <TTGlyph name="Aring" xMin="0" yMin="0" xMax="638" yMax="878">
      <contour>
        <pt x="317" y="667" on="1"/>
        <pt x="268" y="667" on="0"/>
        <pt x="208" y="723" on="0"/>
        <pt x="208" y="773" on="1"/>
        <pt x="208" y="823" on="0"/>
        <pt x="268" y="878" on="0"/>
        <pt x="317" y="878" on="1"/>
        <pt x="364" y="878" on="0"/>
        <pt x="428" y="823" on="0"/>
        <pt x="428" y="774" on="1"/>
        <pt x="428" y="723" on="0"/>
        <pt x="365" y="667" on="0"/>
      </contour>
      <contour>
        <pt x="317" y="717" on="1"/>
        <pt x="342" y="717" on="0"/>
        <pt x="373" y="747" on="0"/>
        <pt x="373" y="773" on="1"/>
        <pt x="373" y="799" on="0"/>
        <pt x="341" y="829" on="0"/>
        <pt x="317" y="829" on="1"/>
        <pt x="293" y="829" on="0"/>
        <pt x="261" y="799" on="0"/>
        <pt x="261" y="773" on="1"/>
        <pt x="261" y="747" on="0"/>
        <pt x="290" y="717" on="0"/>
      </contour>
      <contour>
        <pt x="545" y="0" on="1"/>
        <pt x="459" y="221" on="1"/>
        <pt x="176" y="221" on="1"/>
        <pt x="91" y="0" on="1"/>
        <pt x="0" y="0" on="1"/>
        <pt x="279" y="717" on="1"/>
        <pt x="360" y="717" on="1"/>
        <pt x="638" y="0" on="1"/>
      </contour>
      <contour>
        <pt x="352" y="517" on="1"/>
        <pt x="349" y="525" on="0"/>
        <pt x="335" y="567" on="0"/>
        <pt x="322" y="612" on="0"/>
        <pt x="318" y="624" on="1"/>
        <pt x="313" y="604" on="0"/>
        <pt x="302" y="563" on="0"/>
        <pt x="291" y="529" on="0"/>
        <pt x="287" y="517" on="1"/>
        <pt x="206" y="301" on="1"/>
        <pt x="432" y="301" on="1"/>
      </contour>
    </TTGlyph>
    <TTGlyph name="Aringacute" xMin="0" yMin="0" xMax="640" yMax="958">
      <contour>
        <pt x="258" y="608" on="1"/>
        <pt x="235" y="621" on="0"/>
        <pt x="209" y="667" on="0"/>
        <pt x="209" y="698" on="1"/>
        <pt x="209" y="748" on="0"/>
        <pt x="270" y="804" on="0"/>
        <pt x="318" y="804" on="1"/>
        <pt x="365" y="804" on="0"/>
        <pt x="430" y="749" on="0"/>
        <pt x="430" y="699" on="1"/>
        <pt x="430" y="668" on="0"/>
        <pt x="404" y="622" on="0"/>
        <pt x="382" y="609" on="1"/>
        <pt x="640" y="0" on="1"/>
        <pt x="547" y="0" on="1"/>
        <pt x="465" y="192" on="1"/>
        <pt x="170" y="192" on="1"/>
        <pt x="92" y="0" on="1"/>
        <pt x="0" y="0" on="1"/>
      </contour>
      <contour>
        <pt x="201" y="272" on="1"/>
        <pt x="439" y="272" on="1"/>
        <pt x="355" y="479" on="1"/>
        <pt x="350" y="491" on="0"/>
        <pt x="337" y="525" on="0"/>
        <pt x="325" y="562" on="0"/>
        <pt x="319" y="580" on="1"/>
        <pt x="315" y="567" on="0"/>
        <pt x="305" y="538" on="0"/>
        <pt x="296" y="510" on="0"/>
        <pt x="287" y="486" on="0"/>
        <pt x="284" y="477" on="1"/>
      </contour>
      <contour>
        <pt x="318" y="642" on="1"/>
        <pt x="343" y="642" on="0"/>
        <pt x="374" y="671" on="0"/>
        <pt x="374" y="698" on="1"/>
        <pt x="374" y="725" on="0"/>
        <pt x="343" y="754" on="0"/>
        <pt x="318" y="754" on="1"/>
        <pt x="294" y="754" on="0"/>
        <pt x="262" y="725" on="0"/>
        <pt x="262" y="698" on="1"/>
        <pt x="262" y="672" on="0"/>
        <pt x="291" y="642" on="0"/>
      </contour>
      <contour>
        <pt x="271" y="838" on="1"/>
        <pt x="285" y="854" on="0"/>
        <pt x="316" y="896" on="0"/>
        <pt x="346" y="940" on="0"/>
        <pt x="356" y="958" on="1"/>
        <pt x="462" y="958" on="1"/>
        <pt x="462" y="950" on="1"/>
        <pt x="454" y="939" on="0"/>
        <pt x="424" y="907" on="0"/>
        <pt x="386" y="872" on="0"/>
        <pt x="347" y="840" on="0"/>
        <pt x="330" y="829" on="1"/>
        <pt x="271" y="829" on="1"/>
      </contour>
    </TTGlyph>
    <TTGlyph name="Atilde" xMin="0" yMin="0" xMax="638" yMax="913">
      <contour>
        <pt x="135" y="784" on="1"/>
        <pt x="138" y="814" on="0"/>
        <pt x="155" y="861" on="0"/>
        <pt x="183" y="894" on="0"/>
        <pt x="221" y="912" on="0"/>
        <pt x="245" y="912" on="1"/>
        <pt x="267" y="912" on="0"/>
        <pt x="308" y="895" on="0"/>
        <pt x="346" y="872" on="0"/>
        <pt x="381" y="855" on="0"/>
        <pt x="397" y="855" on="1"/>
        <pt x="420" y="855" on="0"/>
        <pt x="445" y="884" on="0"/>
        <pt x="452" y="913" on="1"/>
        <pt x="502" y="913" on="1"/>
        <pt x="496" y="855" on="0"/>
        <pt x="440" y="785" on="0"/>
        <pt x="393" y="785" on="1"/>
        <pt x="372" y="785" on="0"/>
        <pt x="332" y="802" on="0"/>
        <pt x="293" y="825" on="0"/>
        <pt x="258" y="842" on="0"/>
        <pt x="241" y="842" on="1"/>
        <pt x="217" y="842" on="0"/>
        <pt x="193" y="813" on="0"/>
        <pt x="186" y="784" on="1"/>
      </contour>
      <contour>
        <pt x="545" y="0" on="1"/>
        <pt x="459" y="221" on="1"/>
        <pt x="176" y="221" on="1"/>
        <pt x="91" y="0" on="1"/>
        <pt x="0" y="0" on="1"/>
        <pt x="279" y="717" on="1"/>
        <pt x="360" y="717" on="1"/>
        <pt x="638" y="0" on="1"/>
      </contour>
      <contour>
        <pt x="352" y="517" on="1"/>
        <pt x="349" y="525" on="0"/>
        <pt x="335" y="567" on="0"/>
        <pt x="322" y="612" on="0"/>
        <pt x="318" y="624" on="1"/>
        <pt x="313" y="604" on="0"/>
        <pt x="302" y="563" on="0"/>
        <pt x="291" y="529" on="0"/>
        <pt x="287" y="517" on="1"/>
        <pt x="206" y="301" on="1"/>
        <pt x="432" y="301" on="1"/>
      </contour>
    </TTGlyph>
    <TTGlyph name="B" xMin="97" yMin="0" xMax="596" yMax="714">
      <contour>
        <pt x="301" y="714" on="1"/>
        <pt x="435" y="714" on="0"/>
        <pt x="572" y="635" on="0"/>
        <pt x="572" y="537" on="1"/>
        <pt x="572" y="495" on="0"/>
        <pt x="541" y="430" on="0"/>
        <pt x="480" y="387" on="0"/>
        <pt x="436" y="379" on="1"/>
        <pt x="436" y="374" on="1"/>
        <pt x="481" y="367" on="0"/>
        <pt x="554" y="329" on="0"/>
        <pt x="596" y="259" on="0"/>
        <pt x="596" y="203" on="1"/>
        <pt x="596" y="138" on="0"/>
        <pt x="536" y="47" on="0"/>
        <pt x="425" y="0" on="0"/>
        <pt x="348" y="0" on="1"/>
        <pt x="97" y="0" on="1"/>
        <pt x="97" y="714" on="1"/>
      </contour>
      <contour>
        <pt x="319" y="410" on="1"/>
        <pt x="411" y="410" on="0"/>
        <pt x="479" y="469" on="0"/>
        <pt x="479" y="527" on="1"/>
        <pt x="479" y="586" on="0"/>
        <pt x="396" y="637" on="0"/>
        <pt x="305" y="637" on="1"/>
        <pt x="187" y="637" on="1"/>
        <pt x="187" y="410" on="1"/>
      </contour>
      <contour>
        <pt x="187" y="335" on="1"/>
        <pt x="187" y="76" on="1"/>
        <pt x="331" y="76" on="1"/>
        <pt x="426" y="76" on="0"/>
        <pt x="500" y="150" on="0"/>
        <pt x="500" y="210" on="1"/>
        <pt x="500" y="248" on="0"/>
        <pt x="467" y="304" on="0"/>
        <pt x="390" y="335" on="0"/>
        <pt x="324" y="335" on="1"/>
      </contour>
    </TTGlyph>
    <TTGlyph name="C" xMin="61" yMin="-10" xMax="601" yMax="724">
      <contour>
        <pt x="403" y="645" on="1"/>
        <pt x="346" y="645" on="0"/>
        <pt x="254" y="606" on="0"/>
        <pt x="190" y="531" on="0"/>
        <pt x="156" y="424" on="0"/>
        <pt x="156" y="357" on="1"/>
        <pt x="156" y="269" on="0"/>
        <pt x="211" y="139" on="0"/>
        <pt x="320" y="69" on="0"/>
        <pt x="402" y="69" on="1"/>
        <pt x="449" y="69" on="0"/>
        <pt x="533" y="85" on="0"/>
        <pt x="573" y="97" on="1"/>
        <pt x="573" y="19" on="1"/>
        <pt x="533" y="4" on="0"/>
        <pt x="448" y="-10" on="0"/>
        <pt x="389" y="-10" on="1"/>
        <pt x="280" y="-10" on="0"/>
        <pt x="134" y="80" on="0"/>
        <pt x="61" y="246" on="0"/>
        <pt x="61" y="358" on="1"/>
        <pt x="61" y="439" on="0"/>
        <pt x="106" y="573" on="0"/>
        <pt x="193" y="671" on="0"/>
        <pt x="321" y="724" on="0"/>
        <pt x="404" y="724" on="1"/>
        <pt x="459" y="724" on="0"/>
        <pt x="561" y="702" on="0"/>
        <pt x="601" y="682" on="1"/>
        <pt x="565" y="606" on="1"/>
        <pt x="532" y="621" on="0"/>
        <pt x="451" y="645" on="0"/>
      </contour>
    </TTGlyph>
    <TTGlyph name="Cacute" xMin="61" yMin="-10" xMax="601" yMax="944">
      <component glyphName="C" x="0" y="0" flags="0x1204"/>
      <component glyphName="acute" x="287" y="178" flags="0x1004"/>
    </TTGlyph>
    <TTGlyph name="Ccaron" xMin="61" yMin="-11" xMax="601" yMax="944">
      <contour>
        <pt x="334" y="784" on="1"/>
        <pt x="321" y="807" on="0"/>
        <pt x="277" y="860" on="0"/>
        <pt x="229" y="912" on="0"/>
        <pt x="211" y="931" on="1"/>
        <pt x="211" y="944" on="1"/>
        <pt x="271" y="944" on="1"/>
        <pt x="297" y="927" on="0"/>
        <pt x="353" y="879" on="0"/>
        <pt x="378" y="852" on="1"/>
        <pt x="405" y="879" on="0"/>
        <pt x="461" y="927" on="0"/>
        <pt x="487" y="944" on="1"/>
        <pt x="549" y="944" on="1"/>
        <pt x="549" y="931" on="1"/>
        <pt x="530" y="912" on="0"/>
        <pt x="481" y="860" on="0"/>
        <pt x="436" y="807" on="0"/>
        <pt x="424" y="784" on="1"/>
      </contour>
      <contour>
        <pt x="403" y="645" on="1"/>
        <pt x="346" y="645" on="0"/>
        <pt x="254" y="606" on="0"/>
        <pt x="190" y="531" on="0"/>
        <pt x="156" y="424" on="0"/>
        <pt x="156" y="357" on="1"/>
        <pt x="156" y="269" on="0"/>
        <pt x="211" y="139" on="0"/>
        <pt x="320" y="69" on="0"/>
        <pt x="402" y="69" on="1"/>
        <pt x="449" y="69" on="0"/>
        <pt x="533" y="85" on="0"/>
        <pt x="573" y="97" on="1"/>
        <pt x="573" y="19" on="1"/>
        <pt x="533" y="4" on="0"/>
        <pt x="448" y="-10" on="0"/>
        <pt x="389" y="-10" on="1"/>
        <pt x="280" y="-10" on="0"/>
        <pt x="134" y="80" on="0"/>
        <pt x="61" y="246" on="0"/>
        <pt x="61" y="358" on="1"/>
        <pt x="61" y="439" on="0"/>
        <pt x="106" y="573" on="0"/>
        <pt x="193" y="671" on="0"/>
        <pt x="321" y="724" on="0"/>
        <pt x="404" y="724" on="1"/>
        <pt x="459" y="724" on="0"/>
        <pt x="561" y="702" on="0"/>
        <pt x="601" y="682" on="1"/>
        <pt x="565" y="606" on="1"/>
        <pt x="532" y="621" on="0"/>
        <pt x="451" y="645" on="0"/>
      </contour>
    </TTGlyph>
    <TTGlyph name="Ccedilla" xMin="61" yMin="-240" xMax="601" yMax="724">
      <component glyphName="C" x="0" y="0" flags="0x1204"/>
      <component glyphName="cedilla" x="261" y="0" flags="0x1004"/>
    </TTGlyph>
    <TTGlyph name="Ccircumflex" xMin="61" yMin="-11" xMax="601" yMax="944">
      <contour>
        <pt x="424" y="944" on="1"/>
        <pt x="436" y="922" on="0"/>
        <pt x="481" y="867" on="0"/>
        <pt x="530" y="814" on="0"/>
        <pt x="549" y="795" on="1"/>
        <pt x="549" y="784" on="1"/>
        <pt x="487" y="784" on="1"/>
        <pt x="461" y="800" on="0"/>
        <pt x="405" y="847" on="0"/>
        <pt x="378" y="874" on="1"/>
        <pt x="351" y="847" on="0"/>
        <pt x="297" y="801" on="0"/>
        <pt x="271" y="784" on="1"/>
        <pt x="211" y="784" on="1"/>
        <pt x="211" y="795" on="1"/>
        <pt x="230" y="815" on="0"/>
        <pt x="277" y="867" on="0"/>
        <pt x="321" y="922" on="0"/>
        <pt x="334" y="944" on="1"/>
      </contour>
      <contour>
        <pt x="403" y="645" on="1"/>
        <pt x="346" y="645" on="0"/>
        <pt x="254" y="606" on="0"/>
        <pt x="190" y="531" on="0"/>
        <pt x="156" y="424" on="0"/>
        <pt x="156" y="357" on="1"/>
        <pt x="156" y="269" on="0"/>
        <pt x="211" y="139" on="0"/>
        <pt x="320" y="69" on="0"/>
        <pt x="402" y="69" on="1"/>
        <pt x="449" y="69" on="0"/>
        <pt x="533" y="85" on="0"/>
        <pt x="573" y="97" on="1"/>
        <pt x="573" y="19" on="1"/>
        <pt x="533" y="4" on="0"/>
        <pt x="448" y="-10" on="0"/>
        <pt x="389" y="-10" on="1"/>
        <pt x="280" y="-10" on="0"/>
        <pt x="134" y="80" on="0"/>
        <pt x="61" y="246" on="0"/>
        <pt x="61" y="358" on="1"/>
        <pt x="61" y="439" on="0"/>
        <pt x="106" y="573" on="0"/>
        <pt x="193" y="671" on="0"/>
        <pt x="321" y="724" on="0"/>
        <pt x="404" y="724" on="1"/>
        <pt x="459" y="724" on="0"/>
        <pt x="561" y="702" on="0"/>
        <pt x="601" y="682" on="1"/>
        <pt x="565" y="606" on="1"/>
        <pt x="532" y="621" on="0"/>
        <pt x="451" y="645" on="0"/>
      </contour>
    </TTGlyph>
    <TTGlyph name="Cdotaccent" xMin="61" yMin="-11" xMax="601" yMax="915">
      <contour>
        <pt x="381" y="915" on="1"/>
        <pt x="401" y="915" on="0"/>
        <pt x="432" y="888" on="0"/>
        <pt x="432" y="859" on="1"/>
        <pt x="432" y="831" on="0"/>
        <pt x="401" y="803" on="0"/>
        <pt x="381" y="803" on="1"/>
        <pt x="359" y="803" on="0"/>
        <pt x="329" y="831" on="0"/>
        <pt x="329" y="859" on="1"/>
        <pt x="329" y="888" on="0"/>
        <pt x="359" y="915" on="0"/>
      </contour>
      <contour>
        <pt x="403" y="645" on="1"/>
        <pt x="346" y="645" on="0"/>
        <pt x="254" y="606" on="0"/>
        <pt x="190" y="531" on="0"/>
        <pt x="156" y="424" on="0"/>
        <pt x="156" y="357" on="1"/>
        <pt x="156" y="269" on="0"/>
        <pt x="211" y="139" on="0"/>
        <pt x="320" y="69" on="0"/>
        <pt x="402" y="69" on="1"/>
        <pt x="449" y="69" on="0"/>
        <pt x="533" y="85" on="0"/>
        <pt x="573" y="97" on="1"/>
        <pt x="573" y="19" on="1"/>
        <pt x="533" y="4" on="0"/>
        <pt x="448" y="-10" on="0"/>
        <pt x="389" y="-10" on="1"/>
        <pt x="280" y="-10" on="0"/>
        <pt x="134" y="80" on="0"/>
        <pt x="61" y="246" on="0"/>
        <pt x="61" y="358" on="1"/>
        <pt x="61" y="439" on="0"/>
        <pt x="106" y="573" on="0"/>
        <pt x="193" y="671" on="0"/>
        <pt x="321" y="724" on="0"/>
        <pt x="404" y="724" on="1"/>
        <pt x="459" y="724" on="0"/>
        <pt x="561" y="702" on="0"/>
        <pt x="601" y="682" on="1"/>
        <pt x="565" y="606" on="1"/>
        <pt x="532" y="621" on="0"/>
        <pt x="451" y="645" on="0"/>
      </contour>
    </TTGlyph>
    <TTGlyph name="D" xMin="97" yMin="0" xMax="669" yMax="714">
      <contour>
        <pt x="669" y="364" on="1"/>
        <pt x="669" y="244" on="0"/>
        <pt x="580" y="82" on="0"/>
        <pt x="414" y="0" on="0"/>
        <pt x="296" y="0" on="1"/>
        <pt x="97" y="0" on="1"/>
        <pt x="97" y="714" on="1"/>
        <pt x="317" y="714" on="1"/>
        <pt x="425" y="714" on="0"/>
        <pt x="583" y="634" on="0"/>
        <pt x="669" y="479" on="0"/>
      </contour>
      <contour>
        <pt x="574" y="361" on="1"/>
        <pt x="574" y="456" on="0"/>
        <pt x="511" y="578" on="0"/>
        <pt x="390" y="637" on="0"/>
        <pt x="304" y="637" on="1"/>
        <pt x="187" y="637" on="1"/>
        <pt x="187" y="77" on="1"/>
        <pt x="284" y="77" on="1"/>
        <pt x="429" y="77" on="0"/>
        <pt x="574" y="220" on="0"/>
      </contour>
    </TTGlyph>
    <TTGlyph name="Dcaron" xMin="97" yMin="0" xMax="670" yMax="944">
      <contour>
        <pt x="315" y="784" on="1"/>
        <pt x="302" y="807" on="0"/>
        <pt x="258" y="860" on="0"/>
        <pt x="210" y="912" on="0"/>
        <pt x="192" y="931" on="1"/>
        <pt x="192" y="944" on="1"/>
        <pt x="252" y="944" on="1"/>
        <pt x="278" y="927" on="0"/>
        <pt x="334" y="879" on="0"/>
        <pt x="359" y="852" on="1"/>
        <pt x="386" y="879" on="0"/>
        <pt x="442" y="927" on="0"/>
        <pt x="468" y="944" on="1"/>
        <pt x="530" y="944" on="1"/>
        <pt x="530" y="931" on="1"/>
        <pt x="511" y="912" on="0"/>
        <pt x="462" y="860" on="0"/>
        <pt x="417" y="807" on="0"/>
        <pt x="405" y="784" on="1"/>
      </contour>
      <contour>
        <pt x="669" y="364" on="1"/>
        <pt x="669" y="244" on="0"/>
        <pt x="580" y="82" on="0"/>
        <pt x="414" y="0" on="0"/>
        <pt x="296" y="0" on="1"/>
        <pt x="97" y="0" on="1"/>
        <pt x="97" y="714" on="1"/>
        <pt x="317" y="714" on="1"/>
        <pt x="425" y="714" on="0"/>
        <pt x="583" y="634" on="0"/>
        <pt x="669" y="479" on="0"/>
      </contour>
      <contour>
        <pt x="574" y="361" on="1"/>
        <pt x="574" y="456" on="0"/>
        <pt x="511" y="578" on="0"/>
        <pt x="390" y="637" on="0"/>
        <pt x="304" y="637" on="1"/>
        <pt x="187" y="637" on="1"/>
        <pt x="187" y="77" on="1"/>
        <pt x="284" y="77" on="1"/>
        <pt x="429" y="77" on="0"/>
        <pt x="574" y="220" on="0"/>
      </contour>
    </TTGlyph>
    <TTGlyph name="Dcroat" xMin="30" yMin="0" xMax="669" yMax="714">
      <component glyphName="Eth" x="0" y="0" flags="0x1204"/>
    </TTGlyph>
    <TTGlyph name="E" xMin="97" yMin="0" xMax="496" yMax="714">
      <contour>
        <pt x="496" y="0" on="1"/>
        <pt x="97" y="0" on="1"/>
        <pt x="97" y="714" on="1"/>
        <pt x="496" y="714" on="1"/>
        <pt x="496" y="635" on="1"/>
        <pt x="187" y="635" on="1"/>
        <pt x="187" y="412" on="1"/>
        <pt x="478" y="412" on="1"/>
        <pt x="478" y="334" on="1"/>
        <pt x="187" y="334" on="1"/>
        <pt x="187" y="79" on="1"/>
        <pt x="496" y="79" on="1"/>
      </contour>
    </TTGlyph>
    <TTGlyph name="Eacute" xMin="97" yMin="0" xMax="496" yMax="944">
      <component glyphName="E" x="0" y="0" flags="0x1204"/>
      <component glyphName="acute" x="212" y="178" flags="0x1004"/>
    </TTGlyph>
    <TTGlyph name="Ebreve" xMin="97" yMin="0" xMax="496" yMax="918">
      <contour>
        <pt x="460" y="918" on="1"/>
        <pt x="457" y="878" on="0"/>
        <pt x="418" y="818" on="0"/>
        <pt x="350" y="784" on="0"/>
        <pt x="302" y="784" on="1"/>
        <pt x="228" y="784" on="0"/>
        <pt x="153" y="857" on="0"/>
        <pt x="149" y="918" on="1"/>
        <pt x="203" y="918" on="1"/>
        <pt x="206" y="891" on="0"/>
        <pt x="231" y="864" on="0"/>
        <pt x="274" y="855" on="0"/>
        <pt x="304" y="855" on="1"/>
        <pt x="330" y="855" on="0"/>
        <pt x="373" y="865" on="0"/>
        <pt x="402" y="892" on="0"/>
        <pt x="405" y="918" on="1"/>
      </contour>
      <contour>
        <pt x="496" y="0" on="1"/>
        <pt x="97" y="0" on="1"/>
        <pt x="97" y="714" on="1"/>
        <pt x="496" y="714" on="1"/>
        <pt x="496" y="635" on="1"/>
        <pt x="187" y="635" on="1"/>
        <pt x="187" y="412" on="1"/>
        <pt x="478" y="412" on="1"/>
        <pt x="478" y="334" on="1"/>
        <pt x="187" y="334" on="1"/>
        <pt x="187" y="79" on="1"/>
        <pt x="496" y="79" on="1"/>
      </contour>
    </TTGlyph>
    <TTGlyph name="Ecaron" xMin="97" yMin="0" xMax="496" yMax="944">
      <contour>
        <pt x="259" y="784" on="1"/>
        <pt x="246" y="807" on="0"/>
        <pt x="202" y="860" on="0"/>
        <pt x="154" y="912" on="0"/>
        <pt x="136" y="931" on="1"/>
        <pt x="136" y="944" on="1"/>
        <pt x="196" y="944" on="1"/>
        <pt x="222" y="927" on="0"/>
        <pt x="278" y="879" on="0"/>
        <pt x="303" y="852" on="1"/>
        <pt x="330" y="879" on="0"/>
        <pt x="386" y="927" on="0"/>
        <pt x="412" y="944" on="1"/>
        <pt x="474" y="944" on="1"/>
        <pt x="474" y="931" on="1"/>
        <pt x="455" y="912" on="0"/>
        <pt x="406" y="860" on="0"/>
        <pt x="361" y="807" on="0"/>
        <pt x="349" y="784" on="1"/>
      </contour>
      <contour>
        <pt x="496" y="0" on="1"/>
        <pt x="97" y="0" on="1"/>
        <pt x="97" y="714" on="1"/>
        <pt x="496" y="714" on="1"/>
        <pt x="496" y="635" on="1"/>
        <pt x="187" y="635" on="1"/>
        <pt x="187" y="412" on="1"/>
        <pt x="478" y="412" on="1"/>
        <pt x="478" y="334" on="1"/>
        <pt x="187" y="334" on="1"/>
        <pt x="187" y="79" on="1"/>
        <pt x="496" y="79" on="1"/>
      </contour>
    </TTGlyph>
    <TTGlyph name="Ecircumflex" xMin="97" yMin="0" xMax="496" yMax="944">
      <contour>
        <pt x="349" y="944" on="1"/>
        <pt x="361" y="922" on="0"/>
        <pt x="406" y="867" on="0"/>
        <pt x="455" y="814" on="0"/>
        <pt x="474" y="795" on="1"/>
        <pt x="474" y="784" on="1"/>
        <pt x="412" y="784" on="1"/>
        <pt x="386" y="800" on="0"/>
        <pt x="330" y="847" on="0"/>
        <pt x="303" y="874" on="1"/>
        <pt x="276" y="847" on="0"/>
        <pt x="222" y="801" on="0"/>
        <pt x="196" y="784" on="1"/>
        <pt x="136" y="784" on="1"/>
        <pt x="136" y="795" on="1"/>
        <pt x="155" y="815" on="0"/>
        <pt x="202" y="867" on="0"/>
        <pt x="246" y="922" on="0"/>
        <pt x="259" y="944" on="1"/>
      </contour>
      <contour>
        <pt x="496" y="0" on="1"/>
        <pt x="97" y="0" on="1"/>
        <pt x="97" y="714" on="1"/>
        <pt x="496" y="714" on="1"/>
        <pt x="496" y="635" on="1"/>
        <pt x="187" y="635" on="1"/>
        <pt x="187" y="412" on="1"/>
        <pt x="478" y="412" on="1"/>
        <pt x="478" y="334" on="1"/>
        <pt x="187" y="334" on="1"/>
        <pt x="187" y="79" on="1"/>
        <pt x="496" y="79" on="1"/>
      </contour>
    </TTGlyph>
    <TTGlyph name="Edieresis" xMin="97" yMin="0" xMax="496" yMax="908">
      <component glyphName="E" x="0" y="0" flags="0x1204"/>
      <component glyphName="dieresis" x="16" y="178" flags="0x1004"/>
    </TTGlyph>
    <TTGlyph name="Edotaccent" xMin="97" yMin="0" xMax="496" yMax="915">
      <contour>
        <pt x="306" y="915" on="1"/>
        <pt x="326" y="915" on="0"/>
        <pt x="357" y="888" on="0"/>
        <pt x="357" y="859" on="1"/>
        <pt x="357" y="831" on="0"/>
        <pt x="326" y="803" on="0"/>
        <pt x="306" y="803" on="1"/>
        <pt x="284" y="803" on="0"/>
        <pt x="254" y="831" on="0"/>
        <pt x="254" y="859" on="1"/>
        <pt x="254" y="888" on="0"/>
        <pt x="284" y="915" on="0"/>
      </contour>
      <contour>
        <pt x="496" y="0" on="1"/>
        <pt x="97" y="0" on="1"/>
        <pt x="97" y="714" on="1"/>
        <pt x="496" y="714" on="1"/>
        <pt x="496" y="635" on="1"/>
        <pt x="187" y="635" on="1"/>
        <pt x="187" y="412" on="1"/>
        <pt x="478" y="412" on="1"/>
        <pt x="478" y="334" on="1"/>
        <pt x="187" y="334" on="1"/>
        <pt x="187" y="79" on="1"/>
        <pt x="496" y="79" on="1"/>
      </contour>
    </TTGlyph>
    <TTGlyph name="Egrave" xMin="97" yMin="0" xMax="496" yMax="944">
      <component glyphName="E" x="0" y="0" flags="0x1204"/>
      <component glyphName="grave" x="135" y="178" flags="0x1004"/>
    </TTGlyph>
    <TTGlyph name="Emacron" xMin="97" yMin="0" xMax="496" yMax="855">
      <contour>
        <pt x="453" y="855" on="1"/>
        <pt x="453" y="784" on="1"/>
        <pt x="156" y="784" on="1"/>
        <pt x="156" y="855" on="1"/>
      </contour>
      <contour>
        <pt x="496" y="0" on="1"/>
        <pt x="97" y="0" on="1"/>
        <pt x="97" y="714" on="1"/>
        <pt x="496" y="714" on="1"/>
        <pt x="496" y="635" on="1"/>
        <pt x="187" y="635" on="1"/>
        <pt x="187" y="412" on="1"/>
        <pt x="478" y="412" on="1"/>
        <pt x="478" y="334" on="1"/>
        <pt x="187" y="334" on="1"/>
        <pt x="187" y="79" on="1"/>
        <pt x="496" y="79" on="1"/>
      </contour>
    </TTGlyph>
    <TTGlyph name="Eng" xMin="97" yMin="-190" xMax="663" yMax="714">
      <contour>
        <pt x="475" y="-190" on="1"/>
        <pt x="450" y="-190" on="0"/>
        <pt x="413" y="-183" on="0"/>
        <pt x="399" y="-177" on="1"/>
        <pt x="399" y="-101" on="1"/>
        <pt x="415" y="-105" on="0"/>
        <pt x="453" y="-111" on="0"/>
        <pt x="475" y="-111" on="1"/>
        <pt x="501" y="-111" on="0"/>
        <pt x="548" y="-92" on="0"/>
        <pt x="579" y="-43" on="0"/>
        <pt x="579" y="0" on="1"/>
        <pt x="176" y="593" on="1"/>
        <pt x="172" y="593" on="1"/>
        <pt x="174" y="574" on="0"/>
        <pt x="177" y="504" on="0"/>
        <pt x="180" y="424" on="0"/>
        <pt x="180" y="387" on="1"/>
        <pt x="180" y="0" on="1"/>
        <pt x="97" y="0" on="1"/>
        <pt x="97" y="714" on="1"/>
        <pt x="201" y="714" on="1"/>
        <pt x="582" y="142" on="1"/>
        <pt x="586" y="142" on="1"/>
        <pt x="584" y="164" on="0"/>
        <pt x="581" y="229" on="0"/>
        <pt x="579" y="305" on="0"/>
        <pt x="579" y="342" on="1"/>
        <pt x="579" y="714" on="1"/>
        <pt x="663" y="714" on="1"/>
        <pt x="663" y="6" on="1"/>
        <pt x="663" y="-61" on="0"/>
        <pt x="617" y="-148" on="0"/>
        <pt x="533" y="-190" on="0"/>
      </contour>
    </TTGlyph>
    <TTGlyph name="Eogonek" xMin="97" yMin="-220" xMax="496" yMax="714">
      <contour>
        <pt x="398" y="-116" on="1"/>
        <pt x="398" y="-138" on="0"/>
        <pt x="422" y="-161" on="0"/>
        <pt x="443" y="-161" on="1"/>
        <pt x="460" y="-161" on="0"/>
        <pt x="483" y="-156" on="0"/>
        <pt x="491" y="-155" on="1"/>
        <pt x="491" y="-211" on="1"/>
        <pt x="477" y="-215" on="0"/>
        <pt x="449" y="-220" on="0"/>
        <pt x="429" y="-220" on="1"/>
        <pt x="376" y="-220" on="0"/>
        <pt x="326" y="-170" on="0"/>
        <pt x="326" y="-126" on="1"/>
        <pt x="326" y="-97" on="0"/>
        <pt x="355" y="-43" on="0"/>
        <pt x="398" y="1" on="0"/>
        <pt x="418" y="15" on="1"/>
        <pt x="466" y="0" on="1"/>
        <pt x="432" y="-32" on="0"/>
        <pt x="398" y="-85" on="0"/>
      </contour>
      <contour>
        <pt x="496" y="0" on="1"/>
        <pt x="97" y="0" on="1"/>
        <pt x="97" y="714" on="1"/>
        <pt x="496" y="714" on="1"/>
        <pt x="496" y="635" on="1"/>
        <pt x="187" y="635" on="1"/>
        <pt x="187" y="412" on="1"/>
        <pt x="478" y="412" on="1"/>
        <pt x="478" y="334" on="1"/>
        <pt x="187" y="334" on="1"/>
        <pt x="187" y="79" on="1"/>
        <pt x="496" y="79" on="1"/>
      </contour>
    </TTGlyph>
    <TTGlyph name="Eth" xMin="30" yMin="0" xMax="669" yMax="714">
      <contour>
        <pt x="317" y="714" on="1"/>
        <pt x="424" y="714" on="0"/>
        <pt x="582" y="634" on="0"/>
        <pt x="669" y="479" on="0"/>
        <pt x="669" y="364" on="1"/>
        <pt x="669" y="244" on="0"/>
        <pt x="580" y="82" on="0"/>
        <pt x="413" y="0" on="0"/>
        <pt x="295" y="0" on="1"/>
        <pt x="104" y="0" on="1"/>
        <pt x="104" y="314" on="1"/>
        <pt x="30" y="314" on="1"/>
        <pt x="30" y="392" on="1"/>
        <pt x="104" y="392" on="1"/>
        <pt x="104" y="714" on="1"/>
      </contour>
      <contour>
        <pt x="304" y="637" on="1"/>
        <pt x="194" y="637" on="1"/>
        <pt x="194" y="392" on="1"/>
        <pt x="372" y="392" on="1"/>
        <pt x="372" y="314" on="1"/>
        <pt x="194" y="314" on="1"/>
        <pt x="194" y="77" on="1"/>
        <pt x="284" y="77" on="1"/>
        <pt x="430" y="77" on="0"/>
        <pt x="574" y="220" on="0"/>
        <pt x="574" y="361" on="1"/>
        <pt x="574" y="456" on="0"/>
        <pt x="510" y="578" on="0"/>
        <pt x="390" y="637" on="0"/>
      </contour>
    </TTGlyph>
    <TTGlyph name="F" xMin="97" yMin="0" xMax="496" yMax="714">
      <contour>
        <pt x="187" y="0" on="1"/>
        <pt x="97" y="0" on="1"/>
        <pt x="97" y="714" on="1"/>
        <pt x="496" y="714" on="1"/>
        <pt x="496" y="635" on="1"/>
        <pt x="187" y="635" on="1"/>
        <pt x="187" y="382" on="1"/>
        <pt x="477" y="382" on="1"/>
        <pt x="477" y="303" on="1"/>
        <pt x="187" y="303" on="1"/>
      </contour>
    </TTGlyph>
    <TTGlyph name="G" xMin="61" yMin="-10" xMax="654" yMax="724">
      <contour>
        <pt x="407" y="377" on="1"/>
        <pt x="654" y="377" on="1"/>
        <pt x="654" y="27" on="1"/>
        <pt x="596" y="8" on="0"/>
        <pt x="478" y="-10" on="0"/>
        <pt x="403" y="-10" on="1"/>
        <pt x="292" y="-10" on="0"/>
        <pt x="140" y="79" on="0"/>
        <pt x="61" y="244" on="0"/>
        <pt x="61" y="357" on="1"/>
        <pt x="61" y="469" on="0"/>
        <pt x="149" y="633" on="0"/>
        <pt x="314" y="724" on="0"/>
        <pt x="431" y="724" on="1"/>
        <pt x="491" y="724" on="0"/>
        <pt x="598" y="702" on="0"/>
        <pt x="644" y="682" on="1"/>
        <pt x="610" y="604" on="1"/>
        <pt x="572" y="621" on="0"/>
        <pt x="477" y="645" on="0"/>
        <pt x="426" y="645" on="1"/>
        <pt x="341" y="645" on="0"/>
        <pt x="219" y="575" on="0"/>
        <pt x="155" y="446" on="0"/>
        <pt x="155" y="357" on="1"/>
        <pt x="155" y="272" on="0"/>
        <pt x="210" y="141" on="0"/>
        <pt x="328" y="68" on="0"/>
        <pt x="424" y="68" on="1"/>
        <pt x="471" y="68" on="0"/>
        <pt x="537" y="78" on="0"/>
        <pt x="564" y="85" on="1"/>
        <pt x="564" y="297" on="1"/>
        <pt x="407" y="297" on="1"/>
      </contour>
    </TTGlyph>
    <TTGlyph name="Gbreve" xMin="61" yMin="-10" xMax="654" yMax="918">
      <contour>
        <pt x="560" y="918" on="1"/>
        <pt x="557" y="878" on="0"/>
        <pt x="518" y="818" on="0"/>
        <pt x="450" y="784" on="0"/>
        <pt x="402" y="784" on="1"/>
        <pt x="328" y="784" on="0"/>
        <pt x="253" y="857" on="0"/>
        <pt x="249" y="918" on="1"/>
        <pt x="303" y="918" on="1"/>
        <pt x="306" y="891" on="0"/>
        <pt x="331" y="864" on="0"/>
        <pt x="374" y="855" on="0"/>
        <pt x="404" y="855" on="1"/>
        <pt x="430" y="855" on="0"/>
        <pt x="473" y="865" on="0"/>
        <pt x="502" y="892" on="0"/>
        <pt x="505" y="918" on="1"/>
      </contour>
      <contour>
        <pt x="407" y="377" on="1"/>
        <pt x="654" y="377" on="1"/>
        <pt x="654" y="27" on="1"/>
        <pt x="596" y="8" on="0"/>
        <pt x="478" y="-10" on="0"/>
        <pt x="403" y="-10" on="1"/>
        <pt x="292" y="-10" on="0"/>
        <pt x="140" y="79" on="0"/>
        <pt x="61" y="244" on="0"/>
        <pt x="61" y="357" on="1"/>
        <pt x="61" y="469" on="0"/>
        <pt x="149" y="633" on="0"/>
        <pt x="314" y="724" on="0"/>
        <pt x="431" y="724" on="1"/>
        <pt x="491" y="724" on="0"/>
        <pt x="598" y="702" on="0"/>
        <pt x="644" y="682" on="1"/>
        <pt x="610" y="604" on="1"/>
        <pt x="572" y="621" on="0"/>
        <pt x="477" y="645" on="0"/>
        <pt x="426" y="645" on="1"/>
        <pt x="341" y="645" on="0"/>
        <pt x="219" y="575" on="0"/>
        <pt x="155" y="446" on="0"/>
        <pt x="155" y="357" on="1"/>
        <pt x="155" y="272" on="0"/>
        <pt x="210" y="141" on="0"/>
        <pt x="328" y="68" on="0"/>
        <pt x="424" y="68" on="1"/>
        <pt x="471" y="68" on="0"/>
        <pt x="537" y="78" on="0"/>
        <pt x="564" y="85" on="1"/>
        <pt x="564" y="297" on="1"/>
        <pt x="407" y="297" on="1"/>
      </contour>
    </TTGlyph>
    <TTGlyph name="Gcaron" xMin="61" yMin="-10" xMax="654" yMax="724">
      <component glyphName="G" x="0" y="0" flags="0x1204"/>
    </TTGlyph>
    <TTGlyph name="Gcircumflex" xMin="61" yMin="-10" xMax="654" yMax="944">
      <contour>
        <pt x="449" y="944" on="1"/>
        <pt x="461" y="922" on="0"/>
        <pt x="506" y="867" on="0"/>
        <pt x="555" y="814" on="0"/>
        <pt x="574" y="795" on="1"/>
        <pt x="574" y="784" on="1"/>
        <pt x="512" y="784" on="1"/>
        <pt x="486" y="800" on="0"/>
        <pt x="430" y="847" on="0"/>
        <pt x="403" y="874" on="1"/>
        <pt x="376" y="847" on="0"/>
        <pt x="322" y="801" on="0"/>
        <pt x="296" y="784" on="1"/>
        <pt x="236" y="784" on="1"/>
        <pt x="236" y="795" on="1"/>
        <pt x="255" y="815" on="0"/>
        <pt x="302" y="867" on="0"/>
        <pt x="346" y="922" on="0"/>
        <pt x="359" y="944" on="1"/>
      </contour>
      <contour>
        <pt x="407" y="377" on="1"/>
        <pt x="654" y="377" on="1"/>
        <pt x="654" y="27" on="1"/>
        <pt x="596" y="8" on="0"/>
        <pt x="478" y="-10" on="0"/>
        <pt x="403" y="-10" on="1"/>
        <pt x="292" y="-10" on="0"/>
        <pt x="140" y="79" on="0"/>
        <pt x="61" y="244" on="0"/>
        <pt x="61" y="357" on="1"/>
        <pt x="61" y="469" on="0"/>
        <pt x="149" y="633" on="0"/>
        <pt x="314" y="724" on="0"/>
        <pt x="431" y="724" on="1"/>
        <pt x="491" y="724" on="0"/>
        <pt x="598" y="702" on="0"/>
        <pt x="644" y="682" on="1"/>
        <pt x="610" y="604" on="1"/>
        <pt x="572" y="621" on="0"/>
        <pt x="477" y="645" on="0"/>
        <pt x="426" y="645" on="1"/>
        <pt x="341" y="645" on="0"/>
        <pt x="219" y="575" on="0"/>
        <pt x="155" y="446" on="0"/>
        <pt x="155" y="357" on="1"/>
        <pt x="155" y="272" on="0"/>
        <pt x="210" y="141" on="0"/>
        <pt x="328" y="68" on="0"/>
        <pt x="424" y="68" on="1"/>
        <pt x="471" y="68" on="0"/>
        <pt x="537" y="78" on="0"/>
        <pt x="564" y="85" on="1"/>
        <pt x="564" y="297" on="1"/>
        <pt x="407" y="297" on="1"/>
      </contour>
    </TTGlyph>
    <TTGlyph name="Gdotaccent" xMin="61" yMin="-10" xMax="654" yMax="724">
      <component glyphName="G" x="0" y="0" flags="0x1204"/>
    </TTGlyph>
    <TTGlyph name="H" xMin="97" yMin="0" xMax="643" yMax="714">
      <contour>
        <pt x="643" y="0" on="1"/>
        <pt x="553" y="0" on="1"/>
        <pt x="553" y="333" on="1"/>
        <pt x="187" y="333" on="1"/>
        <pt x="187" y="0" on="1"/>
        <pt x="97" y="0" on="1"/>
        <pt x="97" y="714" on="1"/>
        <pt x="187" y="714" on="1"/>
        <pt x="187" y="412" on="1"/>
        <pt x="553" y="412" on="1"/>
        <pt x="553" y="714" on="1"/>
        <pt x="643" y="714" on="1"/>
      </contour>
    </TTGlyph>
    <TTGlyph name="Hbar" xMin="0" yMin="0" xMax="740" yMax="714">
      <contour>
        <pt x="97" y="0" on="1"/>
        <pt x="97" y="523" on="1"/>
        <pt x="0" y="523" on="1"/>
        <pt x="0" y="595" on="1"/>
        <pt x="97" y="595" on="1"/>
        <pt x="97" y="714" on="1"/>
        <pt x="187" y="714" on="1"/>
        <pt x="187" y="595" on="1"/>
        <pt x="553" y="595" on="1"/>
        <pt x="553" y="714" on="1"/>
        <pt x="643" y="714" on="1"/>
        <pt x="643" y="595" on="1"/>
        <pt x="740" y="595" on="1"/>
        <pt x="740" y="523" on="1"/>
        <pt x="643" y="523" on="1"/>
        <pt x="643" y="0" on="1"/>
        <pt x="553" y="0" on="1"/>
        <pt x="553" y="333" on="1"/>
        <pt x="187" y="333" on="1"/>
        <pt x="187" y="0" on="1"/>
      </contour>
      <contour>
        <pt x="187" y="412" on="1"/>
        <pt x="553" y="412" on="1"/>
        <pt x="553" y="523" on="1"/>
        <pt x="187" y="523" on="1"/>
      </contour>
    </TTGlyph>
    <TTGlyph name="Hcircumflex" xMin="97" yMin="0" xMax="643" yMax="714">
      <component glyphName="H" x="0" y="0" flags="0x1204"/>
    </TTGlyph>
    <TTGlyph name="I" xMin="40" yMin="0" xMax="298" yMax="714">
      <contour>
        <pt x="298" y="0" on="1"/>
        <pt x="40" y="0" on="1"/>
        <pt x="40" y="52" on="1"/>
        <pt x="124" y="71" on="1"/>
        <pt x="124" y="642" on="1"/>
        <pt x="40" y="662" on="1"/>
        <pt x="40" y="714" on="1"/>
        <pt x="298" y="714" on="1"/>
        <pt x="298" y="662" on="1"/>
        <pt x="214" y="642" on="1"/>
        <pt x="214" y="71" on="1"/>
        <pt x="298" y="52" on="1"/>
      </contour>
    </TTGlyph>
    <TTGlyph name="IJ" xMin="40" yMin="-190" xMax="521" yMax="714">
      <component glyphName="I" x="0" y="0" flags="0x1004"/>
      <component glyphName="J" x="339" y="0" flags="0x1004"/>
    </TTGlyph>
    <TTGlyph name="Iacute" xMin="40" yMin="0" xMax="318" yMax="944">
      <component glyphName="I" x="0" y="0" flags="0x1204"/>
      <component glyphName="acute" x="77" y="178" flags="0x1004"/>
    </TTGlyph>
    <TTGlyph name="Ibreve" xMin="40" yMin="0" xMax="298" yMax="714">
      <component glyphName="I" x="0" y="0" flags="0x1204"/>
    </TTGlyph>
    <TTGlyph name="Icircumflex" xMin="1" yMin="0" xMax="339" yMax="944">
      <contour>
        <pt x="214" y="944" on="1"/>
        <pt x="226" y="922" on="0"/>
        <pt x="271" y="867" on="0"/>
        <pt x="320" y="814" on="0"/>
        <pt x="339" y="795" on="1"/>
        <pt x="339" y="784" on="1"/>
        <pt x="277" y="784" on="1"/>
        <pt x="251" y="800" on="0"/>
        <pt x="195" y="847" on="0"/>
        <pt x="168" y="874" on="1"/>
        <pt x="141" y="847" on="0"/>
        <pt x="87" y="801" on="0"/>
        <pt x="61" y="784" on="1"/>
        <pt x="1" y="784" on="1"/>
        <pt x="1" y="795" on="1"/>
        <pt x="20" y="815" on="0"/>
        <pt x="67" y="867" on="0"/>
        <pt x="111" y="922" on="0"/>
        <pt x="124" y="944" on="1"/>
      </contour>
      <contour>
        <pt x="298" y="0" on="1"/>
        <pt x="40" y="0" on="1"/>
        <pt x="40" y="52" on="1"/>
        <pt x="124" y="71" on="1"/>
        <pt x="124" y="642" on="1"/>
        <pt x="40" y="662" on="1"/>
        <pt x="40" y="714" on="1"/>
        <pt x="298" y="714" on="1"/>
        <pt x="298" y="662" on="1"/>
        <pt x="214" y="642" on="1"/>
        <pt x="214" y="71" on="1"/>
        <pt x="298" y="52" on="1"/>
      </contour>
    </TTGlyph>
    <TTGlyph name="Idieresis" xMin="30" yMin="0" xMax="311" yMax="908">
      <component glyphName="I" x="0" y="0" flags="0x1204"/>
      <component glyphName="dieresis" x="-119" y="178" flags="0x1004"/>
    </TTGlyph>
    <TTGlyph name="Idotaccent" xMin="40" yMin="0" xMax="298" yMax="714">
      <component glyphName="I" x="0" y="0" flags="0x1204"/>
    </TTGlyph>
    <TTGlyph name="Igrave" xMin="40" yMin="0" xMax="298" yMax="944">
      <component glyphName="I" x="0" y="0" flags="0x1204"/>
      <component glyphName="grave" x="0" y="178" flags="0x1004"/>
    </TTGlyph>
    <TTGlyph name="Imacron" xMin="40" yMin="0" xMax="298" yMax="714">
      <component glyphName="I" x="0" y="0" flags="0x1204"/>
    </TTGlyph>
    <TTGlyph name="Iogonek" xMin="40" yMin="0" xMax="298" yMax="714">
      <component glyphName="I" x="0" y="0" flags="0x1204"/>
    </TTGlyph>
    <TTGlyph name="Itilde" xMin="40" yMin="0" xMax="298" yMax="714">
      <component glyphName="I" x="0" y="0" flags="0x1204"/>
    </TTGlyph>
    <TTGlyph name="J" xMin="-78" yMin="-190" xMax="182" yMax="714">
      <contour>
        <pt x="-4" y="-190" on="1"/>
        <pt x="-28" y="-190" on="0"/>
        <pt x="-64" y="-183" on="0"/>
        <pt x="-78" y="-177" on="1"/>
        <pt x="-78" y="-101" on="1"/>
        <pt x="-62" y="-105" on="0"/>
        <pt x="-26" y="-111" on="0"/>
        <pt x="-6" y="-111" on="1"/>
        <pt x="19" y="-111" on="0"/>
        <pt x="64" y="-91" on="0"/>
        <pt x="92" y="-41" on="0"/>
        <pt x="92" y="4" on="1"/>
        <pt x="92" y="714" on="1"/>
        <pt x="182" y="714" on="1"/>
        <pt x="182" y="11" on="1"/>
        <pt x="182" y="-58" on="0"/>
        <pt x="136" y="-147" on="0"/>
        <pt x="52" y="-190" on="0"/>
      </contour>
    </TTGlyph>
    <TTGlyph name="Jcircumflex" xMin="-78" yMin="-190" xMax="182" yMax="714">
      <component glyphName="J" x="0" y="0" flags="0x1204"/>
    </TTGlyph>
    <TTGlyph name="K" xMin="97" yMin="0" xMax="619" yMax="714">
      <contour>
        <pt x="619" y="0" on="1"/>
        <pt x="513" y="0" on="1"/>
        <pt x="260" y="341" on="1"/>
        <pt x="187" y="277" on="1"/>
        <pt x="187" y="0" on="1"/>
        <pt x="97" y="0" on="1"/>
        <pt x="97" y="714" on="1"/>
        <pt x="187" y="714" on="1"/>
        <pt x="187" y="362" on="1"/>
        <pt x="217" y="396" on="0"/>
        <pt x="248" y="430" on="1"/>
        <pt x="310" y="498" on="1"/>
        <pt x="503" y="714" on="1"/>
        <pt x="608" y="714" on="1"/>
        <pt x="325" y="403" on="1"/>
      </contour>
    </TTGlyph>
    <TTGlyph name="L" xMin="97" yMin="0" xMax="499" yMax="714">
      <contour>
        <pt x="97" y="0" on="1"/>
        <pt x="97" y="714" on="1"/>
        <pt x="187" y="714" on="1"/>
        <pt x="187" y="80" on="1"/>
        <pt x="499" y="80" on="1"/>
        <pt x="499" y="0" on="1"/>
      </contour>
    </TTGlyph>
    <TTGlyph name="Lacute" xMin="87" yMin="0" xMax="499" yMax="944">
      <component glyphName="L" x="0" y="0" flags="0x1204"/>
      <component glyphName="acute" x="47" y="178" flags="0x1004"/>
    </TTGlyph>
    <TTGlyph name="Lcaron" xMin="97" yMin="0" xMax="499" yMax="714">
      <contour>
        <pt x="499" y="705" on="1"/>
        <pt x="495" y="687" on="0"/>
        <pt x="472" y="633" on="0"/>
        <pt x="442" y="576" on="0"/>
        <pt x="427" y="554" on="1"/>
        <pt x="379" y="554" on="1"/>
        <pt x="379" y="566" on="1"/>
        <pt x="384" y="580" on="0"/>
        <pt x="394" y="618" on="0"/>
        <pt x="403" y="659" on="0"/>
        <pt x="410" y="698" on="0"/>
        <pt x="412" y="714" on="1"/>
        <pt x="499" y="714" on="1"/>
      </contour>
      <contour>
        <pt x="97" y="0" on="1"/>
        <pt x="97" y="714" on="1"/>
        <pt x="187" y="714" on="1"/>
        <pt x="187" y="80" on="1"/>
        <pt x="499" y="80" on="1"/>
        <pt x="499" y="0" on="1"/>
      </contour>
    </TTGlyph>
    <TTGlyph name="Ldot" xMin="97" yMin="0" xMax="499" yMax="714">
      <component glyphName="L" x="0" y="0" flags="0x1204"/>
    </TTGlyph>
    <TTGlyph name="Lslash" xMin="13" yMin="0" xMax="499" yMax="714">
      <contour>
        <pt x="97" y="0" on="1"/>
        <pt x="97" y="247" on="1"/>
        <pt x="48" y="219" on="1"/>
        <pt x="13" y="279" on="1"/>
        <pt x="97" y="329" on="1"/>
        <pt x="97" y="714" on="1"/>
        <pt x="187" y="714" on="1"/>
        <pt x="187" y="382" on="1"/>
        <pt x="324" y="463" on="1"/>
        <pt x="360" y="400" on="1"/>
        <pt x="187" y="300" on="1"/>
        <pt x="187" y="80" on="1"/>
        <pt x="499" y="80" on="1"/>
        <pt x="499" y="0" on="1"/>
      </contour>
    </TTGlyph>
    <TTGlyph name="M" xMin="97" yMin="0" xMax="810" yMax="714">
      <contour>
        <pt x="412" y="0" on="1"/>
        <pt x="177" y="626" on="1"/>
        <pt x="173" y="626" on="1"/>
        <pt x="175" y="606" on="0"/>
        <pt x="178" y="544" on="0"/>
        <pt x="180" y="471" on="0"/>
        <pt x="180" y="433" on="1"/>
        <pt x="180" y="0" on="1"/>
        <pt x="97" y="0" on="1"/>
        <pt x="97" y="714" on="1"/>
        <pt x="230" y="714" on="1"/>
        <pt x="450" y="129" on="1"/>
        <pt x="454" y="129" on="1"/>
        <pt x="678" y="714" on="1"/>
        <pt x="810" y="714" on="1"/>
        <pt x="810" y="0" on="1"/>
        <pt x="721" y="0" on="1"/>
        <pt x="721" y="439" on="1"/>
        <pt x="721" y="474" on="0"/>
        <pt x="723" y="543" on="0"/>
        <pt x="727" y="604" on="0"/>
        <pt x="728" y="625" on="1"/>
        <pt x="724" y="625" on="1"/>
        <pt x="486" y="0" on="1"/>
      </contour>
    </TTGlyph>
    <TTGlyph name="N" xMin="97" yMin="0" xMax="663" yMax="714">
      <contour>
        <pt x="663" y="0" on="1"/>
        <pt x="558" y="0" on="1"/>
        <pt x="176" y="593" on="1"/>
        <pt x="172" y="593" on="1"/>
        <pt x="174" y="570" on="0"/>
        <pt x="177" y="507" on="0"/>
        <pt x="180" y="436" on="0"/>
        <pt x="180" y="399" on="1"/>
        <pt x="180" y="0" on="1"/>
        <pt x="97" y="0" on="1"/>
        <pt x="97" y="714" on="1"/>
        <pt x="201" y="714" on="1"/>
        <pt x="582" y="123" on="1"/>
        <pt x="586" y="123" on="1"/>
        <pt x="585" y="139" on="0"/>
        <pt x="582" y="203" on="0"/>
        <pt x="579" y="279" on="0"/>
        <pt x="579" y="311" on="1"/>
        <pt x="579" y="714" on="1"/>
        <pt x="663" y="714" on="1"/>
      </contour>
    </TTGlyph>
    <TTGlyph name="Nacute" xMin="97" yMin="0" xMax="663" yMax="944">
      <component glyphName="N" x="0" y="0" flags="0x1204"/>
      <component glyphName="acute" x="287" y="178" flags="0x1004"/>
    </TTGlyph>
    <TTGlyph name="Ncaron" xMin="97" yMin="0" xMax="663" yMax="714">
      <component glyphName="N" x="0" y="0" flags="0x1204"/>
    </TTGlyph>
    <TTGlyph name="Ntilde" xMin="97" yMin="0" xMax="663" yMax="913">
      <contour>
        <pt x="197" y="784" on="1"/>
        <pt x="200" y="814" on="0"/>
        <pt x="217" y="861" on="0"/>
        <pt x="245" y="894" on="0"/>
        <pt x="283" y="912" on="0"/>
        <pt x="307" y="912" on="1"/>
        <pt x="329" y="912" on="0"/>
        <pt x="370" y="895" on="0"/>
        <pt x="408" y="872" on="0"/>
        <pt x="443" y="855" on="0"/>
        <pt x="459" y="855" on="1"/>
        <pt x="482" y="855" on="0"/>
        <pt x="507" y="884" on="0"/>
        <pt x="514" y="913" on="1"/>
        <pt x="564" y="913" on="1"/>
        <pt x="558" y="855" on="0"/>
        <pt x="502" y="785" on="0"/>
        <pt x="455" y="785" on="1"/>
        <pt x="434" y="785" on="0"/>
        <pt x="394" y="802" on="0"/>
        <pt x="355" y="825" on="0"/>
        <pt x="320" y="842" on="0"/>
        <pt x="303" y="842" on="1"/>
        <pt x="279" y="842" on="0"/>
        <pt x="255" y="813" on="0"/>
        <pt x="248" y="784" on="1"/>
      </contour>
      <contour>
        <pt x="663" y="0" on="1"/>
        <pt x="558" y="0" on="1"/>
        <pt x="176" y="593" on="1"/>
        <pt x="172" y="593" on="1"/>
        <pt x="174" y="570" on="0"/>
        <pt x="177" y="507" on="0"/>
        <pt x="180" y="436" on="0"/>
        <pt x="180" y="399" on="1"/>
        <pt x="180" y="0" on="1"/>
        <pt x="97" y="0" on="1"/>
        <pt x="97" y="714" on="1"/>
        <pt x="201" y="714" on="1"/>
        <pt x="582" y="123" on="1"/>
        <pt x="586" y="123" on="1"/>
        <pt x="585" y="139" on="0"/>
        <pt x="582" y="203" on="0"/>
        <pt x="579" y="279" on="0"/>
        <pt x="579" y="311" on="1"/>
        <pt x="579" y="714" on="1"/>
        <pt x="663" y="714" on="1"/>
      </contour>
    </TTGlyph>
    <TTGlyph name="O" xMin="61" yMin="-10" xMax="720" yMax="725">
      <contour>
        <pt x="720" y="358" on="1"/>
        <pt x="720" y="275" on="0"/>
        <pt x="678" y="140" on="0"/>
        <pt x="595" y="42" on="0"/>
        <pt x="472" y="-10" on="0"/>
        <pt x="391" y="-10" on="1"/>
        <pt x="307" y="-10" on="0"/>
        <pt x="183" y="43" on="0"/>
        <pt x="101" y="140" on="0"/>
        <pt x="61" y="276" on="0"/>
        <pt x="61" y="359" on="1"/>
        <pt x="61" y="469" on="0"/>
        <pt x="133" y="633" on="0"/>
        <pt x="280" y="725" on="0"/>
        <pt x="392" y="725" on="1"/>
        <pt x="499" y="725" on="0"/>
        <pt x="645" y="634" on="0"/>
        <pt x="720" y="469" on="0"/>
      </contour>
      <contour>
        <pt x="156" y="358" on="1"/>
        <pt x="156" y="268" on="0"/>
        <pt x="206" y="138" on="0"/>
        <pt x="311" y="68" on="0"/>
        <pt x="391" y="68" on="1"/>
        <pt x="472" y="68" on="0"/>
        <pt x="575" y="138" on="0"/>
        <pt x="625" y="268" on="0"/>
        <pt x="625" y="358" on="1"/>
        <pt x="625" y="493" on="0"/>
        <pt x="513" y="646" on="0"/>
        <pt x="392" y="646" on="1"/>
        <pt x="311" y="646" on="0"/>
        <pt x="206" y="577" on="0"/>
        <pt x="156" y="448" on="0"/>
      </contour>
    </TTGlyph>
    <TTGlyph name="OE" xMin="61" yMin="-10" xMax="868" yMax="725">
      <contour>
        <pt x="386" y="725" on="1"/>
        <pt x="412" y="725" on="0"/>
        <pt x="460" y="719" on="0"/>
        <pt x="482" y="714" on="1"/>
        <pt x="868" y="714" on="1"/>
        <pt x="868" y="635" on="1"/>
        <pt x="581" y="635" on="1"/>
        <pt x="581" y="412" on="1"/>
        <pt x="849" y="412" on="1"/>
        <pt x="849" y="334" on="1"/>
        <pt x="581" y="334" on="1"/>
        <pt x="581" y="79" on="1"/>
        <pt x="868" y="79" on="1"/>
        <pt x="868" y="0" on="1"/>
        <pt x="488" y="0" on="1"/>
        <pt x="466" y="-4" on="0"/>
        <pt x="417" y="-10" on="0"/>
        <pt x="391" y="-10" on="1"/>
        <pt x="280" y="-10" on="0"/>
        <pt x="133" y="82" on="0"/>
        <pt x="61" y="248" on="0"/>
        <pt x="61" y="359" on="1"/>
        <pt x="61" y="470" on="0"/>
        <pt x="132" y="634" on="0"/>
        <pt x="277" y="725" on="0"/>
      </contour>
      <contour>
        <pt x="394" y="646" on="1"/>
        <pt x="333" y="646" on="0"/>
        <pt x="242" y="607" on="0"/>
        <pt x="184" y="532" on="0"/>
        <pt x="155" y="426" on="0"/>
        <pt x="155" y="358" on="1"/>
        <pt x="155" y="268" on="0"/>
        <pt x="206" y="138" on="0"/>
        <pt x="312" y="68" on="0"/>
        <pt x="393" y="68" on="1"/>
        <pt x="421" y="68" on="0"/>
        <pt x="472" y="77" on="0"/>
        <pt x="492" y="85" on="1"/>
        <pt x="492" y="630" on="1"/>
        <pt x="471" y="638" on="0"/>
        <pt x="422" y="646" on="0"/>
      </contour>
    </TTGlyph>
    <TTGlyph name="Oacute" xMin="61" yMin="-10" xMax="720" yMax="944">
      <component glyphName="O" x="0" y="0" flags="0x1204"/>
      <component glyphName="acute" x="298" y="178" flags="0x1004"/>
    </TTGlyph>
    <TTGlyph name="Obreve" xMin="61" yMin="-10" xMax="720" yMax="725">
      <component glyphName="O" x="0" y="0" flags="0x1204"/>
    </TTGlyph>
    <TTGlyph name="Ocircumflex" xMin="61" yMin="-10" xMax="720" yMax="944">
      <contour>
        <pt x="435" y="944" on="1"/>
        <pt x="447" y="922" on="0"/>
        <pt x="492" y="867" on="0"/>
        <pt x="541" y="814" on="0"/>
        <pt x="560" y="795" on="1"/>
        <pt x="560" y="784" on="1"/>
        <pt x="498" y="784" on="1"/>
        <pt x="472" y="800" on="0"/>
        <pt x="416" y="847" on="0"/>
        <pt x="389" y="874" on="1"/>
        <pt x="362" y="847" on="0"/>
        <pt x="308" y="801" on="0"/>
        <pt x="282" y="784" on="1"/>
        <pt x="222" y="784" on="1"/>
        <pt x="222" y="795" on="1"/>
        <pt x="241" y="815" on="0"/>
        <pt x="288" y="867" on="0"/>
        <pt x="332" y="922" on="0"/>
        <pt x="345" y="944" on="1"/>
      </contour>
      <contour>
        <pt x="720" y="358" on="1"/>
        <pt x="720" y="275" on="0"/>
        <pt x="678" y="140" on="0"/>
        <pt x="595" y="42" on="0"/>
        <pt x="472" y="-10" on="0"/>
        <pt x="391" y="-10" on="1"/>
        <pt x="307" y="-10" on="0"/>
        <pt x="183" y="43" on="0"/>
        <pt x="101" y="140" on="0"/>
        <pt x="61" y="276" on="0"/>
        <pt x="61" y="359" on="1"/>
        <pt x="61" y="469" on="0"/>
        <pt x="133" y="633" on="0"/>
        <pt x="280" y="725" on="0"/>
        <pt x="392" y="725" on="1"/>
        <pt x="499" y="725" on="0"/>
        <pt x="645" y="634" on="0"/>
        <pt x="720" y="469" on="0"/>
      </contour>
      <contour>
        <pt x="156" y="358" on="1"/>
        <pt x="156" y="268" on="0"/>
        <pt x="206" y="138" on="0"/>
        <pt x="311" y="68" on="0"/>
        <pt x="391" y="68" on="1"/>
        <pt x="472" y="68" on="0"/>
        <pt x="575" y="138" on="0"/>
        <pt x="625" y="268" on="0"/>
        <pt x="625" y="358" on="1"/>
        <pt x="625" y="493" on="0"/>
        <pt x="513" y="646" on="0"/>
        <pt x="392" y="646" on="1"/>
        <pt x="311" y="646" on="0"/>
        <pt x="206" y="577" on="0"/>
        <pt x="156" y="448" on="0"/>
      </contour>
    </TTGlyph>
    <TTGlyph name="Odieresis" xMin="61" yMin="-10" xMax="720" yMax="908">
      <component glyphName="O" x="0" y="0" flags="0x1204"/>
      <component glyphName="dieresis" x="102" y="178" flags="0x1004"/>
    </TTGlyph>
    <TTGlyph name="Ograve" xMin="61" yMin="-10" xMax="720" yMax="944">
      <component glyphName="O" x="0" y="0" flags="0x1204"/>
      <component glyphName="grave" x="221" y="178" flags="0x1004"/>
    </TTGlyph>
    <TTGlyph name="Ohorn" xMin="61" yMin="-10" xMax="805" yMax="760">
      <contour>
        <pt x="719" y="358" on="1"/>
        <pt x="719" y="275" on="0"/>
        <pt x="677" y="140" on="0"/>
        <pt x="594" y="42" on="0"/>
        <pt x="472" y="-10" on="0"/>
        <pt x="391" y="-10" on="1"/>
        <pt x="307" y="-10" on="0"/>
        <pt x="183" y="43" on="0"/>
        <pt x="101" y="140" on="0"/>
        <pt x="61" y="276" on="0"/>
        <pt x="61" y="359" on="1"/>
        <pt x="61" y="469" on="0"/>
        <pt x="133" y="633" on="0"/>
        <pt x="280" y="725" on="0"/>
        <pt x="392" y="725" on="1"/>
        <pt x="474" y="725" on="0"/>
        <pt x="598" y="670" on="0"/>
        <pt x="639" y="621" on="1"/>
        <pt x="667" y="629" on="0"/>
        <pt x="694" y="668" on="0"/>
        <pt x="703" y="726" on="0"/>
        <pt x="703" y="760" on="1"/>
        <pt x="798" y="760" on="1"/>
        <pt x="805" y="749" on="1"/>
        <pt x="794" y="690" on="0"/>
        <pt x="737" y="590" on="0"/>
        <pt x="674" y="567" on="1"/>
        <pt x="697" y="524" on="0"/>
        <pt x="719" y="419" on="0"/>
      </contour>
      <contour>
        <pt x="156" y="358" on="1"/>
        <pt x="156" y="268" on="0"/>
        <pt x="206" y="138" on="0"/>
        <pt x="310" y="68" on="0"/>
        <pt x="391" y="68" on="1"/>
        <pt x="473" y="68" on="0"/>
        <pt x="575" y="138" on="0"/>
        <pt x="624" y="268" on="0"/>
        <pt x="624" y="358" on="1"/>
        <pt x="624" y="492" on="0"/>
        <pt x="514" y="646" on="0"/>
        <pt x="392" y="646" on="1"/>
        <pt x="310" y="646" on="0"/>
        <pt x="206" y="577" on="0"/>
        <pt x="156" y="448" on="0"/>
      </contour>
    </TTGlyph>
    <TTGlyph name="Ohungarumlaut" xMin="61" yMin="-10" xMax="720" yMax="725">
      <component glyphName="O" x="0" y="0" flags="0x1204"/>
    </TTGlyph>
    <TTGlyph name="Omacron" xMin="61" yMin="-10" xMax="720" yMax="725">
      <component glyphName="O" x="0" y="0" flags="0x1204"/>
    </TTGlyph>
    <TTGlyph name="Oslash" xMin="60" yMin="-31" xMax="720" yMax="746">
      <contour>
        <pt x="720" y="358" on="1"/>
        <pt x="720" y="275" on="0"/>
        <pt x="678" y="140" on="0"/>
        <pt x="595" y="42" on="0"/>
        <pt x="472" y="-10" on="0"/>
        <pt x="391" y="-10" on="1"/>
        <pt x="335" y="-10" on="0"/>
        <pt x="242" y="14" on="0"/>
        <pt x="206" y="37" on="1"/>
        <pt x="158" y="-31" on="1"/>
        <pt x="97" y="9" on="1"/>
        <pt x="149" y="83" on="1"/>
        <pt x="105" y="132" on="0"/>
        <pt x="61" y="272" on="0"/>
        <pt x="61" y="359" on="1"/>
        <pt x="61" y="469" on="0"/>
        <pt x="133" y="633" on="0"/>
        <pt x="280" y="725" on="0"/>
        <pt x="392" y="725" on="1"/>
        <pt x="444" y="725" on="0"/>
        <pt x="533" y="701" on="0"/>
        <pt x="570" y="680" on="1"/>
        <pt x="616" y="746" on="1"/>
        <pt x="677" y="705" on="1"/>
        <pt x="626" y="634" on="1"/>
        <pt x="672" y="586" on="0"/>
        <pt x="720" y="446" on="0"/>
      </contour>
      <contour>
        <pt x="625" y="358" on="1"/>
        <pt x="625" y="487" on="0"/>
        <pt x="574" y="560" on="1"/>
        <pt x="254" y="106" on="1"/>
        <pt x="280" y="88" on="0"/>
        <pt x="349" y="68" on="0"/>
        <pt x="391" y="68" on="1"/>
        <pt x="472" y="68" on="0"/>
        <pt x="575" y="138" on="0"/>
        <pt x="625" y="268" on="0"/>
      </contour>
      <contour>
        <pt x="156" y="358" on="1"/>
        <pt x="156" y="297" on="0"/>
        <pt x="179" y="197" on="0"/>
        <pt x="203" y="160" on="1"/>
        <pt x="522" y="611" on="1"/>
        <pt x="497" y="628" on="0"/>
        <pt x="432" y="646" on="0"/>
        <pt x="392" y="646" on="1"/>
        <pt x="311" y="646" on="0"/>
        <pt x="206" y="577" on="0"/>
        <pt x="156" y="448" on="0"/>
      </contour>
    </TTGlyph>
    <TTGlyph name="Oslashacute" xMin="61" yMin="-31" xMax="720" yMax="944">
      <component glyphName="Oslash" x="0" y="0" flags="0x1204"/>
      <component glyphName="acute" x="299" y="178" flags="0x1004"/>
    </TTGlyph>
    <TTGlyph name="Otilde" xMin="61" yMin="-10" xMax="720" yMax="913">
      <contour>
        <pt x="208" y="784" on="1"/>
        <pt x="211" y="814" on="0"/>
        <pt x="228" y="861" on="0"/>
        <pt x="256" y="894" on="0"/>
        <pt x="294" y="912" on="0"/>
        <pt x="318" y="912" on="1"/>
        <pt x="340" y="912" on="0"/>
        <pt x="381" y="895" on="0"/>
        <pt x="419" y="872" on="0"/>
        <pt x="454" y="855" on="0"/>
        <pt x="470" y="855" on="1"/>
        <pt x="493" y="855" on="0"/>
        <pt x="518" y="884" on="0"/>
        <pt x="525" y="913" on="1"/>
        <pt x="575" y="913" on="1"/>
        <pt x="569" y="855" on="0"/>
        <pt x="513" y="785" on="0"/>
        <pt x="466" y="785" on="1"/>
        <pt x="445" y="785" on="0"/>
        <pt x="405" y="802" on="0"/>
        <pt x="366" y="825" on="0"/>
        <pt x="331" y="842" on="0"/>
        <pt x="314" y="842" on="1"/>
        <pt x="290" y="842" on="0"/>
        <pt x="266" y="813" on="0"/>
        <pt x="259" y="784" on="1"/>
      </contour>
      <contour>
        <pt x="720" y="358" on="1"/>
        <pt x="720" y="275" on="0"/>
        <pt x="678" y="140" on="0"/>
        <pt x="595" y="42" on="0"/>
        <pt x="472" y="-10" on="0"/>
        <pt x="391" y="-10" on="1"/>
        <pt x="307" y="-10" on="0"/>
        <pt x="183" y="43" on="0"/>
        <pt x="101" y="140" on="0"/>
        <pt x="61" y="276" on="0"/>
        <pt x="61" y="359" on="1"/>
        <pt x="61" y="469" on="0"/>
        <pt x="133" y="633" on="0"/>
        <pt x="280" y="725" on="0"/>
        <pt x="392" y="725" on="1"/>
        <pt x="499" y="725" on="0"/>
        <pt x="645" y="634" on="0"/>
        <pt x="720" y="469" on="0"/>
      </contour>
      <contour>
        <pt x="156" y="358" on="1"/>
        <pt x="156" y="268" on="0"/>
        <pt x="206" y="138" on="0"/>
        <pt x="311" y="68" on="0"/>
        <pt x="391" y="68" on="1"/>
        <pt x="472" y="68" on="0"/>
        <pt x="575" y="138" on="0"/>
        <pt x="625" y="268" on="0"/>
        <pt x="625" y="358" on="1"/>
        <pt x="625" y="493" on="0"/>
        <pt x="513" y="646" on="0"/>
        <pt x="392" y="646" on="1"/>
        <pt x="311" y="646" on="0"/>
        <pt x="206" y="577" on="0"/>
        <pt x="156" y="448" on="0"/>
      </contour>
    </TTGlyph>
    <TTGlyph name="P" xMin="97" yMin="0" xMax="554" yMax="714">
      <contour>
        <pt x="286" y="714" on="1"/>
        <pt x="426" y="714" on="0"/>
        <pt x="554" y="604" on="0"/>
        <pt x="554" y="504" on="1"/>
        <pt x="554" y="460" on="0"/>
        <pt x="525" y="379" on="0"/>
        <pt x="459" y="315" on="0"/>
        <pt x="349" y="278" on="0"/>
        <pt x="269" y="278" on="1"/>
        <pt x="187" y="278" on="1"/>
        <pt x="187" y="0" on="1"/>
        <pt x="97" y="0" on="1"/>
        <pt x="97" y="714" on="1"/>
      </contour>
      <contour>
        <pt x="278" y="637" on="1"/>
        <pt x="187" y="637" on="1"/>
        <pt x="187" y="355" on="1"/>
        <pt x="259" y="355" on="1"/>
        <pt x="327" y="355" on="0"/>
        <pt x="417" y="384" on="0"/>
        <pt x="461" y="448" on="0"/>
        <pt x="461" y="500" on="1"/>
        <pt x="461" y="569" on="0"/>
        <pt x="373" y="637" on="0"/>
      </contour>
    </TTGlyph>
    <TTGlyph name="Q" xMin="61" yMin="-170" xMax="720" yMax="725">
      <contour>
        <pt x="720" y="358" on="1"/>
        <pt x="720" y="271" on="0"/>
        <pt x="673" y="129" on="0"/>
        <pt x="581" y="31" on="0"/>
        <pt x="512" y="8" on="1"/>
        <pt x="683" y="-170" on="1"/>
        <pt x="554" y="-170" on="1"/>
        <pt x="416" y="-9" on="1"/>
        <pt x="410" y="-9" on="0"/>
        <pt x="397" y="-10" on="0"/>
        <pt x="391" y="-10" on="1"/>
        <pt x="307" y="-10" on="0"/>
        <pt x="183" y="43" on="0"/>
        <pt x="101" y="140" on="0"/>
        <pt x="61" y="276" on="0"/>
        <pt x="61" y="359" on="1"/>
        <pt x="61" y="469" on="0"/>
        <pt x="133" y="633" on="0"/>
        <pt x="280" y="725" on="0"/>
        <pt x="392" y="725" on="1"/>
        <pt x="499" y="725" on="0"/>
        <pt x="645" y="634" on="0"/>
        <pt x="720" y="469" on="0"/>
      </contour>
      <contour>
        <pt x="156" y="358" on="1"/>
        <pt x="156" y="268" on="0"/>
        <pt x="206" y="138" on="0"/>
        <pt x="311" y="68" on="0"/>
        <pt x="391" y="68" on="1"/>
        <pt x="472" y="68" on="0"/>
        <pt x="575" y="138" on="0"/>
        <pt x="625" y="268" on="0"/>
        <pt x="625" y="358" on="1"/>
        <pt x="625" y="493" on="0"/>
        <pt x="513" y="646" on="0"/>
        <pt x="392" y="646" on="1"/>
        <pt x="311" y="646" on="0"/>
        <pt x="206" y="577" on="0"/>
        <pt x="156" y="448" on="0"/>
      </contour>
    </TTGlyph>
    <TTGlyph name="R" xMin="97" yMin="0" xMax="607" yMax="714">
      <contour>
        <pt x="294" y="714" on="1"/>
        <pt x="383" y="714" on="0"/>
        <pt x="498" y="669" on="0"/>
        <pt x="554" y="579" on="0"/>
        <pt x="554" y="511" on="1"/>
        <pt x="554" y="454" on="0"/>
        <pt x="512" y="378" on="0"/>
        <pt x="447" y="333" on="0"/>
        <pt x="411" y="320" on="1"/>
        <pt x="607" y="0" on="1"/>
        <pt x="502" y="0" on="1"/>
        <pt x="329" y="295" on="1"/>
        <pt x="187" y="295" on="1"/>
        <pt x="187" y="0" on="1"/>
        <pt x="97" y="0" on="1"/>
        <pt x="97" y="714" on="1"/>
      </contour>
      <contour>
        <pt x="289" y="636" on="1"/>
        <pt x="187" y="636" on="1"/>
        <pt x="187" y="371" on="1"/>
        <pt x="294" y="371" on="1"/>
        <pt x="381" y="371" on="0"/>
        <pt x="461" y="440" on="0"/>
        <pt x="461" y="507" on="1"/>
        <pt x="461" y="554" on="0"/>
        <pt x="424" y="610" on="0"/>
        <pt x="348" y="636" on="0"/>
      </contour>
    </TTGlyph>
    <TTGlyph name="Racute" xMin="97" yMin="0" xMax="607" yMax="944">
      <component glyphName="R" x="0" y="0" flags="0x1204"/>
      <component glyphName="acute" x="218" y="178" flags="0x1004"/>
    </TTGlyph>
    <TTGlyph name="Rcaron" xMin="97" yMin="0" xMax="607" yMax="714">
      <component glyphName="R" x="0" y="0" flags="0x1204"/>
    </TTGlyph>
    <TTGlyph name="S" xMin="51" yMin="-10" xMax="502" yMax="724">
      <contour>
        <pt x="502" y="191" on="1"/>
        <pt x="502" y="127" on="0"/>
        <pt x="440" y="38" on="0"/>
        <pt x="325" y="-10" on="0"/>
        <pt x="247" y="-10" on="1"/>
        <pt x="207" y="-10" on="0"/>
        <pt x="134" y="-2" on="0"/>
        <pt x="74" y="13" on="0"/>
        <pt x="51" y="24" on="1"/>
        <pt x="51" y="110" on="1"/>
        <pt x="87" y="94" on="0"/>
        <pt x="194" y="68" on="0"/>
        <pt x="251" y="68" on="1"/>
        <pt x="304" y="68" on="0"/>
        <pt x="376" y="96" on="0"/>
        <pt x="412" y="148" on="0"/>
        <pt x="412" y="183" on="1"/>
        <pt x="412" y="218" on="0"/>
        <pt x="382" y="266" on="0"/>
        <pt x="309" y="307" on="0"/>
        <pt x="244" y="330" on="1"/>
        <pt x="198" y="347" on="0"/>
        <pt x="129" y="386" on="0"/>
        <pt x="83" y="436" on="0"/>
        <pt x="60" y="500" on="0"/>
        <pt x="60" y="542" on="1"/>
        <pt x="60" y="599" on="0"/>
        <pt x="118" y="680" on="0"/>
        <pt x="221" y="724" on="0"/>
        <pt x="288" y="724" on="1"/>
        <pt x="347" y="724" on="0"/>
        <pt x="445" y="702" on="0"/>
        <pt x="485" y="684" on="1"/>
        <pt x="457" y="607" on="1"/>
        <pt x="420" y="623" on="0"/>
        <pt x="333" y="645" on="0"/>
        <pt x="286" y="645" on="1"/>
        <pt x="241" y="645" on="0"/>
        <pt x="181" y="619" on="0"/>
        <pt x="151" y="572" on="0"/>
        <pt x="151" y="541" on="1"/>
        <pt x="151" y="505" on="0"/>
        <pt x="181" y="457" on="0"/>
        <pt x="249" y="419" on="0"/>
        <pt x="307" y="397" on="1"/>
        <pt x="370" y="374" on="0"/>
        <pt x="457" y="321" on="0"/>
        <pt x="502" y="247" on="0"/>
      </contour>
    </TTGlyph>
    <TTGlyph name="Sacute" xMin="51" yMin="-10" xMax="502" yMax="944">
      <component glyphName="S" x="0" y="0" flags="0x1204"/>
      <component glyphName="acute" x="192" y="178" flags="0x1004"/>
    </TTGlyph>
    <TTGlyph name="Scaron" xMin="51" yMin="-10" xMax="502" yMax="724">
      <component glyphName="S" x="0" y="0" flags="0x1204"/>
    </TTGlyph>
    <TTGlyph name="Scedilla" xMin="51" yMin="-240" xMax="502" yMax="724">
      <component glyphName="S" x="0" y="0" flags="0x1204"/>
      <component glyphName="cedilla" x="144" y="0" flags="0x1004"/>
    </TTGlyph>
    <TTGlyph name="Scircumflex" xMin="51" yMin="-10" xMax="502" yMax="724">
      <component glyphName="S" x="0" y="0" flags="0x1204"/>
    </TTGlyph>
    <TTGlyph name="T" xMin="10" yMin="0" xMax="545" yMax="714">
      <contour>
        <pt x="323" y="0" on="1"/>
        <pt x="233" y="0" on="1"/>
        <pt x="233" y="635" on="1"/>
        <pt x="10" y="635" on="1"/>
        <pt x="10" y="714" on="1"/>
        <pt x="545" y="714" on="1"/>
        <pt x="545" y="635" on="1"/>
        <pt x="323" y="635" on="1"/>
      </contour>
    </TTGlyph>
    <TTGlyph name="Tbar" xMin="10" yMin="0" xMax="545" yMax="714">
      <contour>
        <pt x="232" y="0" on="1"/>
        <pt x="232" y="325" on="1"/>
        <pt x="83" y="325" on="1"/>
        <pt x="83" y="399" on="1"/>
        <pt x="232" y="399" on="1"/>
        <pt x="232" y="634" on="1"/>
        <pt x="10" y="634" on="1"/>
        <pt x="10" y="714" on="1"/>
        <pt x="545" y="714" on="1"/>
        <pt x="545" y="634" on="1"/>
        <pt x="322" y="634" on="1"/>
        <pt x="322" y="399" on="1"/>
        <pt x="470" y="399" on="1"/>
        <pt x="470" y="325" on="1"/>
        <pt x="322" y="325" on="1"/>
        <pt x="322" y="0" on="1"/>
      </contour>
    </TTGlyph>
    <TTGlyph name="Tcaron" xMin="10" yMin="0" xMax="545" yMax="714">
      <component glyphName="T" x="0" y="0" flags="0x1204"/>
    </TTGlyph>
    <TTGlyph name="Thorn" xMin="97" yMin="0" xMax="554" yMax="714">
      <contour>
        <pt x="554" y="382" on="1"/>
        <pt x="554" y="337" on="0"/>
        <pt x="526" y="255" on="0"/>
        <pt x="460" y="192" on="0"/>
        <pt x="350" y="155" on="0"/>
        <pt x="268" y="155" on="1"/>
        <pt x="187" y="155" on="1"/>
        <pt x="187" y="0" on="1"/>
        <pt x="97" y="0" on="1"/>
        <pt x="97" y="714" on="1"/>
        <pt x="187" y="714" on="1"/>
        <pt x="187" y="590" on="1"/>
        <pt x="283" y="590" on="1"/>
        <pt x="428" y="590" on="0"/>
        <pt x="554" y="480" on="0"/>
      </contour>
      <contour>
        <pt x="259" y="231" on="1"/>
        <pt x="329" y="231" on="0"/>
        <pt x="418" y="260" on="0"/>
        <pt x="461" y="325" on="0"/>
        <pt x="461" y="377" on="1"/>
        <pt x="461" y="446" on="0"/>
        <pt x="374" y="513" on="0"/>
        <pt x="276" y="513" on="1"/>
        <pt x="187" y="513" on="1"/>
        <pt x="187" y="231" on="1"/>
      </contour>
    </TTGlyph>
    <TTGlyph name="U" xMin="89" yMin="-10" xMax="640" yMax="714">
      <contour>
        <pt x="640" y="252" on="1"/>
        <pt x="640" y="178" on="0"/>
        <pt x="580" y="59" on="0"/>
        <pt x="457" y="-10" on="0"/>
        <pt x="362" y="-10" on="1"/>
        <pt x="229" y="-10" on="0"/>
        <pt x="90" y="135" on="0"/>
        <pt x="90" y="254" on="1"/>
        <pt x="90" y="714" on="1"/>
        <pt x="180" y="714" on="1"/>
        <pt x="180" y="251" on="1"/>
        <pt x="180" y="164" on="0"/>
        <pt x="273" y="68" on="0"/>
        <pt x="367" y="68" on="1"/>
        <pt x="432" y="68" on="0"/>
        <pt x="513" y="115" on="0"/>
        <pt x="551" y="198" on="0"/>
        <pt x="551" y="252" on="1"/>
        <pt x="551" y="714" on="1"/>
        <pt x="640" y="714" on="1"/>
      </contour>
    </TTGlyph>
    <TTGlyph name="Uacute" xMin="90" yMin="-10" xMax="640" yMax="944">
      <component glyphName="U" x="0" y="0" flags="0x1204"/>
      <component glyphName="acute" x="273" y="178" flags="0x1004"/>
    </TTGlyph>
    <TTGlyph name="Ubreve" xMin="90" yMin="-10" xMax="640" yMax="714">
      <component glyphName="U" x="0" y="0" flags="0x1204"/>
    </TTGlyph>
    <TTGlyph name="Ucircumflex" xMin="90" yMin="-10" xMax="640" yMax="944">
      <contour>
        <pt x="410" y="944" on="1"/>
        <pt x="422" y="922" on="0"/>
        <pt x="467" y="867" on="0"/>
        <pt x="516" y="814" on="0"/>
        <pt x="535" y="795" on="1"/>
        <pt x="535" y="784" on="1"/>
        <pt x="473" y="784" on="1"/>
        <pt x="447" y="800" on="0"/>
        <pt x="391" y="847" on="0"/>
        <pt x="364" y="874" on="1"/>
        <pt x="337" y="847" on="0"/>
        <pt x="283" y="801" on="0"/>
        <pt x="257" y="784" on="1"/>
        <pt x="197" y="784" on="1"/>
        <pt x="197" y="795" on="1"/>
        <pt x="216" y="815" on="0"/>
        <pt x="263" y="867" on="0"/>
        <pt x="307" y="922" on="0"/>
        <pt x="320" y="944" on="1"/>
      </contour>
      <contour>
        <pt x="640" y="252" on="1"/>
        <pt x="640" y="178" on="0"/>
        <pt x="580" y="59" on="0"/>
        <pt x="457" y="-10" on="0"/>
        <pt x="362" y="-10" on="1"/>
        <pt x="229" y="-10" on="0"/>
        <pt x="90" y="135" on="0"/>
        <pt x="90" y="254" on="1"/>
        <pt x="90" y="714" on="1"/>
        <pt x="180" y="714" on="1"/>
        <pt x="180" y="251" on="1"/>
        <pt x="180" y="164" on="0"/>
        <pt x="273" y="68" on="0"/>
        <pt x="367" y="68" on="1"/>
        <pt x="432" y="68" on="0"/>
        <pt x="513" y="115" on="0"/>
        <pt x="551" y="198" on="0"/>
        <pt x="551" y="252" on="1"/>
        <pt x="551" y="714" on="1"/>
        <pt x="640" y="714" on="1"/>
      </contour>
    </TTGlyph>
    <TTGlyph name="Udieresis" xMin="90" yMin="-10" xMax="640" yMax="908">
      <component glyphName="U" x="0" y="0" flags="0x1204"/>
      <component glyphName="dieresis" x="77" y="178" flags="0x1004"/>
    </TTGlyph>
    <TTGlyph name="Ugrave" xMin="90" yMin="-10" xMax="640" yMax="944">
      <component glyphName="U" x="0" y="0" flags="0x1204"/>
      <component glyphName="grave" x="196" y="178" flags="0x1004"/>
    </TTGlyph>
    <TTGlyph name="Uhorn" xMin="90" yMin="-10" xMax="818" yMax="760">
      <contour>
        <pt x="640" y="617" on="1"/>
        <pt x="673" y="622" on="0"/>
        <pt x="706" y="660" on="0"/>
        <pt x="718" y="721" on="0"/>
        <pt x="718" y="760" on="1"/>
        <pt x="811" y="760" on="1"/>
        <pt x="818" y="749" on="1"/>
        <pt x="812" y="713" on="0"/>
        <pt x="788" y="650" on="0"/>
        <pt x="748" y="599" on="0"/>
        <pt x="686" y="563" on="0"/>
        <pt x="640" y="555" on="1"/>
        <pt x="640" y="252" on="1"/>
        <pt x="640" y="178" on="0"/>
        <pt x="584" y="59" on="0"/>
        <pt x="465" y="-10" on="0"/>
        <pt x="369" y="-10" on="1"/>
        <pt x="233" y="-10" on="0"/>
        <pt x="90" y="135" on="0"/>
        <pt x="90" y="254" on="1"/>
        <pt x="90" y="714" on="1"/>
        <pt x="180" y="714" on="1"/>
        <pt x="180" y="250" on="1"/>
        <pt x="180" y="164" on="0"/>
        <pt x="275" y="68" on="0"/>
        <pt x="371" y="68" on="1"/>
        <pt x="436" y="68" on="0"/>
        <pt x="515" y="115" on="0"/>
        <pt x="551" y="198" on="0"/>
        <pt x="551" y="251" on="1"/>
        <pt x="551" y="714" on="1"/>
        <pt x="640" y="714" on="1"/>
      </contour>
    </TTGlyph>
    <TTGlyph name="Uhungarumlaut" xMin="90" yMin="-10" xMax="640" yMax="714">
      <component glyphName="U" x="0" y="0" flags="0x1204"/>
    </TTGlyph>
    <TTGlyph name="Umacron" xMin="90" yMin="-10" xMax="640" yMax="714">
      <component glyphName="U" x="0" y="0" flags="0x1204"/>
    </TTGlyph>
    <TTGlyph name="Uogonek" xMin="89" yMin="-220" xMax="640" yMax="714">
      <contour>
        <pt x="466" y="-107" on="1"/>
        <pt x="466" y="-136" on="0"/>
        <pt x="490" y="-161" on="0"/>
        <pt x="511" y="-161" on="1"/>
        <pt x="528" y="-161" on="0"/>
        <pt x="551" y="-156" on="0"/>
        <pt x="559" y="-155" on="1"/>
        <pt x="559" y="-211" on="1"/>
        <pt x="545" y="-215" on="0"/>
        <pt x="517" y="-220" on="0"/>
        <pt x="497" y="-220" on="1"/>
        <pt x="444" y="-220" on="0"/>
        <pt x="394" y="-168" on="0"/>
        <pt x="394" y="-117" on="1"/>
        <pt x="394" y="-85" on="0"/>
        <pt x="426" y="-24" on="0"/>
        <pt x="472" y="26" on="0"/>
        <pt x="492" y="40" on="1"/>
        <pt x="555" y="51" on="1"/>
        <pt x="525" y="17" on="0"/>
        <pt x="485" y="-37" on="0"/>
        <pt x="466" y="-83" on="0"/>
      </contour>
      <contour>
        <pt x="640" y="252" on="1"/>
        <pt x="640" y="178" on="0"/>
        <pt x="580" y="59" on="0"/>
        <pt x="457" y="-10" on="0"/>
        <pt x="362" y="-10" on="1"/>
        <pt x="229" y="-10" on="0"/>
        <pt x="90" y="135" on="0"/>
        <pt x="90" y="254" on="1"/>
        <pt x="90" y="714" on="1"/>
        <pt x="180" y="714" on="1"/>
        <pt x="180" y="251" on="1"/>
        <pt x="180" y="164" on="0"/>
        <pt x="273" y="68" on="0"/>
        <pt x="367" y="68" on="1"/>
        <pt x="432" y="68" on="0"/>
        <pt x="513" y="115" on="0"/>
        <pt x="551" y="198" on="0"/>
        <pt x="551" y="252" on="1"/>
        <pt x="551" y="714" on="1"/>
        <pt x="640" y="714" on="1"/>
      </contour>
    </TTGlyph>
    <TTGlyph name="Uring" xMin="90" yMin="-10" xMax="640" yMax="714">
      <component glyphName="U" x="0" y="0" flags="0x1204"/>
    </TTGlyph>
    <TTGlyph name="Utilde" xMin="90" yMin="-10" xMax="640" yMax="714">
      <component glyphName="U" x="0" y="0" flags="0x1204"/>
    </TTGlyph>
    <TTGlyph name="V" xMin="0" yMin="0" xMax="600" yMax="714">
      <contour>
        <pt x="600" y="714" on="1"/>
        <pt x="345" y="0" on="1"/>
        <pt x="255" y="0" on="1"/>
        <pt x="0" y="714" on="1"/>
        <pt x="94" y="714" on="1"/>
        <pt x="255" y="256" on="1"/>
        <pt x="266" y="227" on="0"/>
        <pt x="282" y="173" on="0"/>
        <pt x="295" y="124" on="0"/>
        <pt x="300" y="100" on="1"/>
        <pt x="305" y="124" on="0"/>
        <pt x="318" y="174" on="0"/>
        <pt x="335" y="228" on="0"/>
        <pt x="345" y="258" on="1"/>
        <pt x="505" y="714" on="1"/>
      </contour>
    </TTGlyph>
    <TTGlyph name="W" xMin="12" yMin="0" xMax="917" yMax="714">
      <contour>
        <pt x="917" y="714" on="1"/>
        <pt x="727" y="0" on="1"/>
        <pt x="636" y="0" on="1"/>
        <pt x="497" y="468" on="1"/>
        <pt x="491" y="489" on="0"/>
        <pt x="479" y="533" on="0"/>
        <pt x="469" y="573" on="0"/>
        <pt x="462" y="602" on="0"/>
        <pt x="461" y="609" on="1"/>
        <pt x="460" y="602" on="0"/>
        <pt x="455" y="573" on="0"/>
        <pt x="445" y="533" on="0"/>
        <pt x="434" y="488" on="0"/>
        <pt x="427" y="465" on="1"/>
        <pt x="292" y="0" on="1"/>
        <pt x="201" y="0" on="1"/>
        <pt x="12" y="714" on="1"/>
        <pt x="106" y="714" on="1"/>
        <pt x="217" y="278" on="1"/>
        <pt x="223" y="255" on="0"/>
        <pt x="233" y="210" on="0"/>
        <pt x="242" y="167" on="0"/>
        <pt x="248" y="127" on="0"/>
        <pt x="251" y="108" on="1"/>
        <pt x="254" y="128" on="0"/>
        <pt x="261" y="170" on="0"/>
        <pt x="271" y="215" on="0"/>
        <pt x="283" y="261" on="0"/>
        <pt x="289" y="283" on="1"/>
        <pt x="415" y="714" on="1"/>
        <pt x="508" y="714" on="1"/>
        <pt x="639" y="280" on="1"/>
        <pt x="646" y="257" on="0"/>
        <pt x="658" y="210" on="0"/>
        <pt x="668" y="166" on="0"/>
        <pt x="675" y="125" on="0"/>
        <pt x="678" y="108" on="1"/>
        <pt x="681" y="133" on="0"/>
        <pt x="691" y="188" on="0"/>
        <pt x="705" y="248" on="0"/>
        <pt x="713" y="279" on="1"/>
        <pt x="823" y="714" on="1"/>
      </contour>
    </TTGlyph>
    <TTGlyph name="Wcircumflex" xMin="12" yMin="0" xMax="917" yMax="714">
      <component glyphName="W" x="0" y="0" flags="0x1204"/>
    </TTGlyph>
    <TTGlyph name="X" xMin="4" yMin="0" xMax="582" yMax="714">
      <contour>
        <pt x="582" y="0" on="1"/>
        <pt x="480" y="0" on="1"/>
        <pt x="291" y="310" on="1"/>
        <pt x="99" y="0" on="1"/>
        <pt x="4" y="0" on="1"/>
        <pt x="241" y="372" on="1"/>
        <pt x="19" y="714" on="1"/>
        <pt x="119" y="714" on="1"/>
        <pt x="294" y="434" on="1"/>
        <pt x="470" y="714" on="1"/>
        <pt x="565" y="714" on="1"/>
        <pt x="344" y="374" on="1"/>
      </contour>
    </TTGlyph>
    <TTGlyph name="Y" xMin="0" yMin="0" xMax="566" yMax="714">
      <contour>
        <pt x="283" y="363" on="1"/>
        <pt x="469" y="714" on="1"/>
        <pt x="566" y="714" on="1"/>
        <pt x="328" y="277" on="1"/>
        <pt x="328" y="0" on="1"/>
        <pt x="238" y="0" on="1"/>
        <pt x="238" y="273" on="1"/>
        <pt x="0" y="714" on="1"/>
        <pt x="98" y="714" on="1"/>
      </contour>
    </TTGlyph>
    <TTGlyph name="Yacute" xMin="0" yMin="0" xMax="566" yMax="944">
      <component glyphName="Y" x="0" y="0" flags="0x1204"/>
      <component glyphName="acute" x="190" y="178" flags="0x1004"/>
    </TTGlyph>
    <TTGlyph name="Ycircumflex" xMin="0" yMin="0" xMax="566" yMax="714">
      <component glyphName="Y" x="0" y="0" flags="0x1204"/>
    </TTGlyph>
    <TTGlyph name="Ydieresis" xMin="0" yMin="0" xMax="566" yMax="908">
      <component glyphName="Y" x="0" y="0" flags="0x1204"/>
      <component glyphName="dieresis" x="-6" y="178" flags="0x1004"/>
    </TTGlyph>
    <TTGlyph name="Z" xMin="38" yMin="0" xMax="533" yMax="714">
      <contour>
        <pt x="533" y="0" on="1"/>
        <pt x="38" y="0" on="1"/>
        <pt x="38" y="68" on="1"/>
        <pt x="414" y="634" on="1"/>
        <pt x="50" y="634" on="1"/>
        <pt x="50" y="714" on="1"/>
        <pt x="523" y="714" on="1"/>
        <pt x="523" y="646" on="1"/>
        <pt x="147" y="80" on="1"/>
        <pt x="533" y="80" on="1"/>
      </contour>
    </TTGlyph>
    <TTGlyph name="Zacute" xMin="38" yMin="0" xMax="533" yMax="944">
      <component glyphName="Z" x="0" y="0" flags="0x1204"/>
      <component glyphName="acute" x="197" y="178" flags="0x1004"/>
    </TTGlyph>
    <TTGlyph name="Zcaron" xMin="38" yMin="0" xMax="533" yMax="714">
      <component glyphName="Z" x="0" y="0" flags="0x1204"/>
    </TTGlyph>
    <TTGlyph name="Zdotaccent" xMin="38" yMin="0" xMax="533" yMax="714">
      <component glyphName="Z" x="0" y="0" flags="0x1204"/>
    </TTGlyph>
    <TTGlyph name="a" xMin="46" yMin="-10" xMax="480" yMax="545">
      <contour>
        <pt x="288" y="545" on="1"/>
        <pt x="386" y="545" on="0"/>
        <pt x="480" y="459" on="0"/>
        <pt x="480" y="365" on="1"/>
        <pt x="480" y="0" on="1"/>
        <pt x="416" y="0" on="1"/>
        <pt x="399" y="76" on="1"/>
        <pt x="395" y="76" on="1"/>
        <pt x="372" y="47" on="0"/>
        <pt x="323" y="8" on="0"/>
        <pt x="260" y="-10" on="0"/>
        <pt x="215" y="-10" on="1"/>
        <pt x="167" y="-10" on="0"/>
        <pt x="90" y="24" on="0"/>
        <pt x="46" y="95" on="0"/>
        <pt x="46" y="149" on="1"/>
        <pt x="46" y="229" on="0"/>
        <pt x="172" y="316" on="0"/>
        <pt x="303" y="320" on="1"/>
        <pt x="394" y="323" on="1"/>
        <pt x="394" y="355" on="1"/>
        <pt x="394" y="422" on="0"/>
        <pt x="336" y="474" on="0"/>
        <pt x="283" y="474" on="1"/>
        <pt x="241" y="474" on="0"/>
        <pt x="165" y="449" on="0"/>
        <pt x="132" y="433" on="1"/>
        <pt x="105" y="499" on="1"/>
        <pt x="140" y="518" on="0"/>
        <pt x="236" y="545" on="0"/>
      </contour>
      <contour>
        <pt x="314" y="259" on="1"/>
        <pt x="214" y="255" on="0"/>
        <pt x="137" y="199" on="0"/>
        <pt x="137" y="148" on="1"/>
        <pt x="137" y="103" on="0"/>
        <pt x="192" y="61" on="0"/>
        <pt x="235" y="61" on="1"/>
        <pt x="303" y="61" on="0"/>
        <pt x="393" y="136" on="0"/>
        <pt x="393" y="214" on="1"/>
        <pt x="393" y="262" on="1"/>
      </contour>
    </TTGlyph>
    <TTGlyph name="aacute" xMin="46" yMin="-10" xMax="480" yMax="766">
      <component glyphName="a" x="0" y="0" flags="0x1204"/>
      <component glyphName="acute" x="188" y="0" flags="0x1004"/>
    </TTGlyph>
    <TTGlyph name="abreve" xMin="45" yMin="-10" xMax="480" yMax="740">
      <contour>
        <pt x="436" y="740" on="1"/>
        <pt x="433" y="700" on="0"/>
        <pt x="394" y="640" on="0"/>
        <pt x="326" y="606" on="0"/>
        <pt x="278" y="606" on="1"/>
        <pt x="204" y="606" on="0"/>
        <pt x="129" y="679" on="0"/>
        <pt x="125" y="740" on="1"/>
        <pt x="179" y="740" on="1"/>
        <pt x="182" y="713" on="0"/>
        <pt x="207" y="686" on="0"/>
        <pt x="250" y="677" on="0"/>
        <pt x="280" y="677" on="1"/>
        <pt x="306" y="677" on="0"/>
        <pt x="349" y="687" on="0"/>
        <pt x="378" y="714" on="0"/>
        <pt x="381" y="740" on="1"/>
      </contour>
      <contour>
        <pt x="288" y="545" on="1"/>
        <pt x="386" y="545" on="0"/>
        <pt x="480" y="459" on="0"/>
        <pt x="480" y="365" on="1"/>
        <pt x="480" y="0" on="1"/>
        <pt x="416" y="0" on="1"/>
        <pt x="399" y="76" on="1"/>
        <pt x="395" y="76" on="1"/>
        <pt x="372" y="47" on="0"/>
        <pt x="323" y="8" on="0"/>
        <pt x="260" y="-10" on="0"/>
        <pt x="215" y="-10" on="1"/>
        <pt x="167" y="-10" on="0"/>
        <pt x="90" y="24" on="0"/>
        <pt x="46" y="95" on="0"/>
        <pt x="46" y="149" on="1"/>
        <pt x="46" y="229" on="0"/>
        <pt x="172" y="316" on="0"/>
        <pt x="303" y="320" on="1"/>
        <pt x="394" y="323" on="1"/>
        <pt x="394" y="355" on="1"/>
        <pt x="394" y="422" on="0"/>
        <pt x="336" y="474" on="0"/>
        <pt x="283" y="474" on="1"/>
        <pt x="241" y="474" on="0"/>
        <pt x="165" y="449" on="0"/>
        <pt x="132" y="433" on="1"/>
        <pt x="105" y="499" on="1"/>
        <pt x="140" y="518" on="0"/>
        <pt x="236" y="545" on="0"/>
      </contour>
      <contour>
        <pt x="314" y="259" on="1"/>
        <pt x="214" y="255" on="0"/>
        <pt x="137" y="199" on="0"/>
        <pt x="137" y="148" on="1"/>
        <pt x="137" y="103" on="0"/>
        <pt x="192" y="61" on="0"/>
        <pt x="235" y="61" on="1"/>
        <pt x="303" y="61" on="0"/>
        <pt x="393" y="136" on="0"/>
        <pt x="393" y="214" on="1"/>
        <pt x="393" y="262" on="1"/>
      </contour>
    </TTGlyph>
    <TTGlyph name="acircumflex" xMin="45" yMin="-10" xMax="480" yMax="766">
      <contour>
        <pt x="325" y="766" on="1"/>
        <pt x="337" y="744" on="0"/>
        <pt x="382" y="689" on="0"/>
        <pt x="431" y="636" on="0"/>
        <pt x="450" y="617" on="1"/>
        <pt x="450" y="606" on="1"/>
        <pt x="388" y="606" on="1"/>
        <pt x="362" y="622" on="0"/>
        <pt x="306" y="669" on="0"/>
        <pt x="279" y="696" on="1"/>
        <pt x="252" y="669" on="0"/>
        <pt x="198" y="623" on="0"/>
        <pt x="172" y="606" on="1"/>
        <pt x="112" y="606" on="1"/>
        <pt x="112" y="617" on="1"/>
        <pt x="131" y="637" on="0"/>
        <pt x="178" y="689" on="0"/>
        <pt x="222" y="744" on="0"/>
        <pt x="235" y="766" on="1"/>
      </contour>
      <contour>
        <pt x="288" y="545" on="1"/>
        <pt x="386" y="545" on="0"/>
        <pt x="480" y="459" on="0"/>
        <pt x="480" y="365" on="1"/>
        <pt x="480" y="0" on="1"/>
        <pt x="416" y="0" on="1"/>
        <pt x="399" y="76" on="1"/>
        <pt x="395" y="76" on="1"/>
        <pt x="372" y="47" on="0"/>
        <pt x="323" y="8" on="0"/>
        <pt x="260" y="-10" on="0"/>
        <pt x="215" y="-10" on="1"/>
        <pt x="167" y="-10" on="0"/>
        <pt x="90" y="24" on="0"/>
        <pt x="46" y="95" on="0"/>
        <pt x="46" y="149" on="1"/>
        <pt x="46" y="229" on="0"/>
        <pt x="172" y="316" on="0"/>
        <pt x="303" y="320" on="1"/>
        <pt x="394" y="323" on="1"/>
        <pt x="394" y="355" on="1"/>
        <pt x="394" y="422" on="0"/>
        <pt x="336" y="474" on="0"/>
        <pt x="283" y="474" on="1"/>
        <pt x="241" y="474" on="0"/>
        <pt x="165" y="449" on="0"/>
        <pt x="132" y="433" on="1"/>
        <pt x="105" y="499" on="1"/>
        <pt x="140" y="518" on="0"/>
        <pt x="236" y="545" on="0"/>
      </contour>
      <contour>
        <pt x="314" y="259" on="1"/>
        <pt x="214" y="255" on="0"/>
        <pt x="137" y="199" on="0"/>
        <pt x="137" y="148" on="1"/>
        <pt x="137" y="103" on="0"/>
        <pt x="192" y="61" on="0"/>
        <pt x="235" y="61" on="1"/>
        <pt x="303" y="61" on="0"/>
        <pt x="393" y="136" on="0"/>
        <pt x="393" y="214" on="1"/>
        <pt x="393" y="262" on="1"/>
      </contour>
    </TTGlyph>
    <TTGlyph name="acute" xMin="40" yMin="606" xMax="241" yMax="766">
      <contour>
        <pt x="241" y="756" on="1"/>
        <pt x="232" y="742" on="0"/>
        <pt x="198" y="702" on="0"/>
        <pt x="157" y="659" on="0"/>
        <pt x="116" y="620" on="0"/>
        <pt x="98" y="606" on="1"/>
        <pt x="40" y="606" on="1"/>
        <pt x="40" y="618" on="1"/>
        <pt x="55" y="637" on="0"/>
        <pt x="90" y="689" on="0"/>
        <pt x="124" y="744" on="0"/>
        <pt x="135" y="766" on="1"/>
        <pt x="241" y="766" on="1"/>
      </contour>
    </TTGlyph>
    <TTGlyph name="adieresis" xMin="46" yMin="-10" xMax="480" yMax="730">
      <component glyphName="a" x="0" y="0" flags="0x1204"/>
      <component glyphName="dieresis" x="-8" y="0" flags="0x1004"/>
    </TTGlyph>
    <TTGlyph name="ae" xMin="46" yMin="-10" xMax="813" yMax="546">
      <contour>
        <pt x="603" y="546" on="1"/>
        <pt x="668" y="546" on="0"/>
        <pt x="762" y="486" on="0"/>
        <pt x="813" y="378" on="0"/>
        <pt x="813" y="306" on="1"/>
        <pt x="813" y="252" on="1"/>
        <pt x="470" y="252" on="1"/>
        <pt x="472" y="156" on="0"/>
        <pt x="551" y="65" on="0"/>
        <pt x="625" y="65" on="1"/>
        <pt x="675" y="65" on="0"/>
        <pt x="751" y="84" on="0"/>
        <pt x="789" y="102" on="1"/>
        <pt x="789" y="25" on="1"/>
        <pt x="749" y="7" on="0"/>
        <pt x="672" y="-10" on="0"/>
        <pt x="622" y="-10" on="1"/>
        <pt x="576" y="-10" on="0"/>
        <pt x="499" y="15" on="0"/>
        <pt x="440" y="66" on="0"/>
        <pt x="419" y="103" on="1"/>
        <pt x="396" y="69" on="0"/>
        <pt x="341" y="18" on="0"/>
        <pt x="268" y="-10" on="0"/>
        <pt x="216" y="-10" on="1"/>
        <pt x="168" y="-10" on="0"/>
        <pt x="91" y="24" on="0"/>
        <pt x="46" y="95" on="0"/>
        <pt x="46" y="149" on="1"/>
        <pt x="46" y="203" on="0"/>
        <pt x="99" y="277" on="0"/>
        <pt x="208" y="318" on="0"/>
        <pt x="290" y="320" on="1"/>
        <pt x="380" y="323" on="1"/>
        <pt x="380" y="357" on="1"/>
        <pt x="380" y="422" on="0"/>
        <pt x="319" y="474" on="0"/>
        <pt x="268" y="474" on="1"/>
        <pt x="228" y="474" on="0"/>
        <pt x="151" y="450" on="0"/>
        <pt x="118" y="433" on="1"/>
        <pt x="91" y="499" on="1"/>
        <pt x="126" y="519" on="0"/>
        <pt x="226" y="545" on="0"/>
        <pt x="275" y="545" on="1"/>
        <pt x="337" y="545" on="0"/>
        <pt x="418" y="504" on="0"/>
        <pt x="439" y="459" on="1"/>
        <pt x="465" y="500" on="0"/>
        <pt x="549" y="546" on="0"/>
      </contour>
      <contour>
        <pt x="303" y="259" on="1"/>
        <pt x="209" y="255" on="0"/>
        <pt x="137" y="199" on="0"/>
        <pt x="137" y="148" on="1"/>
        <pt x="137" y="103" on="0"/>
        <pt x="188" y="61" on="0"/>
        <pt x="230" y="61" on="1"/>
        <pt x="272" y="61" on="0"/>
        <pt x="339" y="94" on="0"/>
        <pt x="378" y="162" on="0"/>
        <pt x="378" y="214" on="1"/>
        <pt x="378" y="262" on="1"/>
      </contour>
      <contour>
        <pt x="602" y="474" on="1"/>
        <pt x="544" y="474" on="0"/>
        <pt x="477" y="395" on="0"/>
        <pt x="472" y="321" on="1"/>
        <pt x="720" y="321" on="1"/>
        <pt x="720" y="367" on="0"/>
        <pt x="695" y="436" on="0"/>
        <pt x="643" y="474" on="0"/>
      </contour>
    </TTGlyph>
    <TTGlyph name="aeacute" xMin="46" yMin="-10" xMax="813" yMax="766">
      <component glyphName="ae" x="0" y="0" flags="0x1204"/>
      <component glyphName="acute" x="346" y="0" flags="0x1004"/>
    </TTGlyph>
    <TTGlyph name="agrave" xMin="46" yMin="-10" xMax="480" yMax="766">
      <component glyphName="a" x="0" y="0" flags="0x1204"/>
      <component glyphName="grave" x="111" y="0" flags="0x1004"/>
    </TTGlyph>
    <TTGlyph name="amacron" xMin="45" yMin="-10" xMax="480" yMax="677">
      <contour>
        <pt x="429" y="677" on="1"/>
        <pt x="429" y="606" on="1"/>
        <pt x="132" y="606" on="1"/>
        <pt x="132" y="677" on="1"/>
      </contour>
      <contour>
        <pt x="288" y="545" on="1"/>
        <pt x="386" y="545" on="0"/>
        <pt x="480" y="459" on="0"/>
        <pt x="480" y="365" on="1"/>
        <pt x="480" y="0" on="1"/>
        <pt x="416" y="0" on="1"/>
        <pt x="399" y="76" on="1"/>
        <pt x="395" y="76" on="1"/>
        <pt x="372" y="47" on="0"/>
        <pt x="323" y="8" on="0"/>
        <pt x="260" y="-10" on="0"/>
        <pt x="215" y="-10" on="1"/>
        <pt x="167" y="-10" on="0"/>
        <pt x="90" y="24" on="0"/>
        <pt x="46" y="95" on="0"/>
        <pt x="46" y="149" on="1"/>
        <pt x="46" y="229" on="0"/>
        <pt x="172" y="316" on="0"/>
        <pt x="303" y="320" on="1"/>
        <pt x="394" y="323" on="1"/>
        <pt x="394" y="355" on="1"/>
        <pt x="394" y="422" on="0"/>
        <pt x="336" y="474" on="0"/>
        <pt x="283" y="474" on="1"/>
        <pt x="241" y="474" on="0"/>
        <pt x="165" y="449" on="0"/>
        <pt x="132" y="433" on="1"/>
        <pt x="105" y="499" on="1"/>
        <pt x="140" y="518" on="0"/>
        <pt x="236" y="545" on="0"/>
      </contour>
      <contour>
        <pt x="314" y="259" on="1"/>
        <pt x="214" y="255" on="0"/>
        <pt x="137" y="199" on="0"/>
        <pt x="137" y="148" on="1"/>
        <pt x="137" y="103" on="0"/>
        <pt x="192" y="61" on="0"/>
        <pt x="235" y="61" on="1"/>
        <pt x="303" y="61" on="0"/>
        <pt x="393" y="136" on="0"/>
        <pt x="393" y="214" on="1"/>
        <pt x="393" y="262" on="1"/>
      </contour>
    </TTGlyph>
    <TTGlyph name="ampersand" xMin="53" yMin="-10" xMax="730" yMax="725">
      <contour>
        <pt x="304" y="725" on="1"/>
        <pt x="358" y="725" on="0"/>
        <pt x="435" y="688" on="0"/>
        <pt x="477" y="620" on="0"/>
        <pt x="477" y="571" on="1"/>
        <pt x="477" y="508" on="0"/>
        <pt x="396" y="420" on="0"/>
        <pt x="334" y="384" on="1"/>
        <pt x="527" y="198" on="1"/>
        <pt x="553" y="229" on="0"/>
        <pt x="586" y="310" on="0"/>
        <pt x="597" y="357" on="1"/>
        <pt x="686" y="357" on="1"/>
        <pt x="670" y="293" on="0"/>
        <pt x="622" y="183" on="0"/>
        <pt x="584" y="142" on="1"/>
        <pt x="730" y="0" on="1"/>
        <pt x="611" y="0" on="1"/>
        <pt x="524" y="84" on="1"/>
        <pt x="493" y="56" on="0"/>
        <pt x="421" y="14" on="0"/>
        <pt x="334" y="-10" on="0"/>
        <pt x="278" y="-10" on="1"/>
        <pt x="209" y="-10" on="0"/>
        <pt x="108" y="35" on="0"/>
        <pt x="53" y="123" on="0"/>
        <pt x="53" y="186" on="1"/>
        <pt x="53" y="237" on="0"/>
        <pt x="90" y="311" on="0"/>
        <pt x="160" y="369" on="0"/>
        <pt x="207" y="396" on="1"/>
        <pt x="186" y="420" on="0"/>
        <pt x="146" y="472" on="0"/>
        <pt x="120" y="533" on="0"/>
        <pt x="120" y="569" on="1"/>
        <pt x="120" y="618" on="0"/>
        <pt x="164" y="688" on="0"/>
        <pt x="247" y="725" on="0"/>
      </contour>
      <contour>
        <pt x="260" y="341" on="1"/>
        <pt x="224" y="320" on="0"/>
        <pt x="173" y="277" on="0"/>
        <pt x="145" y="225" on="0"/>
        <pt x="145" y="189" on="1"/>
        <pt x="145" y="134" on="0"/>
        <pt x="219" y="68" on="0"/>
        <pt x="281" y="68" on="1"/>
        <pt x="345" y="68" on="0"/>
        <pt x="437" y="110" on="0"/>
        <pt x="468" y="139" on="1"/>
      </contour>
      <contour>
        <pt x="301" y="653" on="1"/>
        <pt x="259" y="653" on="0"/>
        <pt x="206" y="609" on="0"/>
        <pt x="206" y="570" on="1"/>
        <pt x="206" y="534" on="0"/>
        <pt x="244" y="473" on="0"/>
        <pt x="280" y="436" on="1"/>
        <pt x="339" y="470" on="0"/>
        <pt x="390" y="531" on="0"/>
        <pt x="390" y="571" on="1"/>
        <pt x="390" y="607" on="0"/>
        <pt x="342" y="653" on="0"/>
      </contour>
    </TTGlyph>
    <TTGlyph name="aogonek" xMin="45" yMin="-220" xMax="505" yMax="545">
      <contour>
        <pt x="412" y="-116" on="1"/>
        <pt x="412" y="-138" on="0"/>
        <pt x="436" y="-161" on="0"/>
        <pt x="457" y="-161" on="1"/>
        <pt x="474" y="-161" on="0"/>
        <pt x="497" y="-156" on="0"/>
        <pt x="505" y="-155" on="1"/>
        <pt x="505" y="-211" on="1"/>
        <pt x="491" y="-215" on="0"/>
        <pt x="463" y="-220" on="0"/>
        <pt x="443" y="-220" on="1"/>
        <pt x="390" y="-220" on="0"/>
        <pt x="340" y="-170" on="0"/>
        <pt x="340" y="-126" on="1"/>
        <pt x="340" y="-97" on="0"/>
        <pt x="369" y="-43" on="0"/>
        <pt x="412" y="1" on="0"/>
        <pt x="432" y="15" on="1"/>
        <pt x="480" y="0" on="1"/>
        <pt x="446" y="-32" on="0"/>
        <pt x="412" y="-85" on="0"/>
      </contour>
      <contour>
        <pt x="288" y="545" on="1"/>
        <pt x="386" y="545" on="0"/>
        <pt x="480" y="459" on="0"/>
        <pt x="480" y="365" on="1"/>
        <pt x="480" y="0" on="1"/>
        <pt x="416" y="0" on="1"/>
        <pt x="399" y="76" on="1"/>
        <pt x="395" y="76" on="1"/>
        <pt x="372" y="47" on="0"/>
        <pt x="323" y="8" on="0"/>
        <pt x="260" y="-10" on="0"/>
        <pt x="215" y="-10" on="1"/>
        <pt x="167" y="-10" on="0"/>
        <pt x="90" y="24" on="0"/>
        <pt x="46" y="95" on="0"/>
        <pt x="46" y="149" on="1"/>
        <pt x="46" y="229" on="0"/>
        <pt x="172" y="316" on="0"/>
        <pt x="303" y="320" on="1"/>
        <pt x="394" y="323" on="1"/>
        <pt x="394" y="355" on="1"/>
        <pt x="394" y="422" on="0"/>
        <pt x="336" y="474" on="0"/>
        <pt x="283" y="474" on="1"/>
        <pt x="241" y="474" on="0"/>
        <pt x="165" y="449" on="0"/>
        <pt x="132" y="433" on="1"/>
        <pt x="105" y="499" on="1"/>
        <pt x="140" y="518" on="0"/>
        <pt x="236" y="545" on="0"/>
      </contour>
      <contour>
        <pt x="314" y="259" on="1"/>
        <pt x="214" y="255" on="0"/>
        <pt x="137" y="199" on="0"/>
        <pt x="137" y="148" on="1"/>
        <pt x="137" y="103" on="0"/>
        <pt x="192" y="61" on="0"/>
        <pt x="235" y="61" on="1"/>
        <pt x="303" y="61" on="0"/>
        <pt x="393" y="136" on="0"/>
        <pt x="393" y="214" on="1"/>
        <pt x="393" y="262" on="1"/>
      </contour>
    </TTGlyph>
    <TTGlyph name="aring" xMin="45" yMin="-10" xMax="480" yMax="817">
      <contour>
        <pt x="280" y="606" on="1"/>
        <pt x="231" y="606" on="0"/>
        <pt x="171" y="662" on="0"/>
        <pt x="171" y="712" on="1"/>
        <pt x="171" y="762" on="0"/>
        <pt x="231" y="817" on="0"/>
        <pt x="280" y="817" on="1"/>
        <pt x="327" y="817" on="0"/>
        <pt x="391" y="762" on="0"/>
        <pt x="391" y="713" on="1"/>
        <pt x="391" y="662" on="0"/>
        <pt x="328" y="606" on="0"/>
      </contour>
      <contour>
        <pt x="280" y="656" on="1"/>
        <pt x="305" y="656" on="0"/>
        <pt x="336" y="686" on="0"/>
        <pt x="336" y="712" on="1"/>
        <pt x="336" y="738" on="0"/>
        <pt x="304" y="768" on="0"/>
        <pt x="280" y="768" on="1"/>
        <pt x="256" y="768" on="0"/>
        <pt x="224" y="738" on="0"/>
        <pt x="224" y="712" on="1"/>
        <pt x="224" y="686" on="0"/>
        <pt x="253" y="656" on="0"/>
      </contour>
      <contour>
        <pt x="288" y="545" on="1"/>
        <pt x="386" y="545" on="0"/>
        <pt x="480" y="459" on="0"/>
        <pt x="480" y="365" on="1"/>
        <pt x="480" y="0" on="1"/>
        <pt x="416" y="0" on="1"/>
        <pt x="399" y="76" on="1"/>
        <pt x="395" y="76" on="1"/>
        <pt x="372" y="47" on="0"/>
        <pt x="323" y="8" on="0"/>
        <pt x="260" y="-10" on="0"/>
        <pt x="215" y="-10" on="1"/>
        <pt x="167" y="-10" on="0"/>
        <pt x="90" y="24" on="0"/>
        <pt x="46" y="95" on="0"/>
        <pt x="46" y="149" on="1"/>
        <pt x="46" y="229" on="0"/>
        <pt x="172" y="316" on="0"/>
        <pt x="303" y="320" on="1"/>
        <pt x="394" y="323" on="1"/>
        <pt x="394" y="355" on="1"/>
        <pt x="394" y="422" on="0"/>
        <pt x="336" y="474" on="0"/>
        <pt x="283" y="474" on="1"/>
        <pt x="241" y="474" on="0"/>
        <pt x="165" y="449" on="0"/>
        <pt x="132" y="433" on="1"/>
        <pt x="105" y="499" on="1"/>
        <pt x="140" y="518" on="0"/>
        <pt x="236" y="545" on="0"/>
      </contour>
      <contour>
        <pt x="314" y="259" on="1"/>
        <pt x="214" y="255" on="0"/>
        <pt x="137" y="199" on="0"/>
        <pt x="137" y="148" on="1"/>
        <pt x="137" y="103" on="0"/>
        <pt x="192" y="61" on="0"/>
        <pt x="235" y="61" on="1"/>
        <pt x="303" y="61" on="0"/>
        <pt x="393" y="136" on="0"/>
        <pt x="393" y="214" on="1"/>
        <pt x="393" y="262" on="1"/>
      </contour>
    </TTGlyph>
    <TTGlyph name="aringacute" xMin="46" yMin="-10" xMax="480" yMax="958">
      <contour>
        <pt x="288" y="545" on="1"/>
        <pt x="386" y="545" on="0"/>
        <pt x="480" y="459" on="0"/>
        <pt x="480" y="365" on="1"/>
        <pt x="480" y="0" on="1"/>
        <pt x="416" y="0" on="1"/>
        <pt x="399" y="76" on="1"/>
        <pt x="395" y="76" on="1"/>
        <pt x="372" y="47" on="0"/>
        <pt x="323" y="8" on="0"/>
        <pt x="260" y="-10" on="0"/>
        <pt x="215" y="-10" on="1"/>
        <pt x="167" y="-10" on="0"/>
        <pt x="90" y="24" on="0"/>
        <pt x="46" y="95" on="0"/>
        <pt x="46" y="149" on="1"/>
        <pt x="46" y="229" on="0"/>
        <pt x="172" y="316" on="0"/>
        <pt x="303" y="320" on="1"/>
        <pt x="394" y="323" on="1"/>
        <pt x="394" y="355" on="1"/>
        <pt x="394" y="422" on="0"/>
        <pt x="336" y="474" on="0"/>
        <pt x="283" y="474" on="1"/>
        <pt x="241" y="474" on="0"/>
        <pt x="165" y="449" on="0"/>
        <pt x="132" y="433" on="1"/>
        <pt x="105" y="499" on="1"/>
        <pt x="140" y="518" on="0"/>
        <pt x="236" y="545" on="0"/>
      </contour>
      <contour>
        <pt x="314" y="259" on="1"/>
        <pt x="214" y="255" on="0"/>
        <pt x="137" y="199" on="0"/>
        <pt x="137" y="148" on="1"/>
        <pt x="137" y="103" on="0"/>
        <pt x="192" y="61" on="0"/>
        <pt x="235" y="61" on="1"/>
        <pt x="303" y="61" on="0"/>
        <pt x="393" y="136" on="0"/>
        <pt x="393" y="214" on="1"/>
        <pt x="393" y="262" on="1"/>
      </contour>
      <contour>
        <pt x="285" y="768" on="1"/>
        <pt x="261" y="768" on="0"/>
        <pt x="229" y="738" on="0"/>
        <pt x="229" y="712" on="1"/>
        <pt x="229" y="686" on="0"/>
        <pt x="258" y="656" on="0"/>
        <pt x="285" y="656" on="1"/>
        <pt x="310" y="656" on="0"/>
        <pt x="341" y="686" on="0"/>
        <pt x="341" y="712" on="1"/>
        <pt x="341" y="738" on="0"/>
        <pt x="309" y="768" on="0"/>
      </contour>
      <contour>
        <pt x="285" y="817" on="1"/>
        <pt x="317" y="817" on="0"/>
        <pt x="367" y="792" on="0"/>
        <pt x="396" y="746" on="0"/>
        <pt x="396" y="713" on="1"/>
        <pt x="396" y="662" on="0"/>
        <pt x="333" y="606" on="0"/>
        <pt x="285" y="606" on="1"/>
        <pt x="236" y="606" on="0"/>
        <pt x="176" y="662" on="0"/>
        <pt x="176" y="712" on="1"/>
        <pt x="176" y="762" on="0"/>
        <pt x="236" y="817" on="0"/>
      </contour>
      <contour>
        <pt x="446" y="952" on="1"/>
        <pt x="436" y="941" on="0"/>
        <pt x="380" y="904" on="0"/>
        <pt x="316" y="868" on="0"/>
        <pt x="293" y="856" on="1"/>
        <pt x="230" y="856" on="1"/>
        <pt x="230" y="864" on="1"/>
        <pt x="244" y="877" on="0"/>
        <pt x="275" y="909" on="0"/>
        <pt x="305" y="944" on="0"/>
        <pt x="315" y="958" on="1"/>
        <pt x="446" y="958" on="1"/>
      </contour>
    </TTGlyph>
    <TTGlyph name="asciicircum" xMin="38" yMin="267" xMax="534" yMax="719">
      <contour>
        <pt x="38" y="267" on="1"/>
        <pt x="250" y="719" on="1"/>
        <pt x="300" y="719" on="1"/>
        <pt x="534" y="267" on="1"/>
        <pt x="456" y="267" on="1"/>
        <pt x="276" y="626" on="1"/>
        <pt x="116" y="267" on="1"/>
      </contour>
    </TTGlyph>
    <TTGlyph name="asciitilde" xMin="50" yMin="287" xMax="521" yMax="418">
      <contour>
        <pt x="269" y="319" on="1"/>
        <pt x="233" y="335" on="0"/>
        <pt x="186" y="346" on="0"/>
        <pt x="164" y="346" on="1"/>
        <pt x="136" y="346" on="0"/>
        <pt x="74" y="312" on="0"/>
        <pt x="50" y="287" on="1"/>
        <pt x="50" y="365" on="1"/>
        <pt x="74" y="391" on="0"/>
        <pt x="134" y="418" on="0"/>
        <pt x="170" y="418" on="1"/>
        <pt x="199" y="418" on="0"/>
        <pt x="256" y="406" on="0"/>
        <pt x="302" y="386" on="1"/>
        <pt x="338" y="370" on="0"/>
        <pt x="385" y="359" on="0"/>
        <pt x="406" y="359" on="1"/>
        <pt x="435" y="359" on="0"/>
        <pt x="497" y="393" on="0"/>
        <pt x="521" y="418" on="1"/>
        <pt x="521" y="341" on="1"/>
        <pt x="497" y="315" on="0"/>
        <pt x="437" y="287" on="0"/>
        <pt x="401" y="287" on="1"/>
        <pt x="373" y="287" on="0"/>
        <pt x="314" y="300" on="0"/>
      </contour>
    </TTGlyph>
    <TTGlyph name="asterisk" xMin="41" yMin="310" xMax="508" yMax="760">
      <contour>
        <pt x="322" y="760" on="1"/>
        <pt x="302" y="568" on="1"/>
        <pt x="494" y="622" on="1"/>
        <pt x="508" y="530" on="1"/>
        <pt x="324" y="515" on="1"/>
        <pt x="443" y="357" on="1"/>
        <pt x="357" y="310" on="1"/>
        <pt x="272" y="485" on="1"/>
        <pt x="195" y="310" on="1"/>
        <pt x="106" y="357" on="1"/>
        <pt x="223" y="515" on="1"/>
        <pt x="41" y="530" on="1"/>
        <pt x="55" y="622" on="1"/>
        <pt x="245" y="568" on="1"/>
        <pt x="224" y="760" on="1"/>
      </contour>
    </TTGlyph>
    <TTGlyph name="at" xMin="57" yMin="-89" xMax="841" yMax="714">
      <contour>
        <pt x="841" y="357" on="1"/>
        <pt x="841" y="311" on="0"/>
        <pt x="820" y="223" on="0"/>
        <pt x="776" y="152" on="0"/>
        <pt x="712" y="109" on="0"/>
        <pt x="668" y="109" on="1"/>
        <pt x="622" y="109" on="0"/>
        <pt x="569" y="162" on="0"/>
        <pt x="563" y="196" on="1"/>
        <pt x="558" y="196" on="1"/>
        <pt x="540" y="159" on="0"/>
        <pt x="470" y="109" on="0"/>
        <pt x="417" y="109" on="1"/>
        <pt x="341" y="109" on="0"/>
        <pt x="258" y="211" on="0"/>
        <pt x="258" y="295" on="1"/>
        <pt x="258" y="361" on="0"/>
        <pt x="310" y="462" on="0"/>
        <pt x="405" y="520" on="0"/>
        <pt x="470" y="520" on="1"/>
        <pt x="514" y="520" on="0"/>
        <pt x="599" y="505" on="0"/>
        <pt x="623" y="496" on="1"/>
        <pt x="613" y="293" on="1"/>
        <pt x="612" y="275" on="0"/>
        <pt x="612" y="268" on="1"/>
        <pt x="612" y="257" on="1"/>
        <pt x="612" y="205" on="0"/>
        <pt x="649" y="171" on="0"/>
        <pt x="674" y="171" on="1"/>
        <pt x="705" y="171" on="0"/>
        <pt x="748" y="222" on="0"/>
        <pt x="771" y="307" on="0"/>
        <pt x="771" y="358" on="1"/>
        <pt x="771" y="451" on="0"/>
        <pt x="696" y="580" on="0"/>
        <pt x="565" y="648" on="0"/>
        <pt x="482" y="648" on="1"/>
        <pt x="397" y="648" on="0"/>
        <pt x="265" y="594" on="0"/>
        <pt x="176" y="496" on="0"/>
        <pt x="130" y="363" on="0"/>
        <pt x="130" y="283" on="1"/>
        <pt x="130" y="185" on="0"/>
        <pt x="200" y="48" on="0"/>
        <pt x="335" y="-23" on="0"/>
        <pt x="433" y="-23" on="1"/>
        <pt x="494" y="-23" on="0"/>
        <pt x="605" y="4" on="0"/>
        <pt x="648" y="20" on="1"/>
        <pt x="648" y="-48" on="1"/>
        <pt x="605" y="-66" on="0"/>
        <pt x="498" y="-89" on="0"/>
        <pt x="433" y="-89" on="1"/>
        <pt x="315" y="-89" on="0"/>
        <pt x="147" y="-1" on="0"/>
        <pt x="58" y="164" on="0"/>
        <pt x="58" y="280" on="1"/>
        <pt x="58" y="373" on="0"/>
        <pt x="116" y="532" on="0"/>
        <pt x="226" y="649" on="0"/>
        <pt x="383" y="714" on="0"/>
        <pt x="482" y="714" on="1"/>
        <pt x="560" y="714" on="0"/>
        <pt x="691" y="665" on="0"/>
        <pt x="788" y="572" on="0"/>
        <pt x="841" y="440" on="0"/>
      </contour>
      <contour>
        <pt x="336" y="293" on="1"/>
        <pt x="336" y="229" on="0"/>
        <pt x="387" y="171" on="0"/>
        <pt x="430" y="171" on="1"/>
        <pt x="486" y="171" on="0"/>
        <pt x="535" y="255" on="0"/>
        <pt x="539" y="322" on="1"/>
        <pt x="545" y="447" on="1"/>
        <pt x="532" y="451" on="0"/>
        <pt x="492" y="457" on="0"/>
        <pt x="471" y="457" on="1"/>
        <pt x="422" y="457" on="0"/>
        <pt x="362" y="409" on="0"/>
        <pt x="336" y="334" on="0"/>
      </contour>
    </TTGlyph>
    <TTGlyph name="atilde" xMin="45" yMin="-10" xMax="480" yMax="735">
      <contour>
        <pt x="98" y="606" on="1"/>
        <pt x="101" y="636" on="0"/>
        <pt x="118" y="683" on="0"/>
        <pt x="146" y="716" on="0"/>
        <pt x="184" y="734" on="0"/>
        <pt x="208" y="734" on="1"/>
        <pt x="230" y="734" on="0"/>
        <pt x="271" y="717" on="0"/>
        <pt x="309" y="694" on="0"/>
        <pt x="344" y="677" on="0"/>
        <pt x="360" y="677" on="1"/>
        <pt x="383" y="677" on="0"/>
        <pt x="408" y="706" on="0"/>
        <pt x="415" y="735" on="1"/>
        <pt x="465" y="735" on="1"/>
        <pt x="459" y="677" on="0"/>
        <pt x="403" y="607" on="0"/>
        <pt x="356" y="607" on="1"/>
        <pt x="335" y="607" on="0"/>
        <pt x="295" y="624" on="0"/>
        <pt x="256" y="647" on="0"/>
        <pt x="221" y="664" on="0"/>
        <pt x="204" y="664" on="1"/>
        <pt x="180" y="664" on="0"/>
        <pt x="156" y="635" on="0"/>
        <pt x="149" y="606" on="1"/>
      </contour>
      <contour>
        <pt x="288" y="545" on="1"/>
        <pt x="386" y="545" on="0"/>
        <pt x="480" y="459" on="0"/>
        <pt x="480" y="365" on="1"/>
        <pt x="480" y="0" on="1"/>
        <pt x="416" y="0" on="1"/>
        <pt x="399" y="76" on="1"/>
        <pt x="395" y="76" on="1"/>
        <pt x="372" y="47" on="0"/>
        <pt x="323" y="8" on="0"/>
        <pt x="260" y="-10" on="0"/>
        <pt x="215" y="-10" on="1"/>
        <pt x="167" y="-10" on="0"/>
        <pt x="90" y="24" on="0"/>
        <pt x="46" y="95" on="0"/>
        <pt x="46" y="149" on="1"/>
        <pt x="46" y="229" on="0"/>
        <pt x="172" y="316" on="0"/>
        <pt x="303" y="320" on="1"/>
        <pt x="394" y="323" on="1"/>
        <pt x="394" y="355" on="1"/>
        <pt x="394" y="422" on="0"/>
        <pt x="336" y="474" on="0"/>
        <pt x="283" y="474" on="1"/>
        <pt x="241" y="474" on="0"/>
        <pt x="165" y="449" on="0"/>
        <pt x="132" y="433" on="1"/>
        <pt x="105" y="499" on="1"/>
        <pt x="140" y="518" on="0"/>
        <pt x="236" y="545" on="0"/>
      </contour>
      <contour>
        <pt x="314" y="259" on="1"/>
        <pt x="214" y="255" on="0"/>
        <pt x="137" y="199" on="0"/>
        <pt x="137" y="148" on="1"/>
        <pt x="137" y="103" on="0"/>
        <pt x="192" y="61" on="0"/>
        <pt x="235" y="61" on="1"/>
        <pt x="303" y="61" on="0"/>
        <pt x="393" y="136" on="0"/>
        <pt x="393" y="214" on="1"/>
        <pt x="393" y="262" on="1"/>
      </contour>
    </TTGlyph>
    <TTGlyph name="b" xMin="85" yMin="-10" xMax="560" yMax="760">
      <contour>
        <pt x="173" y="575" on="1"/>
        <pt x="173" y="541" on="0"/>
        <pt x="170" y="482" on="0"/>
        <pt x="168" y="465" on="1"/>
        <pt x="173" y="465" on="1"/>
        <pt x="196" y="499" on="0"/>
        <pt x="276" y="545" on="0"/>
        <pt x="339" y="545" on="1"/>
        <pt x="439" y="545" on="0"/>
        <pt x="560" y="406" on="0"/>
        <pt x="560" y="268" on="1"/>
        <pt x="560" y="176" on="0"/>
        <pt x="505" y="52" on="0"/>
        <pt x="405" y="-10" on="0"/>
        <pt x="339" y="-10" on="1"/>
        <pt x="276" y="-10" on="0"/>
        <pt x="196" y="36" on="0"/>
        <pt x="173" y="68" on="1"/>
        <pt x="166" y="68" on="1"/>
        <pt x="148" y="0" on="1"/>
        <pt x="85" y="0" on="1"/>
        <pt x="85" y="760" on="1"/>
        <pt x="173" y="760" on="1"/>
      </contour>
      <contour>
        <pt x="324" y="472" on="1"/>
        <pt x="267" y="472" on="0"/>
        <pt x="201" y="429" on="0"/>
        <pt x="173" y="340" on="0"/>
        <pt x="173" y="271" on="1"/>
        <pt x="173" y="267" on="1"/>
        <pt x="173" y="168" on="0"/>
        <pt x="238" y="63" on="0"/>
        <pt x="326" y="63" on="1"/>
        <pt x="398" y="63" on="0"/>
        <pt x="469" y="169" on="0"/>
        <pt x="469" y="269" on="1"/>
        <pt x="469" y="370" on="0"/>
        <pt x="398" y="472" on="0"/>
      </contour>
    </TTGlyph>
    <TTGlyph name="backslash" xMin="10" yMin="0" xMax="363" yMax="714">
      <contour>
        <pt x="96" y="714" on="1"/>
        <pt x="363" y="0" on="1"/>
        <pt x="276" y="0" on="1"/>
        <pt x="10" y="714" on="1"/>
      </contour>
    </TTGlyph>
    <TTGlyph name="bar" xMin="239" yMin="-241" xMax="312" yMax="760">
      <contour>
        <pt x="239" y="760" on="1"/>
        <pt x="312" y="760" on="1"/>
        <pt x="312" y="-241" on="1"/>
        <pt x="239" y="-241" on="1"/>
      </contour>
    </TTGlyph>
    <TTGlyph name="braceleft" xMin="28" yMin="-158" xMax="348" yMax="714">
      <contour>
        <pt x="348" y="-158" on="1"/>
        <pt x="287" y="-157" on="0"/>
        <pt x="198" y="-123" on="0"/>
        <pt x="150" y="-52" on="0"/>
        <pt x="150" y="1" on="1"/>
        <pt x="150" y="148" on="1"/>
        <pt x="150" y="182" on="0"/>
        <pt x="122" y="223" on="0"/>
        <pt x="68" y="242" on="0"/>
        <pt x="28" y="242" on="1"/>
        <pt x="28" y="315" on="1"/>
        <pt x="68" y="316" on="0"/>
        <pt x="122" y="334" on="0"/>
        <pt x="150" y="375" on="0"/>
        <pt x="150" y="408" on="1"/>
        <pt x="150" y="556" on="1"/>
        <pt x="150" y="609" on="0"/>
        <pt x="200" y="679" on="0"/>
        <pt x="290" y="714" on="0"/>
        <pt x="348" y="714" on="1"/>
        <pt x="348" y="642" on="1"/>
        <pt x="314" y="641" on="0"/>
        <pt x="264" y="621" on="0"/>
        <pt x="237" y="581" on="0"/>
        <pt x="237" y="548" on="1"/>
        <pt x="237" y="404" on="1"/>
        <pt x="237" y="353" on="0"/>
        <pt x="183" y="292" on="0"/>
        <pt x="128" y="282" on="1"/>
        <pt x="128" y="276" on="1"/>
        <pt x="184" y="266" on="0"/>
        <pt x="237" y="205" on="0"/>
        <pt x="237" y="154" on="1"/>
        <pt x="237" y="7" on="1"/>
        <pt x="237" y="-25" on="0"/>
        <pt x="263" y="-66" on="0"/>
        <pt x="313" y="-85" on="0"/>
        <pt x="348" y="-86" on="1"/>
      </contour>
    </TTGlyph>
    <TTGlyph name="braceright" xMin="32" yMin="-158" xMax="352" yMax="714">
      <contour>
        <pt x="32" y="-86" on="1"/>
        <pt x="67" y="-85" on="0"/>
        <pt x="116" y="-65" on="0"/>
        <pt x="143" y="-24" on="0"/>
        <pt x="143" y="8" on="1"/>
        <pt x="143" y="153" on="1"/>
        <pt x="143" y="204" on="0"/>
        <pt x="197" y="265" on="0"/>
        <pt x="252" y="275" on="1"/>
        <pt x="252" y="281" on="1"/>
        <pt x="197" y="291" on="0"/>
        <pt x="143" y="352" on="0"/>
        <pt x="143" y="403" on="1"/>
        <pt x="143" y="549" on="1"/>
        <pt x="143" y="582" on="0"/>
        <pt x="117" y="622" on="0"/>
        <pt x="68" y="642" on="0"/>
        <pt x="32" y="642" on="1"/>
        <pt x="32" y="714" on="1"/>
        <pt x="94" y="714" on="0"/>
        <pt x="182" y="679" on="0"/>
        <pt x="230" y="609" on="0"/>
        <pt x="230" y="555" on="1"/>
        <pt x="230" y="409" on="1"/>
        <pt x="230" y="375" on="0"/>
        <pt x="258" y="334" on="0"/>
        <pt x="313" y="315" on="0"/>
        <pt x="352" y="315" on="1"/>
        <pt x="352" y="242" on="1"/>
        <pt x="313" y="242" on="0"/>
        <pt x="258" y="223" on="0"/>
        <pt x="230" y="183" on="0"/>
        <pt x="230" y="149" on="1"/>
        <pt x="230" y="0" on="1"/>
        <pt x="230" y="-53" on="0"/>
        <pt x="180" y="-123" on="0"/>
        <pt x="91" y="-158" on="0"/>
        <pt x="32" y="-158" on="1"/>
      </contour>
    </TTGlyph>
    <TTGlyph name="bracketleft" xMin="80" yMin="-158" xMax="304" yMax="714">
      <contour>
        <pt x="304" y="-158" on="1"/>
        <pt x="80" y="-158" on="1"/>
        <pt x="80" y="714" on="1"/>
        <pt x="304" y="714" on="1"/>
        <pt x="304" y="642" on="1"/>
        <pt x="166" y="642" on="1"/>
        <pt x="166" y="-86" on="1"/>
        <pt x="304" y="-86" on="1"/>
      </contour>
    </TTGlyph>
    <TTGlyph name="bracketright" xMin="25" yMin="-158" xMax="249" yMax="714">
      <contour>
        <pt x="25" y="-86" on="1"/>
        <pt x="163" y="-86" on="1"/>
        <pt x="163" y="642" on="1"/>
        <pt x="25" y="642" on="1"/>
        <pt x="25" y="714" on="1"/>
        <pt x="249" y="714" on="1"/>
        <pt x="249" y="-158" on="1"/>
        <pt x="25" y="-158" on="1"/>
      </contour>
    </TTGlyph>
    <TTGlyph name="brokenbar" xMin="239" yMin="-241" xMax="312" yMax="760">
      <contour>
        <pt x="239" y="760" on="1"/>
        <pt x="312" y="760" on="1"/>
        <pt x="312" y="379" on="1"/>
        <pt x="239" y="379" on="1"/>
      </contour>
      <contour>
        <pt x="239" y="140" on="1"/>
        <pt x="312" y="140" on="1"/>
        <pt x="312" y="-241" on="1"/>
        <pt x="239" y="-241" on="1"/>
      </contour>
    </TTGlyph>
    <TTGlyph name="c" xMin="55" yMin="-10" xMax="447" yMax="546">
      <contour>
        <pt x="300" y="-10" on="1"/>
        <pt x="229" y="-10" on="0"/>
        <pt x="118" y="48" on="0"/>
        <pt x="55" y="170" on="0"/>
        <pt x="55" y="265" on="1"/>
        <pt x="55" y="364" on="0"/>
        <pt x="121" y="488" on="0"/>
        <pt x="234" y="546" on="0"/>
        <pt x="306" y="546" on="1"/>
        <pt x="347" y="546" on="0"/>
        <pt x="423" y="529" on="0"/>
        <pt x="447" y="517" on="1"/>
        <pt x="420" y="444" on="1"/>
        <pt x="396" y="453" on="0"/>
        <pt x="332" y="469" on="0"/>
        <pt x="304" y="469" on="1"/>
        <pt x="250" y="469" on="0"/>
        <pt x="180" y="423" on="0"/>
        <pt x="146" y="333" on="0"/>
        <pt x="146" y="266" on="1"/>
        <pt x="146" y="202" on="0"/>
        <pt x="180" y="112" on="0"/>
        <pt x="248" y="66" on="0"/>
        <pt x="299" y="66" on="1"/>
        <pt x="343" y="66" on="0"/>
        <pt x="410" y="84" on="0"/>
        <pt x="438" y="97" on="1"/>
        <pt x="438" y="19" on="1"/>
        <pt x="411" y="5" on="0"/>
        <pt x="346" y="-10" on="0"/>
      </contour>
    </TTGlyph>
    <TTGlyph name="cacute" xMin="55" yMin="-10" xMax="447" yMax="766">
      <component glyphName="c" x="0" y="0" flags="0x1204"/>
      <component glyphName="acute" x="191" y="0" flags="0x1004"/>
    </TTGlyph>
    <TTGlyph name="ccaron" xMin="55" yMin="-10" xMax="453" yMax="766">
      <contour>
        <pt x="238" y="606" on="1"/>
        <pt x="225" y="629" on="0"/>
        <pt x="181" y="682" on="0"/>
        <pt x="133" y="734" on="0"/>
        <pt x="115" y="753" on="1"/>
        <pt x="115" y="766" on="1"/>
        <pt x="175" y="766" on="1"/>
        <pt x="201" y="749" on="0"/>
        <pt x="257" y="701" on="0"/>
        <pt x="282" y="674" on="1"/>
        <pt x="309" y="701" on="0"/>
        <pt x="365" y="749" on="0"/>
        <pt x="391" y="766" on="1"/>
        <pt x="453" y="766" on="1"/>
        <pt x="453" y="753" on="1"/>
        <pt x="434" y="734" on="0"/>
        <pt x="385" y="682" on="0"/>
        <pt x="340" y="629" on="0"/>
        <pt x="328" y="606" on="1"/>
      </contour>
      <contour>
        <pt x="300" y="-10" on="1"/>
        <pt x="229" y="-10" on="0"/>
        <pt x="118" y="48" on="0"/>
        <pt x="55" y="170" on="0"/>
        <pt x="55" y="265" on="1"/>
        <pt x="55" y="364" on="0"/>
        <pt x="121" y="488" on="0"/>
        <pt x="234" y="546" on="0"/>
        <pt x="306" y="546" on="1"/>
        <pt x="347" y="546" on="0"/>
        <pt x="423" y="529" on="0"/>
        <pt x="447" y="517" on="1"/>
        <pt x="420" y="444" on="1"/>
        <pt x="396" y="453" on="0"/>
        <pt x="332" y="469" on="0"/>
        <pt x="304" y="469" on="1"/>
        <pt x="250" y="469" on="0"/>
        <pt x="180" y="423" on="0"/>
        <pt x="146" y="333" on="0"/>
        <pt x="146" y="266" on="1"/>
        <pt x="146" y="202" on="0"/>
        <pt x="180" y="112" on="0"/>
        <pt x="248" y="66" on="0"/>
        <pt x="299" y="66" on="1"/>
        <pt x="343" y="66" on="0"/>
        <pt x="410" y="84" on="0"/>
        <pt x="438" y="97" on="1"/>
        <pt x="438" y="19" on="1"/>
        <pt x="411" y="5" on="0"/>
        <pt x="346" y="-10" on="0"/>
      </contour>
    </TTGlyph>
    <TTGlyph name="ccedilla" xMin="55" yMin="-240" xMax="447" yMax="546">
      <component glyphName="c" x="0" y="0" flags="0x1204"/>
      <component glyphName="cedilla" x="170" y="0" flags="0x1004"/>
    </TTGlyph>
    <TTGlyph name="ccircumflex" xMin="55" yMin="-10" xMax="453" yMax="766">
      <contour>
        <pt x="328" y="766" on="1"/>
        <pt x="340" y="744" on="0"/>
        <pt x="385" y="689" on="0"/>
        <pt x="434" y="636" on="0"/>
        <pt x="453" y="617" on="1"/>
        <pt x="453" y="606" on="1"/>
        <pt x="391" y="606" on="1"/>
        <pt x="365" y="622" on="0"/>
        <pt x="309" y="669" on="0"/>
        <pt x="282" y="696" on="1"/>
        <pt x="255" y="669" on="0"/>
        <pt x="201" y="623" on="0"/>
        <pt x="175" y="606" on="1"/>
        <pt x="115" y="606" on="1"/>
        <pt x="115" y="617" on="1"/>
        <pt x="134" y="637" on="0"/>
        <pt x="181" y="689" on="0"/>
        <pt x="225" y="744" on="0"/>
        <pt x="238" y="766" on="1"/>
      </contour>
      <contour>
        <pt x="300" y="-10" on="1"/>
        <pt x="229" y="-10" on="0"/>
        <pt x="118" y="48" on="0"/>
        <pt x="55" y="170" on="0"/>
        <pt x="55" y="265" on="1"/>
        <pt x="55" y="364" on="0"/>
        <pt x="121" y="488" on="0"/>
        <pt x="234" y="546" on="0"/>
        <pt x="306" y="546" on="1"/>
        <pt x="347" y="546" on="0"/>
        <pt x="423" y="529" on="0"/>
        <pt x="447" y="517" on="1"/>
        <pt x="420" y="444" on="1"/>
        <pt x="396" y="453" on="0"/>
        <pt x="332" y="469" on="0"/>
        <pt x="304" y="469" on="1"/>
        <pt x="250" y="469" on="0"/>
        <pt x="180" y="423" on="0"/>
        <pt x="146" y="333" on="0"/>
        <pt x="146" y="266" on="1"/>
        <pt x="146" y="202" on="0"/>
        <pt x="180" y="112" on="0"/>
        <pt x="248" y="66" on="0"/>
        <pt x="299" y="66" on="1"/>
        <pt x="343" y="66" on="0"/>
        <pt x="410" y="84" on="0"/>
        <pt x="438" y="97" on="1"/>
        <pt x="438" y="19" on="1"/>
        <pt x="411" y="5" on="0"/>
        <pt x="346" y="-10" on="0"/>
      </contour>
    </TTGlyph>
    <TTGlyph name="cdotaccent" xMin="55" yMin="-10" xMax="447" yMax="737">
      <contour>
        <pt x="285" y="737" on="1"/>
        <pt x="305" y="737" on="0"/>
        <pt x="336" y="710" on="0"/>
        <pt x="336" y="681" on="1"/>
        <pt x="336" y="653" on="0"/>
        <pt x="305" y="625" on="0"/>
        <pt x="285" y="625" on="1"/>
        <pt x="263" y="625" on="0"/>
        <pt x="233" y="653" on="0"/>
        <pt x="233" y="681" on="1"/>
        <pt x="233" y="710" on="0"/>
        <pt x="263" y="737" on="0"/>
      </contour>
      <contour>
        <pt x="300" y="-10" on="1"/>
        <pt x="229" y="-10" on="0"/>
        <pt x="118" y="48" on="0"/>
        <pt x="55" y="170" on="0"/>
        <pt x="55" y="265" on="1"/>
        <pt x="55" y="364" on="0"/>
        <pt x="121" y="488" on="0"/>
        <pt x="234" y="546" on="0"/>
        <pt x="306" y="546" on="1"/>
        <pt x="347" y="546" on="0"/>
        <pt x="423" y="529" on="0"/>
        <pt x="447" y="517" on="1"/>
        <pt x="420" y="444" on="1"/>
        <pt x="396" y="453" on="0"/>
        <pt x="332" y="469" on="0"/>
        <pt x="304" y="469" on="1"/>
        <pt x="250" y="469" on="0"/>
        <pt x="180" y="423" on="0"/>
        <pt x="146" y="333" on="0"/>
        <pt x="146" y="266" on="1"/>
        <pt x="146" y="202" on="0"/>
        <pt x="180" y="112" on="0"/>
        <pt x="248" y="66" on="0"/>
        <pt x="299" y="66" on="1"/>
        <pt x="343" y="66" on="0"/>
        <pt x="410" y="84" on="0"/>
        <pt x="438" y="97" on="1"/>
        <pt x="438" y="19" on="1"/>
        <pt x="411" y="5" on="0"/>
        <pt x="346" y="-10" on="0"/>
      </contour>
    </TTGlyph>
    <TTGlyph name="cedilla" xMin="14" yMin="-240" xMax="212" yMax="0">
      <contour>
        <pt x="212" y="-139" on="1"/>
        <pt x="212" y="-187" on="0"/>
        <pt x="138" y="-240" on="0"/>
        <pt x="64" y="-240" on="1"/>
        <pt x="49" y="-240" on="0"/>
        <pt x="22" y="-237" on="0"/>
        <pt x="14" y="-235" on="1"/>
        <pt x="14" y="-180" on="1"/>
        <pt x="23" y="-182" on="0"/>
        <pt x="53" y="-185" on="0"/>
        <pt x="67" y="-185" on="1"/>
        <pt x="103" y="-185" on="0"/>
        <pt x="141" y="-166" on="0"/>
        <pt x="141" y="-141" on="1"/>
        <pt x="141" y="-115" on="0"/>
        <pt x="88" y="-91" on="0"/>
        <pt x="50" y="-86" on="1"/>
        <pt x="93" y="0" on="1"/>
        <pt x="151" y="0" on="1"/>
        <pt x="125" y="-53" on="1"/>
        <pt x="149" y="-58" on="0"/>
        <pt x="189" y="-79" on="0"/>
        <pt x="212" y="-113" on="0"/>
      </contour>
    </TTGlyph>
    <TTGlyph name="cent" xMin="91" yMin="-10" xMax="485" yMax="724">
      <contour>
        <pt x="353" y="644" on="1"/>
        <pt x="391" y="643" on="0"/>
        <pt x="460" y="626" on="0"/>
        <pt x="485" y="615" on="1"/>
        <pt x="459" y="542" on="1"/>
        <pt x="433" y="552" on="0"/>
        <pt x="367" y="568" on="0"/>
        <pt x="340" y="568" on="1"/>
        <pt x="286" y="568" on="0"/>
        <pt x="215" y="523" on="0"/>
        <pt x="181" y="432" on="0"/>
        <pt x="181" y="363" on="1"/>
        <pt x="181" y="294" on="0"/>
        <pt x="216" y="206" on="0"/>
        <pt x="285" y="164" on="0"/>
        <pt x="336" y="164" on="1"/>
        <pt x="380" y="164" on="0"/>
        <pt x="445" y="181" on="0"/>
        <pt x="476" y="194" on="1"/>
        <pt x="476" y="117" on="1"/>
        <pt x="449" y="104" on="0"/>
        <pt x="391" y="89" on="0"/>
        <pt x="352" y="87" on="1"/>
        <pt x="352" y="-10" on="1"/>
        <pt x="285" y="-10" on="1"/>
        <pt x="285" y="90" on="1"/>
        <pt x="226" y="99" on="0"/>
        <pt x="139" y="159" on="0"/>
        <pt x="91" y="273" on="0"/>
        <pt x="91" y="362" on="1"/>
        <pt x="91" y="453" on="0"/>
        <pt x="139" y="569" on="0"/>
        <pt x="227" y="631" on="0"/>
        <pt x="285" y="640" on="1"/>
        <pt x="285" y="724" on="1"/>
        <pt x="353" y="724" on="1"/>
      </contour>
    </TTGlyph>
    <TTGlyph name="colon" xMin="72" yMin="-14" xMax="196" yMax="550">
      <contour>
        <pt x="72" y="54" on="1"/>
        <pt x="72" y="91" on="0"/>
        <pt x="108" y="121" on="0"/>
        <pt x="133" y="121" on="1"/>
        <pt x="159" y="121" on="0"/>
        <pt x="196" y="91" on="0"/>
        <pt x="196" y="54" on="1"/>
        <pt x="196" y="18" on="0"/>
        <pt x="159" y="-14" on="0"/>
        <pt x="133" y="-14" on="1"/>
        <pt x="108" y="-14" on="0"/>
        <pt x="72" y="18" on="0"/>
      </contour>
      <contour>
        <pt x="72" y="482" on="1"/>
        <pt x="72" y="520" on="0"/>
        <pt x="108" y="550" on="0"/>
        <pt x="133" y="550" on="1"/>
        <pt x="159" y="550" on="0"/>
        <pt x="196" y="520" on="0"/>
        <pt x="196" y="482" on="1"/>
        <pt x="196" y="446" on="0"/>
        <pt x="159" y="414" on="0"/>
        <pt x="133" y="414" on="1"/>
        <pt x="108" y="414" on="0"/>
        <pt x="72" y="446" on="0"/>
      </contour>
    </TTGlyph>
    <TTGlyph name="comma" xMin="41" yMin="-129" xMax="192" yMax="116">
      <contour>
        <pt x="192" y="105" on="1"/>
        <pt x="183" y="70" on="0"/>
        <pt x="155" y="-12" on="0"/>
        <pt x="122" y="-93" on="0"/>
        <pt x="106" y="-129" on="1"/>
        <pt x="41" y="-129" on="1"/>
        <pt x="51" y="-91" on="0"/>
        <pt x="70" y="-4" on="0"/>
        <pt x="86" y="81" on="0"/>
        <pt x="91" y="116" on="1"/>
        <pt x="185" y="116" on="1"/>
      </contour>
    </TTGlyph>
    <TTGlyph name="copyright" xMin="49" yMin="-10" xMax="783" yMax="724">
      <contour>
        <pt x="431" y="133" on="1"/>
        <pt x="332" y="133" on="0"/>
        <pt x="234" y="256" on="0"/>
        <pt x="234" y="357" on="1"/>
        <pt x="234" y="422" on="0"/>
        <pt x="280" y="523" on="0"/>
        <pt x="370" y="580" on="0"/>
        <pt x="435" y="580" on="1"/>
        <pt x="466" y="580" on="0"/>
        <pt x="530" y="564" on="0"/>
        <pt x="558" y="550" on="1"/>
        <pt x="529" y="489" on="1"/>
        <pt x="504" y="502" on="0"/>
        <pt x="457" y="515" on="0"/>
        <pt x="436" y="515" on="1"/>
        <pt x="377" y="515" on="0"/>
        <pt x="312" y="431" on="0"/>
        <pt x="312" y="357" on="1"/>
        <pt x="312" y="281" on="0"/>
        <pt x="369" y="198" on="0"/>
        <pt x="435" y="198" on="1"/>
        <pt x="458" y="198" on="0"/>
        <pt x="515" y="211" on="0"/>
        <pt x="540" y="221" on="1"/>
        <pt x="540" y="157" on="1"/>
        <pt x="516" y="147" on="0"/>
        <pt x="466" y="133" on="0"/>
      </contour>
      <contour>
        <pt x="416" y="-10" on="1"/>
        <pt x="336" y="-10" on="0"/>
        <pt x="202" y="44" on="0"/>
        <pt x="103" y="143" on="0"/>
        <pt x="49" y="277" on="0"/>
        <pt x="49" y="357" on="1"/>
        <pt x="49" y="437" on="0"/>
        <pt x="103" y="571" on="0"/>
        <pt x="202" y="670" on="0"/>
        <pt x="336" y="724" on="0"/>
        <pt x="416" y="724" on="1"/>
        <pt x="492" y="724" on="0"/>
        <pt x="625" y="670" on="0"/>
        <pt x="726" y="571" on="0"/>
        <pt x="783" y="437" on="0"/>
        <pt x="783" y="357" on="1"/>
        <pt x="783" y="277" on="0"/>
        <pt x="729" y="143" on="0"/>
        <pt x="630" y="44" on="0"/>
        <pt x="496" y="-10" on="0"/>
      </contour>
      <contour>
        <pt x="416" y="43" on="1"/>
        <pt x="480" y="43" on="0"/>
        <pt x="592" y="89" on="0"/>
        <pt x="678" y="174" on="0"/>
        <pt x="726" y="288" on="0"/>
        <pt x="726" y="357" on="1"/>
        <pt x="726" y="422" on="0"/>
        <pt x="680" y="536" on="0"/>
        <pt x="597" y="622" on="0"/>
        <pt x="484" y="671" on="0"/>
        <pt x="416" y="671" on="1"/>
        <pt x="348" y="671" on="0"/>
        <pt x="234" y="625" on="0"/>
        <pt x="151" y="540" on="0"/>
        <pt x="105" y="426" on="0"/>
        <pt x="105" y="357" on="1"/>
        <pt x="105" y="292" on="0"/>
        <pt x="151" y="178" on="0"/>
        <pt x="234" y="92" on="0"/>
        <pt x="348" y="43" on="0"/>
      </contour>
    </TTGlyph>
    <TTGlyph name="currency" xMin="59" yMin="128" xMax="511" yMax="578">
      <contour>
        <pt x="90" y="353" on="1"/>
        <pt x="90" y="383" on="0"/>
        <pt x="109" y="440" on="0"/>
        <pt x="125" y="463" on="1"/>
        <pt x="59" y="531" on="1"/>
        <pt x="108" y="578" on="1"/>
        <pt x="174" y="514" on="1"/>
        <pt x="197" y="531" on="0"/>
        <pt x="255" y="549" on="0"/>
        <pt x="286" y="549" on="1"/>
        <pt x="317" y="549" on="0"/>
        <pt x="372" y="531" on="0"/>
        <pt x="396" y="514" on="1"/>
        <pt x="463" y="578" on="1"/>
        <pt x="511" y="531" on="1"/>
        <pt x="447" y="464" on="1"/>
        <pt x="462" y="441" on="0"/>
        <pt x="482" y="384" on="0"/>
        <pt x="482" y="353" on="1"/>
        <pt x="482" y="322" on="0"/>
        <pt x="464" y="264" on="0"/>
        <pt x="447" y="241" on="1"/>
        <pt x="510" y="175" on="1"/>
        <pt x="463" y="128" on="1"/>
        <pt x="396" y="192" on="1"/>
        <pt x="373" y="176" on="0"/>
        <pt x="317" y="158" on="0"/>
        <pt x="286" y="158" on="1"/>
        <pt x="255" y="158" on="0"/>
        <pt x="197" y="177" on="0"/>
        <pt x="174" y="193" on="1"/>
        <pt x="108" y="129" on="1"/>
        <pt x="60" y="176" on="1"/>
        <pt x="125" y="242" on="1"/>
        <pt x="109" y="265" on="0"/>
        <pt x="90" y="322" on="0"/>
      </contour>
      <contour>
        <pt x="157" y="353" on="1"/>
        <pt x="157" y="317" on="0"/>
        <pt x="191" y="259" on="0"/>
        <pt x="250" y="224" on="0"/>
        <pt x="286" y="224" on="1"/>
        <pt x="323" y="224" on="0"/>
        <pt x="381" y="259" on="0"/>
        <pt x="416" y="317" on="0"/>
        <pt x="416" y="353" on="1"/>
        <pt x="416" y="390" on="0"/>
        <pt x="381" y="449" on="0"/>
        <pt x="323" y="484" on="0"/>
        <pt x="286" y="484" on="1"/>
        <pt x="250" y="484" on="0"/>
        <pt x="191" y="449" on="0"/>
        <pt x="157" y="390" on="0"/>
      </contour>
    </TTGlyph>
    <TTGlyph name="d" xMin="55" yMin="-10" xMax="530" yMax="760">
      <contour>
        <pt x="275" y="-10" on="1"/>
        <pt x="175" y="-10" on="0"/>
        <pt x="55" y="129" on="0"/>
        <pt x="55" y="267" on="1"/>
        <pt x="55" y="405" on="0"/>
        <pt x="176" y="546" on="0"/>
        <pt x="276" y="546" on="1"/>
        <pt x="318" y="546" on="0"/>
        <pt x="380" y="525" on="0"/>
        <pt x="426" y="489" on="0"/>
        <pt x="442" y="467" on="1"/>
        <pt x="448" y="467" on="1"/>
        <pt x="447" y="480" on="0"/>
        <pt x="442" y="531" on="0"/>
        <pt x="442" y="546" on="1"/>
        <pt x="442" y="760" on="1"/>
        <pt x="530" y="760" on="1"/>
        <pt x="530" y="0" on="1"/>
        <pt x="459" y="0" on="1"/>
        <pt x="446" y="72" on="1"/>
        <pt x="442" y="72" on="1"/>
        <pt x="426" y="49" on="0"/>
        <pt x="380" y="12" on="0"/>
        <pt x="317" y="-10" on="0"/>
      </contour>
      <contour>
        <pt x="289" y="63" on="1"/>
        <pt x="374" y="63" on="0"/>
        <pt x="443" y="156" on="0"/>
        <pt x="443" y="250" on="1"/>
        <pt x="443" y="266" on="1"/>
        <pt x="443" y="366" on="0"/>
        <pt x="377" y="473" on="0"/>
        <pt x="288" y="473" on="1"/>
        <pt x="217" y="473" on="0"/>
        <pt x="146" y="360" on="0"/>
        <pt x="146" y="265" on="1"/>
        <pt x="146" y="169" on="0"/>
        <pt x="217" y="63" on="0"/>
      </contour>
    </TTGlyph>
    <TTGlyph name="dcaron" xMin="55" yMin="-10" xMax="688" yMax="760">
      <contour>
        <pt x="688" y="751" on="1"/>
        <pt x="684" y="733" on="0"/>
        <pt x="661" y="679" on="0"/>
        <pt x="631" y="622" on="0"/>
        <pt x="616" y="600" on="1"/>
        <pt x="568" y="600" on="1"/>
        <pt x="568" y="612" on="1"/>
        <pt x="573" y="626" on="0"/>
        <pt x="583" y="664" on="0"/>
        <pt x="592" y="705" on="0"/>
        <pt x="599" y="744" on="0"/>
        <pt x="601" y="760" on="1"/>
        <pt x="688" y="760" on="1"/>
      </contour>
      <contour>
        <pt x="275" y="-10" on="1"/>
        <pt x="175" y="-10" on="0"/>
        <pt x="55" y="129" on="0"/>
        <pt x="55" y="267" on="1"/>
        <pt x="55" y="405" on="0"/>
        <pt x="176" y="546" on="0"/>
        <pt x="276" y="546" on="1"/>
        <pt x="318" y="546" on="0"/>
        <pt x="380" y="525" on="0"/>
        <pt x="426" y="489" on="0"/>
        <pt x="442" y="467" on="1"/>
        <pt x="448" y="467" on="1"/>
        <pt x="447" y="480" on="0"/>
        <pt x="442" y="531" on="0"/>
        <pt x="442" y="546" on="1"/>
        <pt x="442" y="760" on="1"/>
        <pt x="530" y="760" on="1"/>
        <pt x="530" y="0" on="1"/>
        <pt x="459" y="0" on="1"/>
        <pt x="446" y="72" on="1"/>
        <pt x="442" y="72" on="1"/>
        <pt x="426" y="49" on="0"/>
        <pt x="380" y="12" on="0"/>
        <pt x="317" y="-10" on="0"/>
      </contour>
      <contour>
        <pt x="289" y="63" on="1"/>
        <pt x="374" y="63" on="0"/>
        <pt x="443" y="156" on="0"/>
        <pt x="443" y="250" on="1"/>
        <pt x="443" y="266" on="1"/>
        <pt x="443" y="366" on="0"/>
        <pt x="377" y="473" on="0"/>
        <pt x="288" y="473" on="1"/>
        <pt x="217" y="473" on="0"/>
        <pt x="146" y="360" on="0"/>
        <pt x="146" y="265" on="1"/>
        <pt x="146" y="169" on="0"/>
        <pt x="217" y="63" on="0"/>
      </contour>
    </TTGlyph>
    <TTGlyph name="dcroat" xMin="55" yMin="-10" xMax="606" yMax="760">
      <contour>
        <pt x="275" y="-10" on="1"/>
        <pt x="175" y="-10" on="0"/>
        <pt x="55" y="129" on="0"/>
        <pt x="55" y="265" on="1"/>
        <pt x="55" y="405" on="0"/>
        <pt x="176" y="543" on="0"/>
        <pt x="275" y="543" on="1"/>
        <pt x="317" y="543" on="0"/>
        <pt x="380" y="522" on="0"/>
        <pt x="426" y="486" on="0"/>
        <pt x="442" y="464" on="1"/>
        <pt x="448" y="464" on="1"/>
        <pt x="446" y="477" on="0"/>
        <pt x="442" y="528" on="0"/>
        <pt x="442" y="544" on="1"/>
        <pt x="442" y="605" on="1"/>
        <pt x="229" y="605" on="1"/>
        <pt x="229" y="671" on="1"/>
        <pt x="442" y="671" on="1"/>
        <pt x="442" y="760" on="1"/>
        <pt x="530" y="760" on="1"/>
        <pt x="530" y="671" on="1"/>
        <pt x="606" y="671" on="1"/>
        <pt x="606" y="605" on="1"/>
        <pt x="530" y="605" on="1"/>
        <pt x="530" y="0" on="1"/>
        <pt x="458" y="0" on="1"/>
        <pt x="445" y="72" on="1"/>
        <pt x="441" y="72" on="1"/>
        <pt x="425" y="49" on="0"/>
        <pt x="379" y="12" on="0"/>
        <pt x="317" y="-10" on="0"/>
      </contour>
      <contour>
        <pt x="290" y="63" on="1"/>
        <pt x="374" y="63" on="0"/>
        <pt x="443" y="155" on="0"/>
        <pt x="443" y="248" on="1"/>
        <pt x="443" y="265" on="1"/>
        <pt x="443" y="366" on="0"/>
        <pt x="377" y="470" on="0"/>
        <pt x="288" y="470" on="1"/>
        <pt x="217" y="470" on="0"/>
        <pt x="147" y="360" on="0"/>
        <pt x="147" y="264" on="1"/>
        <pt x="147" y="168" on="0"/>
        <pt x="217" y="63" on="0"/>
      </contour>
    </TTGlyph>
    <TTGlyph name="degree" xMin="55" yMin="417" xMax="373" yMax="724">
      <contour>
        <pt x="214" y="417" on="1"/>
        <pt x="166" y="417" on="0"/>
        <pt x="95" y="456" on="0"/>
        <pt x="55" y="525" on="0"/>
        <pt x="55" y="570" on="1"/>
        <pt x="55" y="616" on="0"/>
        <pt x="94" y="685" on="0"/>
        <pt x="165" y="724" on="0"/>
        <pt x="214" y="724" on="1"/>
        <pt x="261" y="724" on="0"/>
        <pt x="333" y="685" on="0"/>
        <pt x="373" y="616" on="0"/>
        <pt x="373" y="570" on="1"/>
        <pt x="373" y="525" on="0"/>
        <pt x="333" y="456" on="0"/>
        <pt x="261" y="417" on="0"/>
      </contour>
      <contour>
        <pt x="215" y="476" on="1"/>
        <pt x="263" y="476" on="0"/>
        <pt x="308" y="528" on="0"/>
        <pt x="308" y="570" on="1"/>
        <pt x="308" y="614" on="0"/>
        <pt x="261" y="666" on="0"/>
        <pt x="215" y="666" on="1"/>
        <pt x="166" y="666" on="0"/>
        <pt x="120" y="614" on="0"/>
        <pt x="120" y="570" on="1"/>
        <pt x="120" y="528" on="0"/>
        <pt x="166" y="476" on="0"/>
      </contour>
    </TTGlyph>
    <TTGlyph name="dieresis" xMin="149" yMin="631" xMax="430" yMax="730">
      <contour>
        <pt x="149" y="681" on="1"/>
        <pt x="149" y="707" on="0"/>
        <pt x="177" y="730" on="0"/>
        <pt x="196" y="730" on="1"/>
        <pt x="215" y="730" on="0"/>
        <pt x="243" y="707" on="0"/>
        <pt x="243" y="681" on="1"/>
        <pt x="243" y="656" on="0"/>
        <pt x="215" y="631" on="0"/>
        <pt x="196" y="631" on="1"/>
        <pt x="177" y="631" on="0"/>
        <pt x="149" y="656" on="0"/>
      </contour>
      <contour>
        <pt x="337" y="681" on="1"/>
        <pt x="337" y="707" on="0"/>
        <pt x="364" y="730" on="0"/>
        <pt x="383" y="730" on="1"/>
        <pt x="402" y="730" on="0"/>
        <pt x="430" y="707" on="0"/>
        <pt x="430" y="681" on="1"/>
        <pt x="430" y="656" on="0"/>
        <pt x="402" y="631" on="0"/>
        <pt x="383" y="631" on="1"/>
        <pt x="364" y="631" on="0"/>
        <pt x="337" y="656" on="0"/>
      </contour>
    </TTGlyph>
    <TTGlyph name="divide" xMin="50" yMin="121" xMax="521" yMax="583">
      <contour>
        <pt x="50" y="317" on="1"/>
        <pt x="50" y="388" on="1"/>
        <pt x="521" y="388" on="1"/>
        <pt x="521" y="317" on="1"/>
      </contour>
      <contour>
        <pt x="285" y="121" on="1"/>
        <pt x="262" y="121" on="0"/>
        <pt x="229" y="150" on="0"/>
        <pt x="229" y="182" on="1"/>
        <pt x="229" y="216" on="0"/>
        <pt x="262" y="242" on="0"/>
        <pt x="285" y="242" on="1"/>
        <pt x="308" y="242" on="0"/>
        <pt x="340" y="216" on="0"/>
        <pt x="340" y="182" on="1"/>
        <pt x="340" y="150" on="0"/>
        <pt x="308" y="121" on="0"/>
      </contour>
      <contour>
        <pt x="285" y="462" on="1"/>
        <pt x="262" y="462" on="0"/>
        <pt x="229" y="491" on="0"/>
        <pt x="229" y="523" on="1"/>
        <pt x="229" y="557" on="0"/>
        <pt x="262" y="583" on="0"/>
        <pt x="285" y="583" on="1"/>
        <pt x="308" y="583" on="0"/>
        <pt x="340" y="557" on="0"/>
        <pt x="340" y="523" on="1"/>
        <pt x="340" y="491" on="0"/>
        <pt x="308" y="462" on="0"/>
      </contour>
    </TTGlyph>
    <TTGlyph name="dollar" xMin="61" yMin="-58" xMax="516" yMax="759">
      <contour>
        <pt x="253" y="49" on="1"/>
        <pt x="198" y="50" on="0"/>
        <pt x="94" y="67" on="0"/>
        <pt x="62" y="82" on="1"/>
        <pt x="62" y="167" on="1"/>
        <pt x="96" y="151" on="0"/>
        <pt x="202" y="127" on="0"/>
        <pt x="253" y="126" on="1"/>
        <pt x="253" y="328" on="1"/>
        <pt x="187" y="346" on="0"/>
        <pt x="103" y="393" on="0"/>
        <pt x="62" y="461" on="0"/>
        <pt x="62" y="508" on="1"/>
        <pt x="62" y="557" on="0"/>
        <pt x="109" y="627" on="0"/>
        <pt x="195" y="668" on="0"/>
        <pt x="253" y="671" on="1"/>
        <pt x="253" y="759" on="1"/>
        <pt x="317" y="759" on="1"/>
        <pt x="317" y="672" on="1"/>
        <pt x="370" y="671" on="0"/>
        <pt x="457" y="650" on="0"/>
        <pt x="493" y="635" on="1"/>
        <pt x="466" y="561" on="1"/>
        <pt x="434" y="574" on="0"/>
        <pt x="357" y="593" on="0"/>
        <pt x="317" y="596" on="1"/>
        <pt x="317" y="395" on="1"/>
        <pt x="383" y="376" on="0"/>
        <pt x="471" y="333" on="0"/>
        <pt x="516" y="270" on="0"/>
        <pt x="516" y="220" on="1"/>
        <pt x="516" y="150" on="0"/>
        <pt x="412" y="63" on="0"/>
        <pt x="317" y="53" on="1"/>
        <pt x="317" y="-58" on="1"/>
        <pt x="253" y="-58" on="1"/>
      </contour>
      <contour>
        <pt x="317" y="131" on="1"/>
        <pt x="376" y="137" on="0"/>
        <pt x="430" y="180" on="0"/>
        <pt x="430" y="214" on="1"/>
        <pt x="430" y="239" on="0"/>
        <pt x="410" y="272" on="0"/>
        <pt x="361" y="296" on="0"/>
        <pt x="317" y="307" on="1"/>
      </contour>
      <contour>
        <pt x="253" y="594" on="1"/>
        <pt x="217" y="592" on="0"/>
        <pt x="171" y="571" on="0"/>
        <pt x="148" y="537" on="0"/>
        <pt x="148" y="515" on="1"/>
        <pt x="148" y="489" on="0"/>
        <pt x="167" y="452" on="0"/>
        <pt x="213" y="427" on="0"/>
        <pt x="253" y="417" on="1"/>
      </contour>
    </TTGlyph>
    <TTGlyph name="dotlessi" xMin="85" yMin="0" xMax="173" yMax="536">
      <contour>
        <pt x="173" y="0" on="1"/>
        <pt x="85" y="0" on="1"/>
        <pt x="85" y="536" on="1"/>
        <pt x="173" y="536" on="1"/>
      </contour>
    </TTGlyph>
    <TTGlyph name="e" xMin="54" yMin="-10" xMax="513" yMax="546">
      <contour>
        <pt x="292" y="546" on="1"/>
        <pt x="361" y="546" on="0"/>
        <pt x="460" y="486" on="0"/>
        <pt x="513" y="377" on="0"/>
        <pt x="513" y="304" on="1"/>
        <pt x="513" y="251" on="1"/>
        <pt x="146" y="251" on="1"/>
        <pt x="148" y="160" on="0"/>
        <pt x="237" y="65" on="0"/>
        <pt x="317" y="65" on="1"/>
        <pt x="368" y="65" on="0"/>
        <pt x="447" y="84" on="0"/>
        <pt x="489" y="102" on="1"/>
        <pt x="489" y="25" on="1"/>
        <pt x="448" y="7" on="0"/>
        <pt x="368" y="-10" on="0"/>
        <pt x="313" y="-10" on="1"/>
        <pt x="237" y="-10" on="0"/>
        <pt x="120" y="52" on="0"/>
        <pt x="55" y="175" on="0"/>
        <pt x="55" y="264" on="1"/>
        <pt x="55" y="352" on="0"/>
        <pt x="114" y="478" on="0"/>
        <pt x="221" y="546" on="0"/>
      </contour>
      <contour>
        <pt x="291" y="474" on="1"/>
        <pt x="228" y="474" on="0"/>
        <pt x="155" y="393" on="0"/>
        <pt x="148" y="321" on="1"/>
        <pt x="421" y="321" on="1"/>
        <pt x="421" y="367" on="0"/>
        <pt x="393" y="435" on="0"/>
        <pt x="336" y="474" on="0"/>
      </contour>
    </TTGlyph>
    <TTGlyph name="eacute" xMin="55" yMin="-10" xMax="513" yMax="766">
      <component glyphName="e" x="0" y="0" flags="0x1204"/>
      <component glyphName="acute" x="192" y="0" flags="0x1004"/>
    </TTGlyph>
    <TTGlyph name="ebreve" xMin="54" yMin="-11" xMax="514" yMax="740">
      <contour>
        <pt x="440" y="740" on="1"/>
        <pt x="437" y="700" on="0"/>
        <pt x="398" y="640" on="0"/>
        <pt x="330" y="606" on="0"/>
        <pt x="282" y="606" on="1"/>
        <pt x="208" y="606" on="0"/>
        <pt x="133" y="679" on="0"/>
        <pt x="129" y="740" on="1"/>
        <pt x="183" y="740" on="1"/>
        <pt x="186" y="713" on="0"/>
        <pt x="211" y="686" on="0"/>
        <pt x="254" y="677" on="0"/>
        <pt x="284" y="677" on="1"/>
        <pt x="310" y="677" on="0"/>
        <pt x="353" y="687" on="0"/>
        <pt x="382" y="714" on="0"/>
        <pt x="385" y="740" on="1"/>
      </contour>
      <contour>
        <pt x="292" y="546" on="1"/>
        <pt x="361" y="546" on="0"/>
        <pt x="460" y="486" on="0"/>
        <pt x="513" y="377" on="0"/>
        <pt x="513" y="304" on="1"/>
        <pt x="513" y="251" on="1"/>
        <pt x="146" y="251" on="1"/>
        <pt x="148" y="160" on="0"/>
        <pt x="237" y="65" on="0"/>
        <pt x="317" y="65" on="1"/>
        <pt x="368" y="65" on="0"/>
        <pt x="447" y="84" on="0"/>
        <pt x="489" y="102" on="1"/>
        <pt x="489" y="25" on="1"/>
        <pt x="448" y="7" on="0"/>
        <pt x="368" y="-10" on="0"/>
        <pt x="313" y="-10" on="1"/>
        <pt x="237" y="-10" on="0"/>
        <pt x="120" y="52" on="0"/>
        <pt x="55" y="175" on="0"/>
        <pt x="55" y="264" on="1"/>
        <pt x="55" y="352" on="0"/>
        <pt x="114" y="478" on="0"/>
        <pt x="221" y="546" on="0"/>
      </contour>
      <contour>
        <pt x="291" y="474" on="1"/>
        <pt x="228" y="474" on="0"/>
        <pt x="155" y="393" on="0"/>
        <pt x="148" y="321" on="1"/>
        <pt x="421" y="321" on="1"/>
        <pt x="421" y="367" on="0"/>
        <pt x="393" y="435" on="0"/>
        <pt x="336" y="474" on="0"/>
      </contour>
    </TTGlyph>
    <TTGlyph name="ecaron" xMin="54" yMin="-11" xMax="514" yMax="766">
      <contour>
        <pt x="239" y="606" on="1"/>
        <pt x="226" y="629" on="0"/>
        <pt x="182" y="682" on="0"/>
        <pt x="134" y="734" on="0"/>
        <pt x="116" y="753" on="1"/>
        <pt x="116" y="766" on="1"/>
        <pt x="176" y="766" on="1"/>
        <pt x="202" y="749" on="0"/>
        <pt x="258" y="701" on="0"/>
        <pt x="283" y="674" on="1"/>
        <pt x="310" y="701" on="0"/>
        <pt x="366" y="749" on="0"/>
        <pt x="392" y="766" on="1"/>
        <pt x="454" y="766" on="1"/>
        <pt x="454" y="753" on="1"/>
        <pt x="435" y="734" on="0"/>
        <pt x="386" y="682" on="0"/>
        <pt x="341" y="629" on="0"/>
        <pt x="329" y="606" on="1"/>
      </contour>
      <contour>
        <pt x="292" y="546" on="1"/>
        <pt x="361" y="546" on="0"/>
        <pt x="460" y="486" on="0"/>
        <pt x="513" y="377" on="0"/>
        <pt x="513" y="304" on="1"/>
        <pt x="513" y="251" on="1"/>
        <pt x="146" y="251" on="1"/>
        <pt x="148" y="160" on="0"/>
        <pt x="237" y="65" on="0"/>
        <pt x="317" y="65" on="1"/>
        <pt x="368" y="65" on="0"/>
        <pt x="447" y="84" on="0"/>
        <pt x="489" y="102" on="1"/>
        <pt x="489" y="25" on="1"/>
        <pt x="448" y="7" on="0"/>
        <pt x="368" y="-10" on="0"/>
        <pt x="313" y="-10" on="1"/>
        <pt x="237" y="-10" on="0"/>
        <pt x="120" y="52" on="0"/>
        <pt x="55" y="175" on="0"/>
        <pt x="55" y="264" on="1"/>
        <pt x="55" y="352" on="0"/>
        <pt x="114" y="478" on="0"/>
        <pt x="221" y="546" on="0"/>
      </contour>
      <contour>
        <pt x="291" y="474" on="1"/>
        <pt x="228" y="474" on="0"/>
        <pt x="155" y="393" on="0"/>
        <pt x="148" y="321" on="1"/>
        <pt x="421" y="321" on="1"/>
        <pt x="421" y="367" on="0"/>
        <pt x="393" y="435" on="0"/>
        <pt x="336" y="474" on="0"/>
      </contour>
    </TTGlyph>
    <TTGlyph name="ecircumflex" xMin="54" yMin="-11" xMax="514" yMax="766">
      <contour>
        <pt x="329" y="766" on="1"/>
        <pt x="341" y="744" on="0"/>
        <pt x="386" y="689" on="0"/>
        <pt x="435" y="636" on="0"/>
        <pt x="454" y="617" on="1"/>
        <pt x="454" y="606" on="1"/>
        <pt x="392" y="606" on="1"/>
        <pt x="366" y="622" on="0"/>
        <pt x="310" y="669" on="0"/>
        <pt x="283" y="696" on="1"/>
        <pt x="256" y="669" on="0"/>
        <pt x="202" y="623" on="0"/>
        <pt x="176" y="606" on="1"/>
        <pt x="116" y="606" on="1"/>
        <pt x="116" y="617" on="1"/>
        <pt x="135" y="637" on="0"/>
        <pt x="182" y="689" on="0"/>
        <pt x="226" y="744" on="0"/>
        <pt x="239" y="766" on="1"/>
      </contour>
      <contour>
        <pt x="292" y="546" on="1"/>
        <pt x="361" y="546" on="0"/>
        <pt x="460" y="486" on="0"/>
        <pt x="513" y="377" on="0"/>
        <pt x="513" y="304" on="1"/>
        <pt x="513" y="251" on="1"/>
        <pt x="146" y="251" on="1"/>
        <pt x="148" y="160" on="0"/>
        <pt x="237" y="65" on="0"/>
        <pt x="317" y="65" on="1"/>
        <pt x="368" y="65" on="0"/>
        <pt x="447" y="84" on="0"/>
        <pt x="489" y="102" on="1"/>
        <pt x="489" y="25" on="1"/>
        <pt x="448" y="7" on="0"/>
        <pt x="368" y="-10" on="0"/>
        <pt x="313" y="-10" on="1"/>
        <pt x="237" y="-10" on="0"/>
        <pt x="120" y="52" on="0"/>
        <pt x="55" y="175" on="0"/>
        <pt x="55" y="264" on="1"/>
        <pt x="55" y="352" on="0"/>
        <pt x="114" y="478" on="0"/>
        <pt x="221" y="546" on="0"/>
      </contour>
      <contour>
        <pt x="291" y="474" on="1"/>
        <pt x="228" y="474" on="0"/>
        <pt x="155" y="393" on="0"/>
        <pt x="148" y="321" on="1"/>
        <pt x="421" y="321" on="1"/>
        <pt x="421" y="367" on="0"/>
        <pt x="393" y="435" on="0"/>
        <pt x="336" y="474" on="0"/>
      </contour>
    </TTGlyph>
    <TTGlyph name="edieresis" xMin="55" yMin="-10" xMax="513" yMax="730">
      <component glyphName="e" x="0" y="0" flags="0x1204"/>
      <component glyphName="dieresis" x="-4" y="0" flags="0x1004"/>
    </TTGlyph>
    <TTGlyph name="edotaccent" xMin="54" yMin="-11" xMax="514" yMax="737">
      <contour>
        <pt x="286" y="737" on="1"/>
        <pt x="306" y="737" on="0"/>
        <pt x="337" y="710" on="0"/>
        <pt x="337" y="681" on="1"/>
        <pt x="337" y="653" on="0"/>
        <pt x="306" y="625" on="0"/>
        <pt x="286" y="625" on="1"/>
        <pt x="264" y="625" on="0"/>
        <pt x="234" y="653" on="0"/>
        <pt x="234" y="681" on="1"/>
        <pt x="234" y="710" on="0"/>
        <pt x="264" y="737" on="0"/>
      </contour>
      <contour>
        <pt x="292" y="546" on="1"/>
        <pt x="361" y="546" on="0"/>
        <pt x="460" y="486" on="0"/>
        <pt x="513" y="377" on="0"/>
        <pt x="513" y="304" on="1"/>
        <pt x="513" y="251" on="1"/>
        <pt x="146" y="251" on="1"/>
        <pt x="148" y="160" on="0"/>
        <pt x="237" y="65" on="0"/>
        <pt x="317" y="65" on="1"/>
        <pt x="368" y="65" on="0"/>
        <pt x="447" y="84" on="0"/>
        <pt x="489" y="102" on="1"/>
        <pt x="489" y="25" on="1"/>
        <pt x="448" y="7" on="0"/>
        <pt x="368" y="-10" on="0"/>
        <pt x="313" y="-10" on="1"/>
        <pt x="237" y="-10" on="0"/>
        <pt x="120" y="52" on="0"/>
        <pt x="55" y="175" on="0"/>
        <pt x="55" y="264" on="1"/>
        <pt x="55" y="352" on="0"/>
        <pt x="114" y="478" on="0"/>
        <pt x="221" y="546" on="0"/>
      </contour>
      <contour>
        <pt x="291" y="474" on="1"/>
        <pt x="228" y="474" on="0"/>
        <pt x="155" y="393" on="0"/>
        <pt x="148" y="321" on="1"/>
        <pt x="421" y="321" on="1"/>
        <pt x="421" y="367" on="0"/>
        <pt x="393" y="435" on="0"/>
        <pt x="336" y="474" on="0"/>
      </contour>
    </TTGlyph>
    <TTGlyph name="egrave" xMin="55" yMin="-10" xMax="513" yMax="766">
      <component glyphName="e" x="0" y="0" flags="0x1204"/>
      <component glyphName="grave" x="115" y="0" flags="0x1004"/>
    </TTGlyph>
    <TTGlyph name="eight" xMin="49" yMin="-10" xMax="522" yMax="724">
      <contour>
        <pt x="285" y="724" on="1"/>
        <pt x="348" y="724" on="0"/>
        <pt x="444" y="685" on="0"/>
        <pt x="499" y="609" on="0"/>
        <pt x="499" y="553" on="1"/>
        <pt x="499" y="510" on="0"/>
        <pt x="462" y="446" on="0"/>
        <pt x="400" y="397" on="0"/>
        <pt x="363" y="378" on="1"/>
        <pt x="407" y="357" on="0"/>
        <pt x="479" y="304" on="0"/>
        <pt x="522" y="234" on="0"/>
        <pt x="522" y="185" on="1"/>
        <pt x="522" y="125" on="0"/>
        <pt x="464" y="38" on="0"/>
        <pt x="359" y="-10" on="0"/>
        <pt x="288" y="-10" on="1"/>
        <pt x="211" y="-10" on="0"/>
        <pt x="104" y="36" on="0"/>
        <pt x="49" y="121" on="0"/>
        <pt x="49" y="182" on="1"/>
        <pt x="49" y="231" on="0"/>
        <pt x="90" y="303" on="0"/>
        <pt x="158" y="355" on="0"/>
        <pt x="197" y="373" on="1"/>
        <pt x="162" y="393" on="0"/>
        <pt x="105" y="444" on="0"/>
        <pt x="72" y="510" on="0"/>
        <pt x="72" y="554" on="1"/>
        <pt x="72" y="609" on="0"/>
        <pt x="128" y="684" on="0"/>
        <pt x="224" y="724" on="0"/>
      </contour>
      <contour>
        <pt x="135" y="181" on="1"/>
        <pt x="135" y="129" on="0"/>
        <pt x="209" y="60" on="0"/>
        <pt x="286" y="60" on="1"/>
        <pt x="359" y="60" on="0"/>
        <pt x="436" y="129" on="0"/>
        <pt x="436" y="184" on="1"/>
        <pt x="436" y="219" on="0"/>
        <pt x="399" y="272" on="0"/>
        <pt x="332" y="314" on="0"/>
        <pt x="286" y="331" on="1"/>
        <pt x="270" y="337" on="1"/>
        <pt x="226" y="318" on="0"/>
        <pt x="166" y="274" on="0"/>
        <pt x="135" y="218" on="0"/>
      </contour>
      <contour>
        <pt x="284" y="653" on="1"/>
        <pt x="229" y="653" on="0"/>
        <pt x="158" y="600" on="0"/>
        <pt x="158" y="550" on="1"/>
        <pt x="158" y="513" on="0"/>
        <pt x="193" y="463" on="0"/>
        <pt x="253" y="428" on="0"/>
        <pt x="289" y="412" on="1"/>
        <pt x="324" y="427" on="0"/>
        <pt x="379" y="463" on="0"/>
        <pt x="412" y="514" on="0"/>
        <pt x="412" y="550" on="1"/>
        <pt x="412" y="600" on="0"/>
        <pt x="342" y="653" on="0"/>
      </contour>
    </TTGlyph>
    <TTGlyph name="emacron" xMin="54" yMin="-11" xMax="514" yMax="677">
      <contour>
        <pt x="433" y="677" on="1"/>
        <pt x="433" y="606" on="1"/>
        <pt x="136" y="606" on="1"/>
        <pt x="136" y="677" on="1"/>
      </contour>
      <contour>
        <pt x="292" y="546" on="1"/>
        <pt x="361" y="546" on="0"/>
        <pt x="460" y="486" on="0"/>
        <pt x="513" y="377" on="0"/>
        <pt x="513" y="304" on="1"/>
        <pt x="513" y="251" on="1"/>
        <pt x="146" y="251" on="1"/>
        <pt x="148" y="160" on="0"/>
        <pt x="237" y="65" on="0"/>
        <pt x="317" y="65" on="1"/>
        <pt x="368" y="65" on="0"/>
        <pt x="447" y="84" on="0"/>
        <pt x="489" y="102" on="1"/>
        <pt x="489" y="25" on="1"/>
        <pt x="448" y="7" on="0"/>
        <pt x="368" y="-10" on="0"/>
        <pt x="313" y="-10" on="1"/>
        <pt x="237" y="-10" on="0"/>
        <pt x="120" y="52" on="0"/>
        <pt x="55" y="175" on="0"/>
        <pt x="55" y="264" on="1"/>
        <pt x="55" y="352" on="0"/>
        <pt x="114" y="478" on="0"/>
        <pt x="221" y="546" on="0"/>
      </contour>
      <contour>
        <pt x="291" y="474" on="1"/>
        <pt x="228" y="474" on="0"/>
        <pt x="155" y="393" on="0"/>
        <pt x="148" y="321" on="1"/>
        <pt x="421" y="321" on="1"/>
        <pt x="421" y="367" on="0"/>
        <pt x="393" y="435" on="0"/>
        <pt x="336" y="474" on="0"/>
      </contour>
    </TTGlyph>
    <TTGlyph name="eng" xMin="85" yMin="-240" xMax="538" yMax="546">
      <contour>
        <pt x="394" y="-240" on="1"/>
        <pt x="370" y="-240" on="0"/>
        <pt x="336" y="-233" on="0"/>
        <pt x="323" y="-228" on="1"/>
        <pt x="323" y="-157" on="1"/>
        <pt x="337" y="-161" on="0"/>
        <pt x="365" y="-167" on="0"/>
        <pt x="383" y="-167" on="1"/>
        <pt x="412" y="-167" on="0"/>
        <pt x="450" y="-132" on="0"/>
        <pt x="450" y="-83" on="1"/>
        <pt x="450" y="344" on="1"/>
        <pt x="450" y="409" on="0"/>
        <pt x="392" y="472" on="0"/>
        <pt x="331" y="472" on="1"/>
        <pt x="272" y="472" on="0"/>
        <pt x="202" y="428" on="0"/>
        <pt x="173" y="342" on="0"/>
        <pt x="173" y="279" on="1"/>
        <pt x="173" y="0" on="1"/>
        <pt x="85" y="0" on="1"/>
        <pt x="85" y="536" on="1"/>
        <pt x="156" y="536" on="1"/>
        <pt x="170" y="463" on="1"/>
        <pt x="175" y="463" on="1"/>
        <pt x="193" y="491" on="0"/>
        <pt x="244" y="528" on="0"/>
        <pt x="308" y="546" on="0"/>
        <pt x="342" y="546" on="1"/>
        <pt x="408" y="546" on="0"/>
        <pt x="495" y="505" on="0"/>
        <pt x="538" y="419" on="0"/>
        <pt x="538" y="350" on="1"/>
        <pt x="538" y="-80" on="1"/>
        <pt x="538" y="-130" on="0"/>
        <pt x="507" y="-202" on="0"/>
        <pt x="444" y="-240" on="0"/>
      </contour>
    </TTGlyph>
    <TTGlyph name="eogonek" xMin="54" yMin="-220" xMax="513" yMax="546">
      <contour>
        <pt x="389" y="-116" on="1"/>
        <pt x="389" y="-138" on="0"/>
        <pt x="413" y="-161" on="0"/>
        <pt x="434" y="-161" on="1"/>
        <pt x="451" y="-161" on="0"/>
        <pt x="474" y="-156" on="0"/>
        <pt x="482" y="-155" on="1"/>
        <pt x="482" y="-211" on="1"/>
        <pt x="468" y="-215" on="0"/>
        <pt x="440" y="-220" on="0"/>
        <pt x="420" y="-220" on="1"/>
        <pt x="367" y="-220" on="0"/>
        <pt x="317" y="-170" on="0"/>
        <pt x="317" y="-126" on="1"/>
        <pt x="317" y="-97" on="0"/>
        <pt x="346" y="-43" on="0"/>
        <pt x="389" y="1" on="0"/>
        <pt x="409" y="15" on="1"/>
        <pt x="489" y="25" on="1"/>
        <pt x="449" y="-7" on="0"/>
        <pt x="405" y="-55" on="0"/>
        <pt x="389" y="-95" on="0"/>
      </contour>
      <contour>
        <pt x="292" y="546" on="1"/>
        <pt x="361" y="546" on="0"/>
        <pt x="460" y="486" on="0"/>
        <pt x="513" y="377" on="0"/>
        <pt x="513" y="304" on="1"/>
        <pt x="513" y="251" on="1"/>
        <pt x="146" y="251" on="1"/>
        <pt x="148" y="160" on="0"/>
        <pt x="237" y="65" on="0"/>
        <pt x="317" y="65" on="1"/>
        <pt x="368" y="65" on="0"/>
        <pt x="447" y="84" on="0"/>
        <pt x="489" y="102" on="1"/>
        <pt x="489" y="25" on="1"/>
        <pt x="448" y="7" on="0"/>
        <pt x="368" y="-10" on="0"/>
        <pt x="313" y="-10" on="1"/>
        <pt x="237" y="-10" on="0"/>
        <pt x="120" y="52" on="0"/>
        <pt x="55" y="175" on="0"/>
        <pt x="55" y="264" on="1"/>
        <pt x="55" y="352" on="0"/>
        <pt x="114" y="478" on="0"/>
        <pt x="221" y="546" on="0"/>
      </contour>
      <contour>
        <pt x="291" y="474" on="1"/>
        <pt x="228" y="474" on="0"/>
        <pt x="155" y="393" on="0"/>
        <pt x="148" y="321" on="1"/>
        <pt x="421" y="321" on="1"/>
        <pt x="421" y="367" on="0"/>
        <pt x="393" y="435" on="0"/>
        <pt x="336" y="474" on="0"/>
      </contour>
    </TTGlyph>
    <TTGlyph name="equal" xMin="56" yMin="217" xMax="514" yMax="487">
      <contour>
        <pt x="56" y="416" on="1"/>
        <pt x="56" y="487" on="1"/>
        <pt x="514" y="487" on="1"/>
        <pt x="514" y="416" on="1"/>
      </contour>
      <contour>
        <pt x="56" y="217" on="1"/>
        <pt x="56" y="288" on="1"/>
        <pt x="514" y="288" on="1"/>
        <pt x="514" y="217" on="1"/>
      </contour>
    </TTGlyph>
    <TTGlyph name="eth" xMin="55" yMin="-10" xMax="551" yMax="765">
      <contour>
        <pt x="216" y="765" on="1"/>
        <pt x="248" y="750" on="0"/>
        <pt x="313" y="714" on="0"/>
        <pt x="342" y="693" on="1"/>
        <pt x="457" y="760" on="1"/>
        <pt x="495" y="706" on="1"/>
        <pt x="396" y="649" on="1"/>
        <pt x="442" y="607" on="0"/>
        <pt x="511" y="494" on="0"/>
        <pt x="551" y="356" on="0"/>
        <pt x="551" y="275" on="1"/>
        <pt x="551" y="180" on="0"/>
        <pt x="491" y="53" on="0"/>
        <pt x="379" y="-10" on="0"/>
        <pt x="301" y="-10" on="1"/>
        <pt x="229" y="-10" on="0"/>
        <pt x="118" y="49" on="0"/>
        <pt x="55" y="158" on="0"/>
        <pt x="55" y="233" on="1"/>
        <pt x="55" y="308" on="0"/>
        <pt x="113" y="415" on="0"/>
        <pt x="218" y="473" on="0"/>
        <pt x="290" y="473" on="1"/>
        <pt x="325" y="473" on="0"/>
        <pt x="384" y="461" on="0"/>
        <pt x="430" y="435" on="0"/>
        <pt x="446" y="415" on="1"/>
        <pt x="450" y="417" on="1"/>
        <pt x="434" y="474" on="0"/>
        <pt x="368" y="570" on="0"/>
        <pt x="326" y="608" on="1"/>
        <pt x="196" y="533" on="1"/>
        <pt x="158" y="588" on="1"/>
        <pt x="270" y="652" on="1"/>
        <pt x="249" y="666" on="0"/>
        <pt x="203" y="693" on="0"/>
        <pt x="180" y="705" on="1"/>
      </contour>
      <contour>
        <pt x="303" y="402" on="1"/>
        <pt x="247" y="402" on="0"/>
        <pt x="177" y="362" on="0"/>
        <pt x="144" y="286" on="0"/>
        <pt x="144" y="230" on="1"/>
        <pt x="144" y="181" on="0"/>
        <pt x="177" y="105" on="0"/>
        <pt x="248" y="62" on="0"/>
        <pt x="303" y="62" on="1"/>
        <pt x="386" y="62" on="0"/>
        <pt x="462" y="159" on="0"/>
        <pt x="462" y="251" on="1"/>
        <pt x="462" y="282" on="0"/>
        <pt x="443" y="337" on="0"/>
        <pt x="403" y="378" on="0"/>
        <pt x="344" y="402" on="0"/>
      </contour>
    </TTGlyph>
    <TTGlyph name="exclam" xMin="72" yMin="-14" xMax="196" yMax="714">
      <contour>
        <pt x="163" y="201" on="1"/>
        <pt x="106" y="201" on="1"/>
        <pt x="81" y="714" on="1"/>
        <pt x="188" y="714" on="1"/>
      </contour>
      <contour>
        <pt x="72" y="54" on="1"/>
        <pt x="72" y="91" on="0"/>
        <pt x="108" y="121" on="0"/>
        <pt x="134" y="121" on="1"/>
        <pt x="159" y="121" on="0"/>
        <pt x="196" y="91" on="0"/>
        <pt x="196" y="54" on="1"/>
        <pt x="196" y="18" on="0"/>
        <pt x="159" y="-14" on="0"/>
        <pt x="134" y="-14" on="1"/>
        <pt x="108" y="-14" on="0"/>
        <pt x="72" y="18" on="0"/>
      </contour>
    </TTGlyph>
    <TTGlyph name="exclamdown" xMin="72" yMin="-182" xMax="196" yMax="546">
      <contour>
        <pt x="104" y="330" on="1"/>
        <pt x="162" y="330" on="1"/>
        <pt x="187" y="-182" on="1"/>
        <pt x="79" y="-182" on="1"/>
      </contour>
      <contour>
        <pt x="196" y="478" on="1"/>
        <pt x="196" y="441" on="0"/>
        <pt x="160" y="411" on="0"/>
        <pt x="134" y="411" on="1"/>
        <pt x="109" y="411" on="0"/>
        <pt x="72" y="441" on="0"/>
        <pt x="72" y="478" on="1"/>
        <pt x="72" y="514" on="0"/>
        <pt x="109" y="546" on="0"/>
        <pt x="134" y="546" on="1"/>
        <pt x="160" y="546" on="0"/>
        <pt x="196" y="514" on="0"/>
      </contour>
    </TTGlyph>
    <TTGlyph name="f" xMin="15" yMin="0" xMax="387" yMax="765">
      <contour>
        <pt x="332" y="468" on="1"/>
        <pt x="197" y="468" on="1"/>
        <pt x="197" y="0" on="1"/>
        <pt x="109" y="0" on="1"/>
        <pt x="109" y="468" on="1"/>
        <pt x="15" y="468" on="1"/>
        <pt x="15" y="509" on="1"/>
        <pt x="109" y="539" on="1"/>
        <pt x="109" y="570" on="1"/>
        <pt x="109" y="639" on="0"/>
        <pt x="150" y="725" on="0"/>
        <pt x="228" y="765" on="0"/>
        <pt x="283" y="765" on="1"/>
        <pt x="315" y="765" on="0"/>
        <pt x="368" y="754" on="0"/>
        <pt x="387" y="747" on="1"/>
        <pt x="364" y="678" on="1"/>
        <pt x="348" y="683" on="0"/>
        <pt x="306" y="693" on="0"/>
        <pt x="284" y="693" on="1"/>
        <pt x="240" y="693" on="0"/>
        <pt x="197" y="634" on="0"/>
        <pt x="197" y="571" on="1"/>
        <pt x="197" y="536" on="1"/>
        <pt x="332" y="536" on="1"/>
      </contour>
    </TTGlyph>
    <TTGlyph name="five" xMin="63" yMin="-10" xMax="515" yMax="714">
      <contour>
        <pt x="275" y="438" on="1"/>
        <pt x="348" y="438" on="0"/>
        <pt x="456" y="388" on="0"/>
        <pt x="515" y="295" on="0"/>
        <pt x="515" y="228" on="1"/>
        <pt x="515" y="154" on="0"/>
        <pt x="451" y="47" on="0"/>
        <pt x="332" y="-10" on="0"/>
        <pt x="248" y="-10" on="1"/>
        <pt x="193" y="-10" on="0"/>
        <pt x="96" y="10" on="0"/>
        <pt x="63" y="29" on="1"/>
        <pt x="63" y="112" on="1"/>
        <pt x="99" y="90" on="0"/>
        <pt x="202" y="65" on="0"/>
        <pt x="249" y="65" on="1"/>
        <pt x="302" y="65" on="0"/>
        <pt x="381" y="98" on="0"/>
        <pt x="425" y="167" on="0"/>
        <pt x="425" y="219" on="1"/>
        <pt x="425" y="289" on="0"/>
        <pt x="339" y="364" on="0"/>
        <pt x="246" y="364" on="1"/>
        <pt x="218" y="364" on="0"/>
        <pt x="146" y="354" on="0"/>
        <pt x="124" y="349" on="1"/>
        <pt x="80" y="377" on="1"/>
        <pt x="107" y="714" on="1"/>
        <pt x="465" y="714" on="1"/>
        <pt x="465" y="634" on="1"/>
        <pt x="182" y="634" on="1"/>
        <pt x="165" y="427" on="1"/>
        <pt x="182" y="430" on="0"/>
        <pt x="240" y="438" on="0"/>
      </contour>
    </TTGlyph>
    <TTGlyph name="florin" xMin="-13" yMin="-242" xMax="457" yMax="765">
      <contour>
        <pt x="130" y="-242" on="1"/>
        <pt x="66" y="-242" on="0"/>
        <pt x="-13" y="-172" on="0"/>
        <pt x="-13" y="-113" on="1"/>
        <pt x="-13" y="-103" on="0"/>
        <pt x="-11" y="-81" on="0"/>
        <pt x="-8" y="-70" on="1"/>
        <pt x="67" y="-86" on="1"/>
        <pt x="66" y="-90" on="0"/>
        <pt x="65" y="-101" on="0"/>
        <pt x="65" y="-107" on="1"/>
        <pt x="65" y="-138" on="0"/>
        <pt x="98" y="-169" on="0"/>
        <pt x="120" y="-169" on="1"/>
        <pt x="148" y="-169" on="0"/>
        <pt x="179" y="-131" on="0"/>
        <pt x="179" y="-82" on="1"/>
        <pt x="179" y="468" on="1"/>
        <pt x="85" y="468" on="1"/>
        <pt x="85" y="509" on="1"/>
        <pt x="179" y="539" on="1"/>
        <pt x="179" y="570" on="1"/>
        <pt x="179" y="639" on="0"/>
        <pt x="220" y="725" on="0"/>
        <pt x="298" y="765" on="0"/>
        <pt x="353" y="765" on="1"/>
        <pt x="385" y="765" on="0"/>
        <pt x="438" y="754" on="0"/>
        <pt x="457" y="747" on="1"/>
        <pt x="434" y="678" on="1"/>
        <pt x="418" y="683" on="0"/>
        <pt x="376" y="693" on="0"/>
        <pt x="354" y="693" on="1"/>
        <pt x="310" y="693" on="0"/>
        <pt x="267" y="634" on="0"/>
        <pt x="267" y="571" on="1"/>
        <pt x="267" y="536" on="1"/>
        <pt x="402" y="536" on="1"/>
        <pt x="402" y="468" on="1"/>
        <pt x="267" y="468" on="1"/>
        <pt x="267" y="-79" on="1"/>
        <pt x="267" y="-130" on="0"/>
        <pt x="237" y="-203" on="0"/>
        <pt x="177" y="-242" on="0"/>
      </contour>
    </TTGlyph>
    <TTGlyph name="four" xMin="21" yMin="0" xMax="552" yMax="718">
      <contour>
        <pt x="552" y="162" on="1"/>
        <pt x="448" y="162" on="1"/>
        <pt x="448" y="0" on="1"/>
        <pt x="363" y="0" on="1"/>
        <pt x="363" y="162" on="1"/>
        <pt x="21" y="162" on="1"/>
        <pt x="21" y="237" on="1"/>
        <pt x="357" y="718" on="1"/>
        <pt x="448" y="718" on="1"/>
        <pt x="448" y="241" on="1"/>
        <pt x="552" y="241" on="1"/>
      </contour>
      <contour>
        <pt x="363" y="466" on="1"/>
        <pt x="363" y="492" on="0"/>
        <pt x="364" y="535" on="0"/>
        <pt x="366" y="573" on="0"/>
        <pt x="367" y="608" on="0"/>
        <pt x="368" y="624" on="1"/>
        <pt x="364" y="624" on="1"/>
        <pt x="356" y="605" on="0"/>
        <pt x="332" y="561" on="0"/>
        <pt x="321" y="546" on="1"/>
        <pt x="107" y="241" on="1"/>
        <pt x="363" y="241" on="1"/>
      </contour>
    </TTGlyph>
    <TTGlyph name="g" xMin="55" yMin="-240" xMax="530" yMax="546">
      <contour>
        <pt x="275" y="546" on="1"/>
        <pt x="328" y="546" on="0"/>
        <pt x="413" y="506" on="0"/>
        <pt x="443" y="465" on="1"/>
        <pt x="448" y="465" on="1"/>
        <pt x="460" y="536" on="1"/>
        <pt x="530" y="536" on="1"/>
        <pt x="530" y="-9" on="1"/>
        <pt x="530" y="-85" on="0"/>
        <pt x="478" y="-188" on="0"/>
        <pt x="372" y="-240" on="0"/>
        <pt x="290" y="-240" on="1"/>
        <pt x="232" y="-240" on="0"/>
        <pt x="135" y="-223" on="0"/>
        <pt x="97" y="-206" on="1"/>
        <pt x="97" y="-125" on="1"/>
        <pt x="135" y="-145" on="0"/>
        <pt x="237" y="-167" on="0"/>
        <pt x="295" y="-167" on="1"/>
        <pt x="364" y="-167" on="0"/>
        <pt x="443" y="-86" on="0"/>
        <pt x="443" y="-16" on="1"/>
        <pt x="443" y="5" on="1"/>
        <pt x="443" y="17" on="0"/>
        <pt x="445" y="62" on="0"/>
        <pt x="446" y="71" on="1"/>
        <pt x="442" y="71" on="1"/>
        <pt x="414" y="30" on="0"/>
        <pt x="331" y="-10" on="0"/>
        <pt x="276" y="-10" on="1"/>
        <pt x="172" y="-10" on="0"/>
        <pt x="55" y="136" on="0"/>
        <pt x="55" y="267" on="1"/>
        <pt x="55" y="395" on="0"/>
        <pt x="172" y="546" on="0"/>
      </contour>
      <contour>
        <pt x="287" y="472" on="1"/>
        <pt x="242" y="472" on="0"/>
        <pt x="179" y="424" on="0"/>
        <pt x="146" y="332" on="0"/>
        <pt x="146" y="266" on="1"/>
        <pt x="146" y="167" on="0"/>
        <pt x="219" y="62" on="0"/>
        <pt x="289" y="62" on="1"/>
        <pt x="330" y="62" on="0"/>
        <pt x="388" y="83" on="0"/>
        <pt x="426" y="128" on="0"/>
        <pt x="444" y="198" on="0"/>
        <pt x="444" y="246" on="1"/>
        <pt x="444" y="267" on="1"/>
        <pt x="444" y="340" on="0"/>
        <pt x="411" y="430" on="0"/>
        <pt x="341" y="472" on="0"/>
      </contour>
    </TTGlyph>
    <TTGlyph name="gbreve" xMin="55" yMin="-240" xMax="530" yMax="740">
      <contour>
        <pt x="452" y="740" on="1"/>
        <pt x="449" y="700" on="0"/>
        <pt x="410" y="640" on="0"/>
        <pt x="342" y="606" on="0"/>
        <pt x="294" y="606" on="1"/>
        <pt x="220" y="606" on="0"/>
        <pt x="145" y="679" on="0"/>
        <pt x="141" y="740" on="1"/>
        <pt x="195" y="740" on="1"/>
        <pt x="198" y="713" on="0"/>
        <pt x="223" y="686" on="0"/>
        <pt x="266" y="677" on="0"/>
        <pt x="296" y="677" on="1"/>
        <pt x="322" y="677" on="0"/>
        <pt x="365" y="687" on="0"/>
        <pt x="394" y="714" on="0"/>
        <pt x="397" y="740" on="1"/>
      </contour>
      <contour>
        <pt x="275" y="546" on="1"/>
        <pt x="328" y="546" on="0"/>
        <pt x="413" y="506" on="0"/>
        <pt x="443" y="465" on="1"/>
        <pt x="448" y="465" on="1"/>
        <pt x="460" y="536" on="1"/>
        <pt x="530" y="536" on="1"/>
        <pt x="530" y="-9" on="1"/>
        <pt x="530" y="-85" on="0"/>
        <pt x="478" y="-188" on="0"/>
        <pt x="372" y="-240" on="0"/>
        <pt x="290" y="-240" on="1"/>
        <pt x="232" y="-240" on="0"/>
        <pt x="135" y="-223" on="0"/>
        <pt x="97" y="-206" on="1"/>
        <pt x="97" y="-125" on="1"/>
        <pt x="135" y="-145" on="0"/>
        <pt x="237" y="-167" on="0"/>
        <pt x="295" y="-167" on="1"/>
        <pt x="364" y="-167" on="0"/>
        <pt x="443" y="-86" on="0"/>
        <pt x="443" y="-16" on="1"/>
        <pt x="443" y="5" on="1"/>
        <pt x="443" y="17" on="0"/>
        <pt x="445" y="62" on="0"/>
        <pt x="446" y="71" on="1"/>
        <pt x="442" y="71" on="1"/>
        <pt x="414" y="30" on="0"/>
        <pt x="331" y="-10" on="0"/>
        <pt x="276" y="-10" on="1"/>
        <pt x="172" y="-10" on="0"/>
        <pt x="55" y="136" on="0"/>
        <pt x="55" y="267" on="1"/>
        <pt x="55" y="395" on="0"/>
        <pt x="172" y="546" on="0"/>
      </contour>
      <contour>
        <pt x="287" y="472" on="1"/>
        <pt x="242" y="472" on="0"/>
        <pt x="179" y="424" on="0"/>
        <pt x="146" y="332" on="0"/>
        <pt x="146" y="266" on="1"/>
        <pt x="146" y="167" on="0"/>
        <pt x="219" y="62" on="0"/>
        <pt x="289" y="62" on="1"/>
        <pt x="330" y="62" on="0"/>
        <pt x="388" y="83" on="0"/>
        <pt x="426" y="128" on="0"/>
        <pt x="444" y="198" on="0"/>
        <pt x="444" y="246" on="1"/>
        <pt x="444" y="267" on="1"/>
        <pt x="444" y="340" on="0"/>
        <pt x="411" y="430" on="0"/>
        <pt x="341" y="472" on="0"/>
      </contour>
    </TTGlyph>
    <TTGlyph name="gcaron" xMin="55" yMin="-240" xMax="530" yMax="546">
      <component glyphName="g" x="0" y="0" flags="0x1204"/>
    </TTGlyph>
    <TTGlyph name="gcircumflex" xMin="55" yMin="-240" xMax="530" yMax="766">
      <contour>
        <pt x="341" y="766" on="1"/>
        <pt x="353" y="744" on="0"/>
        <pt x="398" y="689" on="0"/>
        <pt x="447" y="636" on="0"/>
        <pt x="466" y="617" on="1"/>
        <pt x="466" y="606" on="1"/>
        <pt x="404" y="606" on="1"/>
        <pt x="378" y="622" on="0"/>
        <pt x="322" y="669" on="0"/>
        <pt x="295" y="696" on="1"/>
        <pt x="268" y="669" on="0"/>
        <pt x="214" y="623" on="0"/>
        <pt x="188" y="606" on="1"/>
        <pt x="128" y="606" on="1"/>
        <pt x="128" y="617" on="1"/>
        <pt x="147" y="637" on="0"/>
        <pt x="194" y="689" on="0"/>
        <pt x="238" y="744" on="0"/>
        <pt x="251" y="766" on="1"/>
      </contour>
      <contour>
        <pt x="275" y="546" on="1"/>
        <pt x="328" y="546" on="0"/>
        <pt x="413" y="506" on="0"/>
        <pt x="443" y="465" on="1"/>
        <pt x="448" y="465" on="1"/>
        <pt x="460" y="536" on="1"/>
        <pt x="530" y="536" on="1"/>
        <pt x="530" y="-9" on="1"/>
        <pt x="530" y="-85" on="0"/>
        <pt x="478" y="-188" on="0"/>
        <pt x="372" y="-240" on="0"/>
        <pt x="290" y="-240" on="1"/>
        <pt x="232" y="-240" on="0"/>
        <pt x="135" y="-223" on="0"/>
        <pt x="97" y="-206" on="1"/>
        <pt x="97" y="-125" on="1"/>
        <pt x="135" y="-145" on="0"/>
        <pt x="237" y="-167" on="0"/>
        <pt x="295" y="-167" on="1"/>
        <pt x="364" y="-167" on="0"/>
        <pt x="443" y="-86" on="0"/>
        <pt x="443" y="-16" on="1"/>
        <pt x="443" y="5" on="1"/>
        <pt x="443" y="17" on="0"/>
        <pt x="445" y="62" on="0"/>
        <pt x="446" y="71" on="1"/>
        <pt x="442" y="71" on="1"/>
        <pt x="414" y="30" on="0"/>
        <pt x="331" y="-10" on="0"/>
        <pt x="276" y="-10" on="1"/>
        <pt x="172" y="-10" on="0"/>
        <pt x="55" y="136" on="0"/>
        <pt x="55" y="267" on="1"/>
        <pt x="55" y="395" on="0"/>
        <pt x="172" y="546" on="0"/>
      </contour>
      <contour>
        <pt x="287" y="472" on="1"/>
        <pt x="242" y="472" on="0"/>
        <pt x="179" y="424" on="0"/>
        <pt x="146" y="332" on="0"/>
        <pt x="146" y="266" on="1"/>
        <pt x="146" y="167" on="0"/>
        <pt x="219" y="62" on="0"/>
        <pt x="289" y="62" on="1"/>
        <pt x="330" y="62" on="0"/>
        <pt x="388" y="83" on="0"/>
        <pt x="426" y="128" on="0"/>
        <pt x="444" y="198" on="0"/>
        <pt x="444" y="246" on="1"/>
        <pt x="444" y="267" on="1"/>
        <pt x="444" y="340" on="0"/>
        <pt x="411" y="430" on="0"/>
        <pt x="341" y="472" on="0"/>
      </contour>
    </TTGlyph>
    <TTGlyph name="gdotaccent" xMin="55" yMin="-240" xMax="530" yMax="546">
      <component glyphName="g" x="0" y="0" flags="0x1204"/>
    </TTGlyph>
    <TTGlyph name="germandbls" xMin="85" yMin="-10" xMax="586" yMax="765">
      <contour>
        <pt x="522" y="617" on="1"/>
        <pt x="522" y="583" on="0"/>
        <pt x="494" y="532" on="0"/>
        <pt x="452" y="493" on="0"/>
        <pt x="410" y="461" on="0"/>
        <pt x="382" y="430" on="0"/>
        <pt x="382" y="412" on="1"/>
        <pt x="382" y="399" on="0"/>
        <pt x="395" y="377" on="0"/>
        <pt x="433" y="348" on="0"/>
        <pt x="470" y="323" on="1"/>
        <pt x="506" y="299" on="0"/>
        <pt x="558" y="251" on="0"/>
        <pt x="586" y="193" on="0"/>
        <pt x="586" y="153" on="1"/>
        <pt x="586" y="96" on="0"/>
        <pt x="539" y="24" on="0"/>
        <pt x="455" y="-10" on="0"/>
        <pt x="400" y="-10" on="1"/>
        <pt x="353" y="-10" on="0"/>
        <pt x="281" y="8" on="0"/>
        <pt x="255" y="24" on="1"/>
        <pt x="255" y="103" on="1"/>
        <pt x="272" y="93" on="0"/>
        <pt x="318" y="73" on="0"/>
        <pt x="371" y="61" on="0"/>
        <pt x="397" y="61" on="1"/>
        <pt x="452" y="61" on="0"/>
        <pt x="500" y="107" on="0"/>
        <pt x="500" y="147" on="1"/>
        <pt x="500" y="171" on="0"/>
        <pt x="483" y="208" on="0"/>
        <pt x="442" y="244" on="0"/>
        <pt x="406" y="267" on="1"/>
        <pt x="364" y="294" on="0"/>
        <pt x="317" y="337" on="0"/>
        <pt x="297" y="381" on="0"/>
        <pt x="297" y="407" on="1"/>
        <pt x="297" y="438" on="0"/>
        <pt x="324" y="482" on="0"/>
        <pt x="365" y="515" on="0"/>
        <pt x="406" y="547" on="0"/>
        <pt x="433" y="585" on="0"/>
        <pt x="433" y="612" on="1"/>
        <pt x="433" y="654" on="0"/>
        <pt x="362" y="692" on="0"/>
        <pt x="306" y="692" on="1"/>
        <pt x="271" y="692" on="0"/>
        <pt x="210" y="673" on="0"/>
        <pt x="173" y="627" on="0"/>
        <pt x="173" y="584" on="1"/>
        <pt x="173" y="0" on="1"/>
        <pt x="85" y="0" on="1"/>
        <pt x="85" y="584" on="1"/>
        <pt x="85" y="651" on="0"/>
        <pt x="143" y="730" on="0"/>
        <pt x="243" y="765" on="0"/>
        <pt x="306" y="765" on="1"/>
        <pt x="371" y="765" on="0"/>
        <pt x="468" y="732" on="0"/>
        <pt x="522" y="667" on="0"/>
      </contour>
    </TTGlyph>
    <TTGlyph name="grave" xMin="40" yMin="606" xMax="241" yMax="766">
      <contour>
        <pt x="145" y="766" on="1"/>
        <pt x="156" y="744" on="0"/>
        <pt x="189" y="689" on="0"/>
        <pt x="226" y="637" on="0"/>
        <pt x="241" y="618" on="1"/>
        <pt x="241" y="606" on="1"/>
        <pt x="182" y="606" on="1"/>
        <pt x="165" y="620" on="0"/>
        <pt x="123" y="659" on="0"/>
        <pt x="82" y="702" on="0"/>
        <pt x="49" y="742" on="0"/>
        <pt x="40" y="756" on="1"/>
        <pt x="40" y="766" on="1"/>
      </contour>
    </TTGlyph>
    <TTGlyph name="greater" xMin="50" yMin="116" xMax="521" yMax="608">
      <contour>
        <pt x="50" y="194" on="1"/>
        <pt x="427" y="351" on="1"/>
        <pt x="50" y="530" on="1"/>
        <pt x="50" y="608" on="1"/>
        <pt x="521" y="373" on="1"/>
        <pt x="521" y="323" on="1"/>
        <pt x="50" y="116" on="1"/>
      </contour>
    </TTGlyph>
    <TTGlyph name="guillemotleft" xMin="40" yMin="56" xMax="470" yMax="471">
      <contour>
        <pt x="40" y="270" on="1"/>
        <pt x="208" y="471" on="1"/>
        <pt x="271" y="435" on="1"/>
        <pt x="131" y="264" on="1"/>
        <pt x="271" y="93" on="1"/>
        <pt x="208" y="56" on="1"/>
        <pt x="40" y="257" on="1"/>
      </contour>
      <contour>
        <pt x="238" y="270" on="1"/>
        <pt x="408" y="471" on="1"/>
        <pt x="470" y="435" on="1"/>
        <pt x="330" y="264" on="1"/>
        <pt x="470" y="93" on="1"/>
        <pt x="408" y="56" on="1"/>
        <pt x="238" y="257" on="1"/>
      </contour>
    </TTGlyph>
    <TTGlyph name="guillemotright" xMin="39" yMin="56" xMax="469" yMax="471">
      <contour>
        <pt x="469" y="257" on="1"/>
        <pt x="299" y="56" on="1"/>
        <pt x="237" y="93" on="1"/>
        <pt x="377" y="264" on="1"/>
        <pt x="237" y="435" on="1"/>
        <pt x="299" y="471" on="1"/>
        <pt x="469" y="270" on="1"/>
      </contour>
      <contour>
        <pt x="270" y="257" on="1"/>
        <pt x="101" y="56" on="1"/>
        <pt x="39" y="93" on="1"/>
        <pt x="179" y="264" on="1"/>
        <pt x="39" y="435" on="1"/>
        <pt x="101" y="471" on="1"/>
        <pt x="270" y="270" on="1"/>
      </contour>
    </TTGlyph>
    <TTGlyph name="h" xMin="85" yMin="0" xMax="537" yMax="760">
      <contour>
        <pt x="173" y="537" on="1"/>
        <pt x="173" y="518" on="0"/>
        <pt x="170" y="478" on="0"/>
        <pt x="168" y="462" on="1"/>
        <pt x="174" y="462" on="1"/>
        <pt x="191" y="490" on="0"/>
        <pt x="243" y="526" on="0"/>
        <pt x="307" y="545" on="0"/>
        <pt x="341" y="545" on="1"/>
        <pt x="406" y="545" on="0"/>
        <pt x="493" y="504" on="0"/>
        <pt x="537" y="418" on="0"/>
        <pt x="537" y="349" on="1"/>
        <pt x="537" y="0" on="1"/>
        <pt x="450" y="0" on="1"/>
        <pt x="450" y="343" on="1"/>
        <pt x="450" y="408" on="0"/>
        <pt x="392" y="472" on="0"/>
        <pt x="330" y="472" on="1"/>
        <pt x="270" y="472" on="0"/>
        <pt x="202" y="427" on="0"/>
        <pt x="173" y="340" on="0"/>
        <pt x="173" y="277" on="1"/>
        <pt x="173" y="0" on="1"/>
        <pt x="85" y="0" on="1"/>
        <pt x="85" y="760" on="1"/>
        <pt x="173" y="760" on="1"/>
      </contour>
    </TTGlyph>
    <TTGlyph name="hbar" xMin="9" yMin="0" xMax="537" yMax="760">
      <contour>
        <pt x="173" y="760" on="1"/>
        <pt x="173" y="670" on="1"/>
        <pt x="385" y="670" on="1"/>
        <pt x="385" y="604" on="1"/>
        <pt x="173" y="604" on="1"/>
        <pt x="173" y="517" on="1"/>
        <pt x="173" y="498" on="0"/>
        <pt x="170" y="459" on="0"/>
        <pt x="168" y="443" on="1"/>
        <pt x="174" y="443" on="1"/>
        <pt x="191" y="471" on="0"/>
        <pt x="243" y="507" on="0"/>
        <pt x="307" y="526" on="0"/>
        <pt x="342" y="526" on="1"/>
        <pt x="407" y="526" on="0"/>
        <pt x="493" y="485" on="0"/>
        <pt x="537" y="398" on="0"/>
        <pt x="537" y="329" on="1"/>
        <pt x="537" y="0" on="1"/>
        <pt x="450" y="0" on="1"/>
        <pt x="450" y="323" on="1"/>
        <pt x="450" y="388" on="0"/>
        <pt x="392" y="452" on="0"/>
        <pt x="330" y="452" on="1"/>
        <pt x="270" y="452" on="0"/>
        <pt x="202" y="407" on="0"/>
        <pt x="173" y="321" on="0"/>
        <pt x="173" y="258" on="1"/>
        <pt x="173" y="0" on="1"/>
        <pt x="85" y="0" on="1"/>
        <pt x="85" y="604" on="1"/>
        <pt x="9" y="604" on="1"/>
        <pt x="9" y="670" on="1"/>
        <pt x="85" y="670" on="1"/>
        <pt x="85" y="760" on="1"/>
      </contour>
    </TTGlyph>
    <TTGlyph name="hcircumflex" xMin="85" yMin="0" xMax="537" yMax="760">
      <component glyphName="h" x="0" y="0" flags="0x1204"/>
    </TTGlyph>
    <TTGlyph name="hyphen" xMin="40" yMin="229" xMax="282" yMax="307">
      <contour>
        <pt x="40" y="229" on="1"/>
        <pt x="40" y="307" on="1"/>
        <pt x="282" y="307" on="1"/>
        <pt x="282" y="229" on="1"/>
      </contour>
    </TTGlyph>
    <TTGlyph name="i" xMin="78" yMin="0" xMax="181" yMax="737">
      <contour>
        <pt x="173" y="536" on="1"/>
        <pt x="173" y="0" on="1"/>
        <pt x="85" y="0" on="1"/>
        <pt x="85" y="536" on="1"/>
      </contour>
      <contour>
        <pt x="130" y="737" on="1"/>
        <pt x="150" y="737" on="0"/>
        <pt x="181" y="710" on="0"/>
        <pt x="181" y="681" on="1"/>
        <pt x="181" y="653" on="0"/>
        <pt x="150" y="625" on="0"/>
        <pt x="130" y="625" on="1"/>
        <pt x="108" y="625" on="0"/>
        <pt x="78" y="653" on="0"/>
        <pt x="78" y="681" on="1"/>
        <pt x="78" y="710" on="0"/>
        <pt x="108" y="737" on="0"/>
      </contour>
    </TTGlyph>
    <TTGlyph name="iacute" xMin="76" yMin="0" xMax="277" yMax="766">
      <component glyphName="dotlessi" x="0" y="0" flags="0x1204"/>
      <component glyphName="acute" x="36" y="0" flags="0x1004"/>
    </TTGlyph>
    <TTGlyph name="ibreve" xMin="85" yMin="0" xMax="173" yMax="536">
      <component glyphName="dotlessi" x="0" y="0" flags="0x1204"/>
    </TTGlyph>
    <TTGlyph name="icircumflex" xMin="-40" yMin="0" xMax="298" yMax="766">
      <contour>
        <pt x="173" y="766" on="1"/>
        <pt x="185" y="744" on="0"/>
        <pt x="230" y="689" on="0"/>
        <pt x="279" y="636" on="0"/>
        <pt x="298" y="617" on="1"/>
        <pt x="298" y="606" on="1"/>
        <pt x="236" y="606" on="1"/>
        <pt x="210" y="622" on="0"/>
        <pt x="154" y="669" on="0"/>
        <pt x="127" y="696" on="1"/>
        <pt x="100" y="669" on="0"/>
        <pt x="46" y="623" on="0"/>
        <pt x="20" y="606" on="1"/>
        <pt x="-40" y="606" on="1"/>
        <pt x="-40" y="617" on="1"/>
        <pt x="-21" y="637" on="0"/>
        <pt x="26" y="689" on="0"/>
        <pt x="70" y="744" on="0"/>
        <pt x="83" y="766" on="1"/>
      </contour>
      <contour>
        <pt x="173" y="0" on="1"/>
        <pt x="85" y="0" on="1"/>
        <pt x="85" y="536" on="1"/>
        <pt x="173" y="536" on="1"/>
      </contour>
    </TTGlyph>
    <TTGlyph name="idieresis" xMin="-11" yMin="0" xMax="270" yMax="730">
      <component glyphName="dotlessi" x="0" y="0" flags="0x1204"/>
      <component glyphName="dieresis" x="-160" y="0" flags="0x1004"/>
    </TTGlyph>
    <TTGlyph name="igrave" xMin="-1" yMin="0" xMax="200" yMax="766">
      <component glyphName="dotlessi" x="0" y="0" flags="0x1204"/>
      <component glyphName="grave" x="-41" y="0" flags="0x1004"/>
    </TTGlyph>
    <TTGlyph name="ij" xMin="78" yMin="-240" xMax="439" yMax="737">
      <component glyphName="i" x="0" y="0" flags="0x1004"/>
      <component glyphName="j" x="258" y="0" flags="0x1004"/>
    </TTGlyph>
    <TTGlyph name="imacron" xMin="85" yMin="0" xMax="173" yMax="536">
      <component glyphName="dotlessi" x="0" y="0" flags="0x1204"/>
    </TTGlyph>
    <TTGlyph name="iogonek" xMin="78" yMin="0" xMax="181" yMax="737">
      <component glyphName="i" x="0" y="0" flags="0x1204"/>
    </TTGlyph>
</ttFont>
